G04 #@! TF.GenerationSoftware,KiCad,Pcbnew,6.0.11-2627ca5db0~126~ubuntu20.04.1*
G04 #@! TF.CreationDate,2024-07-14T02:52:22-04:00*
G04 #@! TF.ProjectId,mapel2x2-pcb,6d617065-6c32-4783-922d-7063622e6b69,rev?*
G04 #@! TF.SameCoordinates,Original*
G04 #@! TF.FileFunction,Legend,Bot*
G04 #@! TF.FilePolarity,Positive*
%FSLAX46Y46*%
G04 Gerber Fmt 4.6, Leading zero omitted, Abs format (unit mm)*
G04 Created by KiCad (PCBNEW 6.0.11-2627ca5db0~126~ubuntu20.04.1) date 2024-07-14 02:52:22*
%MOMM*%
%LPD*%
G01*
G04 APERTURE LIST*
G04 Aperture macros list*
%AMRoundRect*
0 Rectangle with rounded corners*
0 $1 Rounding radius*
0 $2 $3 $4 $5 $6 $7 $8 $9 X,Y pos of 4 corners*
0 Add a 4 corners polygon primitive as box body*
4,1,4,$2,$3,$4,$5,$6,$7,$8,$9,$2,$3,0*
0 Add four circle primitives for the rounded corners*
1,1,$1+$1,$2,$3*
1,1,$1+$1,$4,$5*
1,1,$1+$1,$6,$7*
1,1,$1+$1,$8,$9*
0 Add four rect primitives between the rounded corners*
20,1,$1+$1,$2,$3,$4,$5,0*
20,1,$1+$1,$4,$5,$6,$7,0*
20,1,$1+$1,$6,$7,$8,$9,0*
20,1,$1+$1,$8,$9,$2,$3,0*%
%AMHorizOval*
0 Thick line with rounded ends*
0 $1 width*
0 $2 $3 position (X,Y) of the first rounded end (center of the circle)*
0 $4 $5 position (X,Y) of the second rounded end (center of the circle)*
0 Add line between two ends*
20,1,$1,$2,$3,$4,$5,0*
0 Add two circle primitives to create the rounded ends*
1,1,$1,$2,$3*
1,1,$1,$4,$5*%
G04 Aperture macros list end*
%ADD10C,0.150000*%
%ADD11C,0.200000*%
%ADD12C,0.120000*%
%ADD13RoundRect,0.102000X-0.300000X-0.575000X0.300000X-0.575000X0.300000X0.575000X-0.300000X0.575000X0*%
%ADD14RoundRect,0.102000X-0.150000X-0.575000X0.150000X-0.575000X0.150000X0.575000X-0.150000X0.575000X0*%
%ADD15RoundRect,0.102000X-1.090000X-1.000000X1.090000X-1.000000X1.090000X1.000000X-1.090000X1.000000X0*%
%ADD16C,0.650000*%
%ADD17R,1.400000X1.200000*%
%ADD18R,1.500000X0.550000*%
%ADD19R,0.550000X1.500000*%
%ADD20R,1.800000X1.100000*%
%ADD21RoundRect,0.250000X0.262500X0.450000X-0.262500X0.450000X-0.262500X-0.450000X0.262500X-0.450000X0*%
%ADD22RoundRect,0.250000X-0.450000X0.262500X-0.450000X-0.262500X0.450000X-0.262500X0.450000X0.262500X0*%
%ADD23RoundRect,0.250000X0.450000X-0.262500X0.450000X0.262500X-0.450000X0.262500X-0.450000X-0.262500X0*%
%ADD24HorizOval,2.250000X0.020000X0.290000X-0.020000X-0.290000X0*%
%ADD25C,2.250000*%
%ADD26HorizOval,2.250000X0.655001X0.730000X-0.655001X-0.730000X0*%
%ADD27C,3.987800*%
%ADD28C,1.750000*%
%ADD29RoundRect,0.250000X-0.625000X0.375000X-0.625000X-0.375000X0.625000X-0.375000X0.625000X0.375000X0*%
%ADD30R,1.200000X0.900000*%
%ADD31RoundRect,0.250000X0.250000X0.475000X-0.250000X0.475000X-0.250000X-0.475000X0.250000X-0.475000X0*%
%ADD32RoundRect,0.250000X-0.250000X-0.475000X0.250000X-0.475000X0.250000X0.475000X-0.250000X0.475000X0*%
%ADD33RoundRect,0.250000X0.475000X-0.250000X0.475000X0.250000X-0.475000X0.250000X-0.475000X-0.250000X0*%
%ADD34RoundRect,0.250000X-0.475000X0.250000X-0.475000X-0.250000X0.475000X-0.250000X0.475000X0.250000X0*%
G04 APERTURE END LIST*
D10*
G04 #@! TO.C,J1*
X176708333Y-111806130D02*
X176708333Y-112520416D01*
X176755952Y-112663273D01*
X176851190Y-112758511D01*
X176994047Y-112806130D01*
X177089285Y-112806130D01*
X175708333Y-112806130D02*
X176279761Y-112806130D01*
X175994047Y-112806130D02*
X175994047Y-111806130D01*
X176089285Y-111948988D01*
X176184523Y-112044226D01*
X176279761Y-112091845D01*
G04 #@! TO.C,Y1*
X195738690Y-119107440D02*
X195738690Y-119583630D01*
X196072023Y-118583630D02*
X195738690Y-119107440D01*
X195405357Y-118583630D01*
X194548214Y-119583630D02*
X195119642Y-119583630D01*
X194833928Y-119583630D02*
X194833928Y-118583630D01*
X194929166Y-118726488D01*
X195024404Y-118821726D01*
X195119642Y-118869345D01*
G04 #@! TO.C,U1*
X196024404Y-135489880D02*
X196024404Y-136299404D01*
X195976785Y-136394642D01*
X195929166Y-136442261D01*
X195833928Y-136489880D01*
X195643452Y-136489880D01*
X195548214Y-136442261D01*
X195500595Y-136394642D01*
X195452976Y-136299404D01*
X195452976Y-135489880D01*
X194452976Y-136489880D02*
X195024404Y-136489880D01*
X194738690Y-136489880D02*
X194738690Y-135489880D01*
X194833928Y-135632738D01*
X194929166Y-135727976D01*
X195024404Y-135775595D01*
G04 #@! TO.C,SW1*
X175958333Y-140200011D02*
X175815476Y-140247630D01*
X175577380Y-140247630D01*
X175482142Y-140200011D01*
X175434523Y-140152392D01*
X175386904Y-140057154D01*
X175386904Y-139961916D01*
X175434523Y-139866678D01*
X175482142Y-139819059D01*
X175577380Y-139771440D01*
X175767857Y-139723821D01*
X175863095Y-139676202D01*
X175910714Y-139628583D01*
X175958333Y-139533345D01*
X175958333Y-139438107D01*
X175910714Y-139342869D01*
X175863095Y-139295250D01*
X175767857Y-139247630D01*
X175529761Y-139247630D01*
X175386904Y-139295250D01*
X175053571Y-139247630D02*
X174815476Y-140247630D01*
X174625000Y-139533345D01*
X174434523Y-140247630D01*
X174196428Y-139247630D01*
X173291666Y-140247630D02*
X173863095Y-140247630D01*
X173577380Y-140247630D02*
X173577380Y-139247630D01*
X173672619Y-139390488D01*
X173767857Y-139485726D01*
X173863095Y-139533345D01*
G04 #@! TO.C,R6*
X171843730Y-112879880D02*
X172177064Y-112403690D01*
X172415159Y-112879880D02*
X172415159Y-111879880D01*
X172034206Y-111879880D01*
X171938968Y-111927500D01*
X171891349Y-111975119D01*
X171843730Y-112070357D01*
X171843730Y-112213214D01*
X171891349Y-112308452D01*
X171938968Y-112356071D01*
X172034206Y-112403690D01*
X172415159Y-112403690D01*
X170986587Y-111879880D02*
X171177064Y-111879880D01*
X171272302Y-111927500D01*
X171319921Y-111975119D01*
X171415159Y-112117976D01*
X171462778Y-112308452D01*
X171462778Y-112689404D01*
X171415159Y-112784642D01*
X171367540Y-112832261D01*
X171272302Y-112879880D01*
X171081825Y-112879880D01*
X170986587Y-112832261D01*
X170938968Y-112784642D01*
X170891349Y-112689404D01*
X170891349Y-112451309D01*
X170938968Y-112356071D01*
X170986587Y-112308452D01*
X171081825Y-112260833D01*
X171272302Y-112260833D01*
X171367540Y-112308452D01*
X171415159Y-112356071D01*
X171462778Y-112451309D01*
G04 #@! TO.C,R5*
X184316666Y-112989880D02*
X184650000Y-112513690D01*
X184888095Y-112989880D02*
X184888095Y-111989880D01*
X184507142Y-111989880D01*
X184411904Y-112037500D01*
X184364285Y-112085119D01*
X184316666Y-112180357D01*
X184316666Y-112323214D01*
X184364285Y-112418452D01*
X184411904Y-112466071D01*
X184507142Y-112513690D01*
X184888095Y-112513690D01*
X183411904Y-111989880D02*
X183888095Y-111989880D01*
X183935714Y-112466071D01*
X183888095Y-112418452D01*
X183792857Y-112370833D01*
X183554761Y-112370833D01*
X183459523Y-112418452D01*
X183411904Y-112466071D01*
X183364285Y-112561309D01*
X183364285Y-112799404D01*
X183411904Y-112894642D01*
X183459523Y-112942261D01*
X183554761Y-112989880D01*
X183792857Y-112989880D01*
X183888095Y-112942261D01*
X183935714Y-112894642D01*
G04 #@! TO.C,R4*
X204383630Y-133183333D02*
X203907440Y-132850000D01*
X204383630Y-132611904D02*
X203383630Y-132611904D01*
X203383630Y-132992857D01*
X203431250Y-133088095D01*
X203478869Y-133135714D01*
X203574107Y-133183333D01*
X203716964Y-133183333D01*
X203812202Y-133135714D01*
X203859821Y-133088095D01*
X203907440Y-132992857D01*
X203907440Y-132611904D01*
X203716964Y-134040476D02*
X204383630Y-134040476D01*
X203336011Y-133802380D02*
X204050297Y-133564285D01*
X204050297Y-134183333D01*
G04 #@! TO.C,R3*
X186996130Y-119689583D02*
X186519940Y-119356250D01*
X186996130Y-119118154D02*
X185996130Y-119118154D01*
X185996130Y-119499107D01*
X186043750Y-119594345D01*
X186091369Y-119641964D01*
X186186607Y-119689583D01*
X186329464Y-119689583D01*
X186424702Y-119641964D01*
X186472321Y-119594345D01*
X186519940Y-119499107D01*
X186519940Y-119118154D01*
X185996130Y-120022916D02*
X185996130Y-120641964D01*
X186377083Y-120308630D01*
X186377083Y-120451488D01*
X186424702Y-120546726D01*
X186472321Y-120594345D01*
X186567559Y-120641964D01*
X186805654Y-120641964D01*
X186900892Y-120594345D01*
X186948511Y-120546726D01*
X186996130Y-120451488D01*
X186996130Y-120165773D01*
X186948511Y-120070535D01*
X186900892Y-120022916D01*
G04 #@! TO.C,R2*
X178126380Y-116514583D02*
X177650190Y-116181250D01*
X178126380Y-115943154D02*
X177126380Y-115943154D01*
X177126380Y-116324107D01*
X177174000Y-116419345D01*
X177221619Y-116466964D01*
X177316857Y-116514583D01*
X177459714Y-116514583D01*
X177554952Y-116466964D01*
X177602571Y-116419345D01*
X177650190Y-116324107D01*
X177650190Y-115943154D01*
X177221619Y-116895535D02*
X177174000Y-116943154D01*
X177126380Y-117038392D01*
X177126380Y-117276488D01*
X177174000Y-117371726D01*
X177221619Y-117419345D01*
X177316857Y-117466964D01*
X177412095Y-117466964D01*
X177554952Y-117419345D01*
X178126380Y-116847916D01*
X178126380Y-117466964D01*
G04 #@! TO.C,R1*
X175014880Y-116514583D02*
X174538690Y-116181250D01*
X175014880Y-115943154D02*
X174014880Y-115943154D01*
X174014880Y-116324107D01*
X174062500Y-116419345D01*
X174110119Y-116466964D01*
X174205357Y-116514583D01*
X174348214Y-116514583D01*
X174443452Y-116466964D01*
X174491071Y-116419345D01*
X174538690Y-116324107D01*
X174538690Y-115943154D01*
X175014880Y-117466964D02*
X175014880Y-116895535D01*
X175014880Y-117181250D02*
X174014880Y-117181250D01*
X174157738Y-117086011D01*
X174252976Y-116990773D01*
X174300595Y-116895535D01*
G04 #@! TO.C,F1*
X170352321Y-122304166D02*
X170352321Y-121970833D01*
X170876130Y-121970833D02*
X169876130Y-121970833D01*
X169876130Y-122447023D01*
X170876130Y-123351785D02*
X170876130Y-122780357D01*
X170876130Y-123066071D02*
X169876130Y-123066071D01*
X170018988Y-122970833D01*
X170114226Y-122875595D01*
X170161845Y-122780357D01*
G04 #@! TO.C,D4*
X245339880Y-131024404D02*
X244339880Y-131024404D01*
X244339880Y-131262500D01*
X244387500Y-131405357D01*
X244482738Y-131500595D01*
X244577976Y-131548214D01*
X244768452Y-131595833D01*
X244911309Y-131595833D01*
X245101785Y-131548214D01*
X245197023Y-131500595D01*
X245292261Y-131405357D01*
X245339880Y-131262500D01*
X245339880Y-131024404D01*
X244673214Y-132452976D02*
X245339880Y-132452976D01*
X244292261Y-132214880D02*
X245006547Y-131976785D01*
X245006547Y-132595833D01*
G04 #@! TO.C,D3*
X245339880Y-111974404D02*
X244339880Y-111974404D01*
X244339880Y-112212500D01*
X244387500Y-112355357D01*
X244482738Y-112450595D01*
X244577976Y-112498214D01*
X244768452Y-112545833D01*
X244911309Y-112545833D01*
X245101785Y-112498214D01*
X245197023Y-112450595D01*
X245292261Y-112355357D01*
X245339880Y-112212500D01*
X245339880Y-111974404D01*
X244339880Y-112879166D02*
X244339880Y-113498214D01*
X244720833Y-113164880D01*
X244720833Y-113307738D01*
X244768452Y-113402976D01*
X244816071Y-113450595D01*
X244911309Y-113498214D01*
X245149404Y-113498214D01*
X245244642Y-113450595D01*
X245292261Y-113402976D01*
X245339880Y-113307738D01*
X245339880Y-113022023D01*
X245292261Y-112926785D01*
X245244642Y-112879166D01*
G04 #@! TO.C,D2*
X226289880Y-131024404D02*
X225289880Y-131024404D01*
X225289880Y-131262500D01*
X225337500Y-131405357D01*
X225432738Y-131500595D01*
X225527976Y-131548214D01*
X225718452Y-131595833D01*
X225861309Y-131595833D01*
X226051785Y-131548214D01*
X226147023Y-131500595D01*
X226242261Y-131405357D01*
X226289880Y-131262500D01*
X226289880Y-131024404D01*
X225385119Y-131976785D02*
X225337500Y-132024404D01*
X225289880Y-132119642D01*
X225289880Y-132357738D01*
X225337500Y-132452976D01*
X225385119Y-132500595D01*
X225480357Y-132548214D01*
X225575595Y-132548214D01*
X225718452Y-132500595D01*
X226289880Y-131929166D01*
X226289880Y-132548214D01*
G04 #@! TO.C,D1*
X226289880Y-111974404D02*
X225289880Y-111974404D01*
X225289880Y-112212500D01*
X225337500Y-112355357D01*
X225432738Y-112450595D01*
X225527976Y-112498214D01*
X225718452Y-112545833D01*
X225861309Y-112545833D01*
X226051785Y-112498214D01*
X226147023Y-112450595D01*
X226242261Y-112355357D01*
X226289880Y-112212500D01*
X226289880Y-111974404D01*
X226289880Y-113498214D02*
X226289880Y-112926785D01*
X226289880Y-113212500D02*
X225289880Y-113212500D01*
X225432738Y-113117261D01*
X225527976Y-113022023D01*
X225575595Y-112926785D01*
G04 #@! TO.C,C7*
X184316666Y-125677142D02*
X184364285Y-125724761D01*
X184507142Y-125772380D01*
X184602380Y-125772380D01*
X184745238Y-125724761D01*
X184840476Y-125629523D01*
X184888095Y-125534285D01*
X184935714Y-125343809D01*
X184935714Y-125200952D01*
X184888095Y-125010476D01*
X184840476Y-124915238D01*
X184745238Y-124820000D01*
X184602380Y-124772380D01*
X184507142Y-124772380D01*
X184364285Y-124820000D01*
X184316666Y-124867619D01*
X183983333Y-124772380D02*
X183316666Y-124772380D01*
X183745238Y-125772380D01*
G04 #@! TO.C,C6*
X191632920Y-140318392D02*
X191680539Y-140366011D01*
X191823396Y-140413630D01*
X191918634Y-140413630D01*
X192061492Y-140366011D01*
X192156730Y-140270773D01*
X192204349Y-140175535D01*
X192251968Y-139985059D01*
X192251968Y-139842202D01*
X192204349Y-139651726D01*
X192156730Y-139556488D01*
X192061492Y-139461250D01*
X191918634Y-139413630D01*
X191823396Y-139413630D01*
X191680539Y-139461250D01*
X191632920Y-139508869D01*
X190775777Y-139413630D02*
X190966254Y-139413630D01*
X191061492Y-139461250D01*
X191109111Y-139508869D01*
X191204349Y-139651726D01*
X191251968Y-139842202D01*
X191251968Y-140223154D01*
X191204349Y-140318392D01*
X191156730Y-140366011D01*
X191061492Y-140413630D01*
X190871015Y-140413630D01*
X190775777Y-140366011D01*
X190728158Y-140318392D01*
X190680539Y-140223154D01*
X190680539Y-139985059D01*
X190728158Y-139889821D01*
X190775777Y-139842202D01*
X190871015Y-139794583D01*
X191061492Y-139794583D01*
X191156730Y-139842202D01*
X191204349Y-139889821D01*
X191251968Y-139985059D01*
G04 #@! TO.C,C5*
X193330892Y-116514583D02*
X193378511Y-116466964D01*
X193426130Y-116324107D01*
X193426130Y-116228869D01*
X193378511Y-116086011D01*
X193283273Y-115990773D01*
X193188035Y-115943154D01*
X192997559Y-115895535D01*
X192854702Y-115895535D01*
X192664226Y-115943154D01*
X192568988Y-115990773D01*
X192473750Y-116086011D01*
X192426130Y-116228869D01*
X192426130Y-116324107D01*
X192473750Y-116466964D01*
X192521369Y-116514583D01*
X192426130Y-117419345D02*
X192426130Y-116943154D01*
X192902321Y-116895535D01*
X192854702Y-116943154D01*
X192807083Y-117038392D01*
X192807083Y-117276488D01*
X192854702Y-117371726D01*
X192902321Y-117419345D01*
X192997559Y-117466964D01*
X193235654Y-117466964D01*
X193330892Y-117419345D01*
X193378511Y-117371726D01*
X193426130Y-117276488D01*
X193426130Y-117038392D01*
X193378511Y-116943154D01*
X193330892Y-116895535D01*
G04 #@! TO.C,C4*
X197908392Y-116514583D02*
X197956011Y-116466964D01*
X198003630Y-116324107D01*
X198003630Y-116228869D01*
X197956011Y-116086011D01*
X197860773Y-115990773D01*
X197765535Y-115943154D01*
X197575059Y-115895535D01*
X197432202Y-115895535D01*
X197241726Y-115943154D01*
X197146488Y-115990773D01*
X197051250Y-116086011D01*
X197003630Y-116228869D01*
X197003630Y-116324107D01*
X197051250Y-116466964D01*
X197098869Y-116514583D01*
X197336964Y-117371726D02*
X198003630Y-117371726D01*
X196956011Y-117133630D02*
X197670297Y-116895535D01*
X197670297Y-117514583D01*
G04 #@! TO.C,C3*
X199570420Y-136958392D02*
X199618039Y-137006011D01*
X199760896Y-137053630D01*
X199856134Y-137053630D01*
X199998992Y-137006011D01*
X200094230Y-136910773D01*
X200141849Y-136815535D01*
X200189468Y-136625059D01*
X200189468Y-136482202D01*
X200141849Y-136291726D01*
X200094230Y-136196488D01*
X199998992Y-136101250D01*
X199856134Y-136053630D01*
X199760896Y-136053630D01*
X199618039Y-136101250D01*
X199570420Y-136148869D01*
X199237087Y-136053630D02*
X198618039Y-136053630D01*
X198951373Y-136434583D01*
X198808515Y-136434583D01*
X198713277Y-136482202D01*
X198665658Y-136529821D01*
X198618039Y-136625059D01*
X198618039Y-136863154D01*
X198665658Y-136958392D01*
X198713277Y-137006011D01*
X198808515Y-137053630D01*
X199094230Y-137053630D01*
X199189468Y-137006011D01*
X199237087Y-136958392D01*
G04 #@! TO.C,C2*
X189818392Y-119689583D02*
X189866011Y-119641964D01*
X189913630Y-119499107D01*
X189913630Y-119403869D01*
X189866011Y-119261011D01*
X189770773Y-119165773D01*
X189675535Y-119118154D01*
X189485059Y-119070535D01*
X189342202Y-119070535D01*
X189151726Y-119118154D01*
X189056488Y-119165773D01*
X188961250Y-119261011D01*
X188913630Y-119403869D01*
X188913630Y-119499107D01*
X188961250Y-119641964D01*
X189008869Y-119689583D01*
X189008869Y-120070535D02*
X188961250Y-120118154D01*
X188913630Y-120213392D01*
X188913630Y-120451488D01*
X188961250Y-120546726D01*
X189008869Y-120594345D01*
X189104107Y-120641964D01*
X189199345Y-120641964D01*
X189342202Y-120594345D01*
X189913630Y-120022916D01*
X189913630Y-120641964D01*
G04 #@! TO.C,C1*
X206253142Y-124928333D02*
X206300761Y-124880714D01*
X206348380Y-124737857D01*
X206348380Y-124642619D01*
X206300761Y-124499761D01*
X206205523Y-124404523D01*
X206110285Y-124356904D01*
X205919809Y-124309285D01*
X205776952Y-124309285D01*
X205586476Y-124356904D01*
X205491238Y-124404523D01*
X205396000Y-124499761D01*
X205348380Y-124642619D01*
X205348380Y-124737857D01*
X205396000Y-124880714D01*
X205443619Y-124928333D01*
X206348380Y-125880714D02*
X206348380Y-125309285D01*
X206348380Y-125595000D02*
X205348380Y-125595000D01*
X205491238Y-125499761D01*
X205586476Y-125404523D01*
X205634095Y-125309285D01*
D11*
G04 #@! TO.C,J1*
X173330000Y-104428750D02*
X173330000Y-102938750D01*
X173330000Y-102938750D02*
X182270000Y-102938750D01*
X182270000Y-102938750D02*
X182270000Y-104428750D01*
X173330000Y-108358750D02*
X173330000Y-107148750D01*
X182270000Y-108358750D02*
X182270000Y-107148750D01*
X174120000Y-111448750D02*
G75*
G03*
X174120000Y-111448750I-100000J0D01*
G01*
D12*
G04 #@! TO.C,Y1*
X193262500Y-115031250D02*
X197262500Y-115031250D01*
X193262500Y-118331250D02*
X193262500Y-115031250D01*
D10*
G04 #@! TO.C,U1*
X190087500Y-123412500D02*
X190087500Y-124087500D01*
X190087500Y-123412500D02*
X190762500Y-123412500D01*
X200437500Y-123412500D02*
X200437500Y-124087500D01*
X200437500Y-133762500D02*
X200437500Y-133087500D01*
X190087500Y-133762500D02*
X190762500Y-133762500D01*
X200437500Y-123412500D02*
X199762500Y-123412500D01*
X190087500Y-133187500D02*
X188812500Y-133187500D01*
X200437500Y-133762500D02*
X199762500Y-133762500D01*
X190087500Y-133762500D02*
X190087500Y-133187500D01*
G04 #@! TO.C,SW1*
X175625000Y-135731250D02*
G75*
G03*
X175625000Y-135731250I-1000000J0D01*
G01*
X177225000Y-138331250D02*
X177225000Y-133131250D01*
X172025000Y-138331250D02*
X177225000Y-138331250D01*
X172025000Y-133131250D02*
X172025000Y-138331250D01*
X177225000Y-133131250D02*
X172025000Y-133131250D01*
D12*
G04 #@! TO.C,R6*
X171904128Y-113342500D02*
X171450000Y-113342500D01*
X171904128Y-114812500D02*
X171450000Y-114812500D01*
G04 #@! TO.C,R5*
X184377064Y-113452500D02*
X183922936Y-113452500D01*
X184377064Y-114922500D02*
X183922936Y-114922500D01*
G04 #@! TO.C,R4*
X204846250Y-133122936D02*
X204846250Y-133577064D01*
X206316250Y-133122936D02*
X206316250Y-133577064D01*
G04 #@! TO.C,R3*
X185628750Y-120083314D02*
X185628750Y-119629186D01*
X184158750Y-120083314D02*
X184158750Y-119629186D01*
G04 #@! TO.C,R2*
X178589000Y-116454186D02*
X178589000Y-116908314D01*
X180059000Y-116454186D02*
X180059000Y-116908314D01*
G04 #@! TO.C,R1*
X175477500Y-116454186D02*
X175477500Y-116908314D01*
X176947500Y-116454186D02*
X176947500Y-116908314D01*
G04 #@! TO.C,F1*
X173153750Y-122035436D02*
X173153750Y-123239564D01*
X171333750Y-122035436D02*
X171333750Y-123239564D01*
G04 #@! TO.C,D4*
X243887500Y-134012500D02*
X243887500Y-130112500D01*
X243887500Y-134012500D02*
X241887500Y-134012500D01*
X241887500Y-134012500D02*
X241887500Y-130112500D01*
G04 #@! TO.C,D3*
X243887500Y-114962500D02*
X243887500Y-111062500D01*
X243887500Y-114962500D02*
X241887500Y-114962500D01*
X241887500Y-114962500D02*
X241887500Y-111062500D01*
G04 #@! TO.C,D2*
X224837500Y-134012500D02*
X224837500Y-130112500D01*
X224837500Y-134012500D02*
X222837500Y-134012500D01*
X222837500Y-134012500D02*
X222837500Y-130112500D01*
G04 #@! TO.C,D1*
X224837500Y-114962500D02*
X224837500Y-111062500D01*
X224837500Y-114962500D02*
X222837500Y-114962500D01*
X222837500Y-114962500D02*
X222837500Y-111062500D01*
G04 #@! TO.C,C7*
X184411252Y-127735000D02*
X183888748Y-127735000D01*
X184411252Y-126265000D02*
X183888748Y-126265000D01*
G04 #@! TO.C,C6*
X191205002Y-137546250D02*
X191727506Y-137546250D01*
X191205002Y-139016250D02*
X191727506Y-139016250D01*
G04 #@! TO.C,C5*
X190558750Y-116942502D02*
X190558750Y-116419998D01*
X192028750Y-116942502D02*
X192028750Y-116419998D01*
G04 #@! TO.C,C4*
X198496250Y-116419998D02*
X198496250Y-116942502D01*
X199966250Y-116419998D02*
X199966250Y-116942502D01*
G04 #@! TO.C,C3*
X199665006Y-137546250D02*
X199142502Y-137546250D01*
X199665006Y-139016250D02*
X199142502Y-139016250D01*
G04 #@! TO.C,C2*
X187046250Y-120117502D02*
X187046250Y-119594998D01*
X188516250Y-120117502D02*
X188516250Y-119594998D01*
G04 #@! TO.C,C1*
X204951000Y-125356252D02*
X204951000Y-124833748D01*
X203481000Y-125356252D02*
X203481000Y-124833748D01*
G04 #@! TD*
%LPC*%
D13*
G04 #@! TO.C,J1*
X174600000Y-110293750D03*
X175400000Y-110293750D03*
X180200000Y-110293750D03*
X181000000Y-110293750D03*
D14*
X176050000Y-110293750D03*
X179550000Y-110293750D03*
X176550000Y-110293750D03*
X179050000Y-110293750D03*
X177050000Y-110293750D03*
X178550000Y-110293750D03*
X177550000Y-110293750D03*
X178050000Y-110293750D03*
D15*
X172690000Y-109718750D03*
X182910000Y-109718750D03*
X172690000Y-105788750D03*
X182910000Y-105788750D03*
D16*
X174910000Y-109218750D03*
X180690000Y-109218750D03*
G04 #@! TD*
D17*
G04 #@! TO.C,Y1*
X194162500Y-117531250D03*
X196362500Y-117531250D03*
X196362500Y-115831250D03*
X194162500Y-115831250D03*
G04 #@! TD*
D18*
G04 #@! TO.C,U1*
X189562500Y-132587500D03*
X189562500Y-131787500D03*
X189562500Y-130987500D03*
X189562500Y-130187500D03*
X189562500Y-129387500D03*
X189562500Y-128587500D03*
X189562500Y-127787500D03*
X189562500Y-126987500D03*
X189562500Y-126187500D03*
X189562500Y-125387500D03*
X189562500Y-124587500D03*
D19*
X191262500Y-122887500D03*
X192062500Y-122887500D03*
X192862500Y-122887500D03*
X193662500Y-122887500D03*
X194462500Y-122887500D03*
X195262500Y-122887500D03*
X196062500Y-122887500D03*
X196862500Y-122887500D03*
X197662500Y-122887500D03*
X198462500Y-122887500D03*
X199262500Y-122887500D03*
D18*
X200962500Y-124587500D03*
X200962500Y-125387500D03*
X200962500Y-126187500D03*
X200962500Y-126987500D03*
X200962500Y-127787500D03*
X200962500Y-128587500D03*
X200962500Y-129387500D03*
X200962500Y-130187500D03*
X200962500Y-130987500D03*
X200962500Y-131787500D03*
X200962500Y-132587500D03*
D19*
X199262500Y-134287500D03*
X198462500Y-134287500D03*
X197662500Y-134287500D03*
X196862500Y-134287500D03*
X196062500Y-134287500D03*
X195262500Y-134287500D03*
X194462500Y-134287500D03*
X193662500Y-134287500D03*
X192862500Y-134287500D03*
X192062500Y-134287500D03*
X191262500Y-134287500D03*
G04 #@! TD*
D20*
G04 #@! TO.C,SW1*
X171525000Y-137581250D03*
X177725000Y-133881250D03*
X171525000Y-133881250D03*
X177725000Y-137581250D03*
G04 #@! TD*
D21*
G04 #@! TO.C,R6*
X172589564Y-114077500D03*
X170764564Y-114077500D03*
G04 #@! TD*
G04 #@! TO.C,R5*
X185062500Y-114187500D03*
X183237500Y-114187500D03*
G04 #@! TD*
D22*
G04 #@! TO.C,R4*
X205581250Y-132437500D03*
X205581250Y-134262500D03*
G04 #@! TD*
D23*
G04 #@! TO.C,R3*
X184893750Y-120768750D03*
X184893750Y-118943750D03*
G04 #@! TD*
D22*
G04 #@! TO.C,R2*
X179324000Y-115768750D03*
X179324000Y-117593750D03*
G04 #@! TD*
G04 #@! TO.C,R1*
X176212500Y-115768750D03*
X176212500Y-117593750D03*
G04 #@! TD*
D24*
G04 #@! TO.C,MX4*
X237470000Y-126972500D03*
D25*
X237490000Y-126682500D03*
D26*
X231795001Y-128492500D03*
D27*
X234950000Y-131762500D03*
D25*
X232450000Y-127762500D03*
D28*
X229870000Y-131762500D03*
X240030000Y-131762500D03*
G04 #@! TD*
D24*
G04 #@! TO.C,MX2*
X237470000Y-107922500D03*
D25*
X237490000Y-107632500D03*
D26*
X231795001Y-109442500D03*
D27*
X234950000Y-112712500D03*
D25*
X232450000Y-108712500D03*
D28*
X229870000Y-112712500D03*
X240030000Y-112712500D03*
G04 #@! TD*
D24*
G04 #@! TO.C,MX3*
X218420000Y-126972500D03*
D25*
X218440000Y-126682500D03*
D26*
X212745001Y-128492500D03*
D27*
X215900000Y-131762500D03*
D25*
X213400000Y-127762500D03*
D28*
X210820000Y-131762500D03*
X220980000Y-131762500D03*
G04 #@! TD*
D24*
G04 #@! TO.C,MX1*
X218420000Y-107922500D03*
D25*
X218440000Y-107632500D03*
D26*
X212745001Y-109442500D03*
D27*
X215900000Y-112712500D03*
D25*
X213400000Y-108712500D03*
D28*
X210820000Y-112712500D03*
X220980000Y-112712500D03*
G04 #@! TD*
D29*
G04 #@! TO.C,F1*
X172243750Y-121237500D03*
X172243750Y-124037500D03*
G04 #@! TD*
D30*
G04 #@! TO.C,D4*
X242887500Y-133412500D03*
X242887500Y-130112500D03*
G04 #@! TD*
G04 #@! TO.C,D3*
X242887500Y-114362500D03*
X242887500Y-111062500D03*
G04 #@! TD*
G04 #@! TO.C,D2*
X223837500Y-133412500D03*
X223837500Y-130112500D03*
G04 #@! TD*
G04 #@! TO.C,D1*
X223837500Y-114362500D03*
X223837500Y-111062500D03*
G04 #@! TD*
D31*
G04 #@! TO.C,C7*
X185100000Y-127000000D03*
X183200000Y-127000000D03*
G04 #@! TD*
D32*
G04 #@! TO.C,C6*
X190516254Y-138281250D03*
X192416254Y-138281250D03*
G04 #@! TD*
D33*
G04 #@! TO.C,C5*
X191293750Y-117631250D03*
X191293750Y-115731250D03*
G04 #@! TD*
D34*
G04 #@! TO.C,C4*
X199231250Y-117631250D03*
X199231250Y-115731250D03*
G04 #@! TD*
D31*
G04 #@! TO.C,C3*
X198453754Y-138281250D03*
X200353754Y-138281250D03*
G04 #@! TD*
D33*
G04 #@! TO.C,C2*
X187781250Y-120806250D03*
X187781250Y-118906250D03*
G04 #@! TD*
G04 #@! TO.C,C1*
X204216000Y-124145000D03*
X204216000Y-126045000D03*
G04 #@! TD*
M02*
