G04 #@! TF.GenerationSoftware,KiCad,Pcbnew,6.0.11-2627ca5db0~126~ubuntu20.04.1*
G04 #@! TF.CreationDate,2024-07-14T02:52:22-04:00*
G04 #@! TF.ProjectId,mapel2x2-pcb,6d617065-6c32-4783-922d-7063622e6b69,rev?*
G04 #@! TF.SameCoordinates,Original*
G04 #@! TF.FileFunction,Soldermask,Bot*
G04 #@! TF.FilePolarity,Negative*
%FSLAX46Y46*%
G04 Gerber Fmt 4.6, Leading zero omitted, Abs format (unit mm)*
G04 Created by KiCad (PCBNEW 6.0.11-2627ca5db0~126~ubuntu20.04.1) date 2024-07-14 02:52:22*
%MOMM*%
%LPD*%
G01*
G04 APERTURE LIST*
G04 Aperture macros list*
%AMRoundRect*
0 Rectangle with rounded corners*
0 $1 Rounding radius*
0 $2 $3 $4 $5 $6 $7 $8 $9 X,Y pos of 4 corners*
0 Add a 4 corners polygon primitive as box body*
4,1,4,$2,$3,$4,$5,$6,$7,$8,$9,$2,$3,0*
0 Add four circle primitives for the rounded corners*
1,1,$1+$1,$2,$3*
1,1,$1+$1,$4,$5*
1,1,$1+$1,$6,$7*
1,1,$1+$1,$8,$9*
0 Add four rect primitives between the rounded corners*
20,1,$1+$1,$2,$3,$4,$5,0*
20,1,$1+$1,$4,$5,$6,$7,0*
20,1,$1+$1,$6,$7,$8,$9,0*
20,1,$1+$1,$8,$9,$2,$3,0*%
%AMHorizOval*
0 Thick line with rounded ends*
0 $1 width*
0 $2 $3 position (X,Y) of the first rounded end (center of the circle)*
0 $4 $5 position (X,Y) of the second rounded end (center of the circle)*
0 Add line between two ends*
20,1,$1,$2,$3,$4,$5,0*
0 Add two circle primitives to create the rounded ends*
1,1,$1,$2,$3*
1,1,$1,$4,$5*%
G04 Aperture macros list end*
%ADD10RoundRect,0.102000X-0.300000X-0.575000X0.300000X-0.575000X0.300000X0.575000X-0.300000X0.575000X0*%
%ADD11RoundRect,0.102000X-0.150000X-0.575000X0.150000X-0.575000X0.150000X0.575000X-0.150000X0.575000X0*%
%ADD12RoundRect,0.102000X-1.090000X-1.000000X1.090000X-1.000000X1.090000X1.000000X-1.090000X1.000000X0*%
%ADD13C,0.650000*%
%ADD14R,1.400000X1.200000*%
%ADD15R,1.500000X0.550000*%
%ADD16R,0.550000X1.500000*%
%ADD17R,1.800000X1.100000*%
%ADD18RoundRect,0.250000X0.262500X0.450000X-0.262500X0.450000X-0.262500X-0.450000X0.262500X-0.450000X0*%
%ADD19RoundRect,0.250000X-0.450000X0.262500X-0.450000X-0.262500X0.450000X-0.262500X0.450000X0.262500X0*%
%ADD20RoundRect,0.250000X0.450000X-0.262500X0.450000X0.262500X-0.450000X0.262500X-0.450000X-0.262500X0*%
%ADD21HorizOval,2.250000X0.020000X0.290000X-0.020000X-0.290000X0*%
%ADD22C,2.250000*%
%ADD23HorizOval,2.250000X0.655001X0.730000X-0.655001X-0.730000X0*%
%ADD24C,3.987800*%
%ADD25C,1.750000*%
%ADD26RoundRect,0.250000X-0.625000X0.375000X-0.625000X-0.375000X0.625000X-0.375000X0.625000X0.375000X0*%
%ADD27R,1.200000X0.900000*%
%ADD28RoundRect,0.250000X0.250000X0.475000X-0.250000X0.475000X-0.250000X-0.475000X0.250000X-0.475000X0*%
%ADD29RoundRect,0.250000X-0.250000X-0.475000X0.250000X-0.475000X0.250000X0.475000X-0.250000X0.475000X0*%
%ADD30RoundRect,0.250000X0.475000X-0.250000X0.475000X0.250000X-0.475000X0.250000X-0.475000X-0.250000X0*%
%ADD31RoundRect,0.250000X-0.475000X0.250000X-0.475000X-0.250000X0.475000X-0.250000X0.475000X0.250000X0*%
G04 APERTURE END LIST*
D10*
G04 #@! TO.C,J1*
X174600000Y-110293750D03*
X175400000Y-110293750D03*
X180200000Y-110293750D03*
X181000000Y-110293750D03*
D11*
X176050000Y-110293750D03*
X179550000Y-110293750D03*
X176550000Y-110293750D03*
X179050000Y-110293750D03*
X177050000Y-110293750D03*
X178550000Y-110293750D03*
X177550000Y-110293750D03*
X178050000Y-110293750D03*
D12*
X172690000Y-109718750D03*
X182910000Y-109718750D03*
X172690000Y-105788750D03*
X182910000Y-105788750D03*
D13*
X174910000Y-109218750D03*
X180690000Y-109218750D03*
G04 #@! TD*
D14*
G04 #@! TO.C,Y1*
X194162500Y-117531250D03*
X196362500Y-117531250D03*
X196362500Y-115831250D03*
X194162500Y-115831250D03*
G04 #@! TD*
D15*
G04 #@! TO.C,U1*
X189562500Y-132587500D03*
X189562500Y-131787500D03*
X189562500Y-130987500D03*
X189562500Y-130187500D03*
X189562500Y-129387500D03*
X189562500Y-128587500D03*
X189562500Y-127787500D03*
X189562500Y-126987500D03*
X189562500Y-126187500D03*
X189562500Y-125387500D03*
X189562500Y-124587500D03*
D16*
X191262500Y-122887500D03*
X192062500Y-122887500D03*
X192862500Y-122887500D03*
X193662500Y-122887500D03*
X194462500Y-122887500D03*
X195262500Y-122887500D03*
X196062500Y-122887500D03*
X196862500Y-122887500D03*
X197662500Y-122887500D03*
X198462500Y-122887500D03*
X199262500Y-122887500D03*
D15*
X200962500Y-124587500D03*
X200962500Y-125387500D03*
X200962500Y-126187500D03*
X200962500Y-126987500D03*
X200962500Y-127787500D03*
X200962500Y-128587500D03*
X200962500Y-129387500D03*
X200962500Y-130187500D03*
X200962500Y-130987500D03*
X200962500Y-131787500D03*
X200962500Y-132587500D03*
D16*
X199262500Y-134287500D03*
X198462500Y-134287500D03*
X197662500Y-134287500D03*
X196862500Y-134287500D03*
X196062500Y-134287500D03*
X195262500Y-134287500D03*
X194462500Y-134287500D03*
X193662500Y-134287500D03*
X192862500Y-134287500D03*
X192062500Y-134287500D03*
X191262500Y-134287500D03*
G04 #@! TD*
D17*
G04 #@! TO.C,SW1*
X171525000Y-137581250D03*
X177725000Y-133881250D03*
X171525000Y-133881250D03*
X177725000Y-137581250D03*
G04 #@! TD*
D18*
G04 #@! TO.C,R6*
X172589564Y-114077500D03*
X170764564Y-114077500D03*
G04 #@! TD*
G04 #@! TO.C,R5*
X185062500Y-114187500D03*
X183237500Y-114187500D03*
G04 #@! TD*
D19*
G04 #@! TO.C,R4*
X205581250Y-132437500D03*
X205581250Y-134262500D03*
G04 #@! TD*
D20*
G04 #@! TO.C,R3*
X184893750Y-120768750D03*
X184893750Y-118943750D03*
G04 #@! TD*
D19*
G04 #@! TO.C,R2*
X179324000Y-115768750D03*
X179324000Y-117593750D03*
G04 #@! TD*
G04 #@! TO.C,R1*
X176212500Y-115768750D03*
X176212500Y-117593750D03*
G04 #@! TD*
D21*
G04 #@! TO.C,MX4*
X237470000Y-126972500D03*
D22*
X237490000Y-126682500D03*
D23*
X231795001Y-128492500D03*
D24*
X234950000Y-131762500D03*
D22*
X232450000Y-127762500D03*
D25*
X229870000Y-131762500D03*
X240030000Y-131762500D03*
G04 #@! TD*
D21*
G04 #@! TO.C,MX2*
X237470000Y-107922500D03*
D22*
X237490000Y-107632500D03*
D23*
X231795001Y-109442500D03*
D24*
X234950000Y-112712500D03*
D22*
X232450000Y-108712500D03*
D25*
X229870000Y-112712500D03*
X240030000Y-112712500D03*
G04 #@! TD*
D21*
G04 #@! TO.C,MX3*
X218420000Y-126972500D03*
D22*
X218440000Y-126682500D03*
D23*
X212745001Y-128492500D03*
D24*
X215900000Y-131762500D03*
D22*
X213400000Y-127762500D03*
D25*
X210820000Y-131762500D03*
X220980000Y-131762500D03*
G04 #@! TD*
D21*
G04 #@! TO.C,MX1*
X218420000Y-107922500D03*
D22*
X218440000Y-107632500D03*
D23*
X212745001Y-109442500D03*
D24*
X215900000Y-112712500D03*
D22*
X213400000Y-108712500D03*
D25*
X210820000Y-112712500D03*
X220980000Y-112712500D03*
G04 #@! TD*
D26*
G04 #@! TO.C,F1*
X172243750Y-121237500D03*
X172243750Y-124037500D03*
G04 #@! TD*
D27*
G04 #@! TO.C,D4*
X242887500Y-133412500D03*
X242887500Y-130112500D03*
G04 #@! TD*
G04 #@! TO.C,D3*
X242887500Y-114362500D03*
X242887500Y-111062500D03*
G04 #@! TD*
G04 #@! TO.C,D2*
X223837500Y-133412500D03*
X223837500Y-130112500D03*
G04 #@! TD*
G04 #@! TO.C,D1*
X223837500Y-114362500D03*
X223837500Y-111062500D03*
G04 #@! TD*
D28*
G04 #@! TO.C,C7*
X185100000Y-127000000D03*
X183200000Y-127000000D03*
G04 #@! TD*
D29*
G04 #@! TO.C,C6*
X190516254Y-138281250D03*
X192416254Y-138281250D03*
G04 #@! TD*
D30*
G04 #@! TO.C,C5*
X191293750Y-117631250D03*
X191293750Y-115731250D03*
G04 #@! TD*
D31*
G04 #@! TO.C,C4*
X199231250Y-117631250D03*
X199231250Y-115731250D03*
G04 #@! TD*
D28*
G04 #@! TO.C,C3*
X198453754Y-138281250D03*
X200353754Y-138281250D03*
G04 #@! TD*
D30*
G04 #@! TO.C,C2*
X187781250Y-120806250D03*
X187781250Y-118906250D03*
G04 #@! TD*
G04 #@! TO.C,C1*
X204216000Y-124145000D03*
X204216000Y-126045000D03*
G04 #@! TD*
M02*
