G04 #@! TF.GenerationSoftware,KiCad,Pcbnew,6.0.11-2627ca5db0~126~ubuntu20.04.1*
G04 #@! TF.CreationDate,2024-07-14T02:52:22-04:00*
G04 #@! TF.ProjectId,mapel2x2-pcb,6d617065-6c32-4783-922d-7063622e6b69,rev?*
G04 #@! TF.SameCoordinates,Original*
G04 #@! TF.FileFunction,Copper,L1,Top*
G04 #@! TF.FilePolarity,Positive*
%FSLAX46Y46*%
G04 Gerber Fmt 4.6, Leading zero omitted, Abs format (unit mm)*
G04 Created by KiCad (PCBNEW 6.0.11-2627ca5db0~126~ubuntu20.04.1) date 2024-07-14 02:52:22*
%MOMM*%
%LPD*%
G01*
G04 APERTURE LIST*
G04 Aperture macros list*
%AMHorizOval*
0 Thick line with rounded ends*
0 $1 width*
0 $2 $3 position (X,Y) of the first rounded end (center of the circle)*
0 $4 $5 position (X,Y) of the second rounded end (center of the circle)*
0 Add line between two ends*
20,1,$1,$2,$3,$4,$5,0*
0 Add two circle primitives to create the rounded ends*
1,1,$1,$2,$3*
1,1,$1,$4,$5*%
G04 Aperture macros list end*
G04 #@! TA.AperFunction,ComponentPad*
%ADD10HorizOval,2.250000X0.020000X0.290000X-0.020000X-0.290000X0*%
G04 #@! TD*
G04 #@! TA.AperFunction,ComponentPad*
%ADD11C,2.250000*%
G04 #@! TD*
G04 #@! TA.AperFunction,ComponentPad*
%ADD12HorizOval,2.250000X0.655001X0.730000X-0.655001X-0.730000X0*%
G04 #@! TD*
G04 #@! TA.AperFunction,ViaPad*
%ADD13C,0.800000*%
G04 #@! TD*
G04 #@! TA.AperFunction,Conductor*
%ADD14C,0.381000*%
G04 #@! TD*
G04 #@! TA.AperFunction,Conductor*
%ADD15C,0.254000*%
G04 #@! TD*
G04 APERTURE END LIST*
D10*
G04 #@! TO.P,MX4,2,ROW*
G04 #@! TO.N,Net-(D4-Pad2)*
X237470000Y-126972500D03*
D11*
X237490000Y-126682500D03*
D12*
G04 #@! TO.P,MX4,1,COL*
G04 #@! TO.N,COL1*
X231795001Y-128492500D03*
D11*
X232450000Y-127762500D03*
G04 #@! TD*
D10*
G04 #@! TO.P,MX2,2,ROW*
G04 #@! TO.N,Net-(D3-Pad2)*
X237470000Y-107922500D03*
D11*
X237490000Y-107632500D03*
D12*
G04 #@! TO.P,MX2,1,COL*
G04 #@! TO.N,COL1*
X231795001Y-109442500D03*
D11*
X232450000Y-108712500D03*
G04 #@! TD*
D10*
G04 #@! TO.P,MX3,2,ROW*
G04 #@! TO.N,Net-(D2-Pad2)*
X218420000Y-126972500D03*
D11*
X218440000Y-126682500D03*
D12*
G04 #@! TO.P,MX3,1,COL*
G04 #@! TO.N,COL0*
X212745001Y-128492500D03*
D11*
X213400000Y-127762500D03*
G04 #@! TD*
D10*
G04 #@! TO.P,MX1,2,ROW*
G04 #@! TO.N,Net-(D1-Pad2)*
X218420000Y-107922500D03*
D11*
X218440000Y-107632500D03*
D12*
G04 #@! TO.P,MX1,1,COL*
G04 #@! TO.N,COL0*
X212745001Y-109442500D03*
D11*
X213400000Y-108712500D03*
G04 #@! TD*
D13*
G04 #@! TO.N,VCC*
X174208661Y-112486661D03*
X172466000Y-116205000D03*
X181356000Y-112395000D03*
G04 #@! TO.N,+5V*
X205867000Y-127508000D03*
X203708000Y-133477000D03*
X187071000Y-133858000D03*
X187071000Y-131536500D03*
X187071000Y-126238000D03*
X190021250Y-120806250D03*
G04 #@! TO.N,Net-(R3-Pad2)*
X179070000Y-132207000D03*
X179070000Y-127508000D03*
G04 #@! TD*
D14*
G04 #@! TO.N,VCC*
X172466000Y-114229322D02*
X172466000Y-116205000D01*
X174208661Y-112486661D02*
X172466000Y-114229322D01*
X174208661Y-112486661D02*
X177764661Y-112486661D01*
X177764661Y-112486661D02*
X181264339Y-112486661D01*
X181264339Y-112486661D02*
X181356000Y-112395000D01*
D15*
G04 #@! TO.N,COL1*
X231140000Y-110172500D02*
X231140000Y-129222500D01*
G04 #@! TO.N,COL0*
X212090000Y-110172500D02*
X212090000Y-129222500D01*
D14*
G04 #@! TO.N,+5V*
X205867000Y-127508000D02*
X205867000Y-131318000D01*
X205867000Y-131318000D02*
X203708000Y-133477000D01*
X201041000Y-136144000D02*
X203708000Y-133477000D01*
X187071000Y-131536500D02*
X187071000Y-133858000D01*
X187071000Y-133858000D02*
X189357000Y-136144000D01*
X189357000Y-136144000D02*
X201041000Y-136144000D01*
X187071000Y-126238000D02*
X187071000Y-131536500D01*
X187071000Y-123698000D02*
X187071000Y-126238000D01*
X189962750Y-120806250D02*
X187071000Y-123698000D01*
X190021250Y-120806250D02*
X189962750Y-120806250D01*
D15*
G04 #@! TO.N,Net-(R3-Pad2)*
X179070000Y-127508000D02*
X179070000Y-132207000D01*
G04 #@! TD*
M02*
