G04 #@! TF.GenerationSoftware,KiCad,Pcbnew,6.0.11-2627ca5db0~126~ubuntu20.04.1*
G04 #@! TF.CreationDate,2024-07-14T02:52:22-04:00*
G04 #@! TF.ProjectId,mapel2x2-pcb,6d617065-6c32-4783-922d-7063622e6b69,rev?*
G04 #@! TF.SameCoordinates,Original*
G04 #@! TF.FileFunction,Copper,L2,Bot*
G04 #@! TF.FilePolarity,Positive*
%FSLAX46Y46*%
G04 Gerber Fmt 4.6, Leading zero omitted, Abs format (unit mm)*
G04 Created by KiCad (PCBNEW 6.0.11-2627ca5db0~126~ubuntu20.04.1) date 2024-07-14 02:52:22*
%MOMM*%
%LPD*%
G01*
G04 APERTURE LIST*
G04 Aperture macros list*
%AMRoundRect*
0 Rectangle with rounded corners*
0 $1 Rounding radius*
0 $2 $3 $4 $5 $6 $7 $8 $9 X,Y pos of 4 corners*
0 Add a 4 corners polygon primitive as box body*
4,1,4,$2,$3,$4,$5,$6,$7,$8,$9,$2,$3,0*
0 Add four circle primitives for the rounded corners*
1,1,$1+$1,$2,$3*
1,1,$1+$1,$4,$5*
1,1,$1+$1,$6,$7*
1,1,$1+$1,$8,$9*
0 Add four rect primitives between the rounded corners*
20,1,$1+$1,$2,$3,$4,$5,0*
20,1,$1+$1,$4,$5,$6,$7,0*
20,1,$1+$1,$6,$7,$8,$9,0*
20,1,$1+$1,$8,$9,$2,$3,0*%
%AMHorizOval*
0 Thick line with rounded ends*
0 $1 width*
0 $2 $3 position (X,Y) of the first rounded end (center of the circle)*
0 $4 $5 position (X,Y) of the second rounded end (center of the circle)*
0 Add line between two ends*
20,1,$1,$2,$3,$4,$5,0*
0 Add two circle primitives to create the rounded ends*
1,1,$1,$2,$3*
1,1,$1,$4,$5*%
G04 Aperture macros list end*
G04 #@! TA.AperFunction,SMDPad,CuDef*
%ADD10R,0.600000X1.150000*%
G04 #@! TD*
G04 #@! TA.AperFunction,SMDPad,CuDef*
%ADD11R,0.300000X1.150000*%
G04 #@! TD*
G04 #@! TA.AperFunction,SMDPad,CuDef*
%ADD12R,2.180000X2.000000*%
G04 #@! TD*
G04 #@! TA.AperFunction,SMDPad,CuDef*
%ADD13R,1.400000X1.200000*%
G04 #@! TD*
G04 #@! TA.AperFunction,SMDPad,CuDef*
%ADD14R,1.500000X0.550000*%
G04 #@! TD*
G04 #@! TA.AperFunction,SMDPad,CuDef*
%ADD15R,0.550000X1.500000*%
G04 #@! TD*
G04 #@! TA.AperFunction,SMDPad,CuDef*
%ADD16R,1.800000X1.100000*%
G04 #@! TD*
G04 #@! TA.AperFunction,SMDPad,CuDef*
%ADD17RoundRect,0.250000X0.262500X0.450000X-0.262500X0.450000X-0.262500X-0.450000X0.262500X-0.450000X0*%
G04 #@! TD*
G04 #@! TA.AperFunction,SMDPad,CuDef*
%ADD18RoundRect,0.250000X-0.450000X0.262500X-0.450000X-0.262500X0.450000X-0.262500X0.450000X0.262500X0*%
G04 #@! TD*
G04 #@! TA.AperFunction,SMDPad,CuDef*
%ADD19RoundRect,0.250000X0.450000X-0.262500X0.450000X0.262500X-0.450000X0.262500X-0.450000X-0.262500X0*%
G04 #@! TD*
G04 #@! TA.AperFunction,ComponentPad*
%ADD20HorizOval,2.250000X0.020000X0.290000X-0.020000X-0.290000X0*%
G04 #@! TD*
G04 #@! TA.AperFunction,ComponentPad*
%ADD21C,2.250000*%
G04 #@! TD*
G04 #@! TA.AperFunction,ComponentPad*
%ADD22HorizOval,2.250000X0.655001X0.730000X-0.655001X-0.730000X0*%
G04 #@! TD*
G04 #@! TA.AperFunction,SMDPad,CuDef*
%ADD23RoundRect,0.250000X-0.625000X0.375000X-0.625000X-0.375000X0.625000X-0.375000X0.625000X0.375000X0*%
G04 #@! TD*
G04 #@! TA.AperFunction,SMDPad,CuDef*
%ADD24R,1.200000X0.900000*%
G04 #@! TD*
G04 #@! TA.AperFunction,SMDPad,CuDef*
%ADD25RoundRect,0.250000X0.250000X0.475000X-0.250000X0.475000X-0.250000X-0.475000X0.250000X-0.475000X0*%
G04 #@! TD*
G04 #@! TA.AperFunction,SMDPad,CuDef*
%ADD26RoundRect,0.250000X-0.250000X-0.475000X0.250000X-0.475000X0.250000X0.475000X-0.250000X0.475000X0*%
G04 #@! TD*
G04 #@! TA.AperFunction,SMDPad,CuDef*
%ADD27RoundRect,0.250000X0.475000X-0.250000X0.475000X0.250000X-0.475000X0.250000X-0.475000X-0.250000X0*%
G04 #@! TD*
G04 #@! TA.AperFunction,SMDPad,CuDef*
%ADD28RoundRect,0.250000X-0.475000X0.250000X-0.475000X-0.250000X0.475000X-0.250000X0.475000X0.250000X0*%
G04 #@! TD*
G04 #@! TA.AperFunction,ViaPad*
%ADD29C,0.800000*%
G04 #@! TD*
G04 #@! TA.AperFunction,Conductor*
%ADD30C,0.381000*%
G04 #@! TD*
G04 #@! TA.AperFunction,Conductor*
%ADD31C,0.254000*%
G04 #@! TD*
G04 #@! TA.AperFunction,Conductor*
%ADD32C,0.200000*%
G04 #@! TD*
G04 APERTURE END LIST*
D10*
G04 #@! TO.P,J1,A1/B12,GND*
G04 #@! TO.N,GND*
X174600000Y-110293750D03*
G04 #@! TO.P,J1,A4/B9,VBUS*
G04 #@! TO.N,VCC*
X175400000Y-110293750D03*
G04 #@! TO.P,J1,B4/A9,VBUS*
X180200000Y-110293750D03*
G04 #@! TO.P,J1,B1/A12,GND*
G04 #@! TO.N,GND*
X181000000Y-110293750D03*
D11*
G04 #@! TO.P,J1,B8,SBU2*
G04 #@! TO.N,unconnected-(J1-PadB8)*
X176050000Y-110293750D03*
G04 #@! TO.P,J1,B5,CC2*
G04 #@! TO.N,Net-(J1-PadB5)*
X179550000Y-110293750D03*
G04 #@! TO.P,J1,A5,CC1*
G04 #@! TO.N,Net-(J1-PadA5)*
X176550000Y-110293750D03*
G04 #@! TO.P,J1,A8,SBU1*
G04 #@! TO.N,unconnected-(J1-PadA8)*
X179050000Y-110293750D03*
G04 #@! TO.P,J1,B7,DN2*
G04 #@! TO.N,D-*
X177050000Y-110293750D03*
G04 #@! TO.P,J1,B6,DP2*
G04 #@! TO.N,D+*
X178550000Y-110293750D03*
G04 #@! TO.P,J1,A6,DP1*
X177550000Y-110293750D03*
G04 #@! TO.P,J1,A7,DN1*
G04 #@! TO.N,D-*
X178050000Y-110293750D03*
D12*
G04 #@! TO.P,J1,S1,GND*
G04 #@! TO.N,GND*
X172690000Y-109718750D03*
G04 #@! TO.P,J1,S2,GND*
X182910000Y-109718750D03*
G04 #@! TO.P,J1,S3,GND*
X172690000Y-105788750D03*
G04 #@! TO.P,J1,S4,GND*
X182910000Y-105788750D03*
G04 #@! TD*
D13*
G04 #@! TO.P,Y1,4,4*
G04 #@! TO.N,GND*
X194162500Y-117531250D03*
G04 #@! TO.P,Y1,3,3*
G04 #@! TO.N,Net-(C4-Pad2)*
X196362500Y-117531250D03*
G04 #@! TO.P,Y1,2,2*
G04 #@! TO.N,GND*
X196362500Y-115831250D03*
G04 #@! TO.P,Y1,1,1*
G04 #@! TO.N,Net-(C5-Pad2)*
X194162500Y-115831250D03*
G04 #@! TD*
D14*
G04 #@! TO.P,U1,1,PE6*
G04 #@! TO.N,unconnected-(U1-Pad1)*
X189562500Y-132587500D03*
G04 #@! TO.P,U1,2,UVCC*
G04 #@! TO.N,+5V*
X189562500Y-131787500D03*
G04 #@! TO.P,U1,3,D-*
G04 #@! TO.N,Net-(R1-Pad2)*
X189562500Y-130987500D03*
G04 #@! TO.P,U1,4,D+*
G04 #@! TO.N,Net-(R2-Pad2)*
X189562500Y-130187500D03*
G04 #@! TO.P,U1,5,UGND*
G04 #@! TO.N,GND*
X189562500Y-129387500D03*
G04 #@! TO.P,U1,6,UCAP*
G04 #@! TO.N,Net-(C7-Pad1)*
X189562500Y-128587500D03*
G04 #@! TO.P,U1,7,VBUS*
G04 #@! TO.N,+5V*
X189562500Y-127787500D03*
G04 #@! TO.P,U1,8,PB0*
G04 #@! TO.N,unconnected-(U1-Pad8)*
X189562500Y-126987500D03*
G04 #@! TO.P,U1,9,PB1*
G04 #@! TO.N,unconnected-(U1-Pad9)*
X189562500Y-126187500D03*
G04 #@! TO.P,U1,10,PB2*
G04 #@! TO.N,unconnected-(U1-Pad10)*
X189562500Y-125387500D03*
G04 #@! TO.P,U1,11,PB3*
G04 #@! TO.N,unconnected-(U1-Pad11)*
X189562500Y-124587500D03*
D15*
G04 #@! TO.P,U1,12,PB7*
G04 #@! TO.N,unconnected-(U1-Pad12)*
X191262500Y-122887500D03*
G04 #@! TO.P,U1,13,~{RESET}*
G04 #@! TO.N,Net-(R3-Pad2)*
X192062500Y-122887500D03*
G04 #@! TO.P,U1,14,VCC*
G04 #@! TO.N,+5V*
X192862500Y-122887500D03*
G04 #@! TO.P,U1,15,GND*
G04 #@! TO.N,GND*
X193662500Y-122887500D03*
G04 #@! TO.P,U1,16,XTAL2*
G04 #@! TO.N,Net-(C5-Pad2)*
X194462500Y-122887500D03*
G04 #@! TO.P,U1,17,XTAL1*
G04 #@! TO.N,Net-(C4-Pad2)*
X195262500Y-122887500D03*
G04 #@! TO.P,U1,18,PD0*
G04 #@! TO.N,unconnected-(U1-Pad18)*
X196062500Y-122887500D03*
G04 #@! TO.P,U1,19,PD1*
G04 #@! TO.N,unconnected-(U1-Pad19)*
X196862500Y-122887500D03*
G04 #@! TO.P,U1,20,PD2*
G04 #@! TO.N,unconnected-(U1-Pad20)*
X197662500Y-122887500D03*
G04 #@! TO.P,U1,21,PD3*
G04 #@! TO.N,unconnected-(U1-Pad21)*
X198462500Y-122887500D03*
G04 #@! TO.P,U1,22,PD5*
G04 #@! TO.N,unconnected-(U1-Pad22)*
X199262500Y-122887500D03*
D14*
G04 #@! TO.P,U1,23,GND*
G04 #@! TO.N,GND*
X200962500Y-124587500D03*
G04 #@! TO.P,U1,24,AVCC*
G04 #@! TO.N,+5V*
X200962500Y-125387500D03*
G04 #@! TO.P,U1,25,PD4*
G04 #@! TO.N,unconnected-(U1-Pad25)*
X200962500Y-126187500D03*
G04 #@! TO.P,U1,26,PD6*
G04 #@! TO.N,ROW0*
X200962500Y-126987500D03*
G04 #@! TO.P,U1,27,PD7*
G04 #@! TO.N,COL1*
X200962500Y-127787500D03*
G04 #@! TO.P,U1,28,PB4*
G04 #@! TO.N,COL0*
X200962500Y-128587500D03*
G04 #@! TO.P,U1,29,PB5*
G04 #@! TO.N,ROW1*
X200962500Y-129387500D03*
G04 #@! TO.P,U1,30,PB6*
G04 #@! TO.N,unconnected-(U1-Pad30)*
X200962500Y-130187500D03*
G04 #@! TO.P,U1,31,PC6*
G04 #@! TO.N,unconnected-(U1-Pad31)*
X200962500Y-130987500D03*
G04 #@! TO.P,U1,32,PC7*
G04 #@! TO.N,unconnected-(U1-Pad32)*
X200962500Y-131787500D03*
G04 #@! TO.P,U1,33,~{HWB}/PE2*
G04 #@! TO.N,Net-(R4-Pad1)*
X200962500Y-132587500D03*
D15*
G04 #@! TO.P,U1,34,VCC*
G04 #@! TO.N,+5V*
X199262500Y-134287500D03*
G04 #@! TO.P,U1,35,GND*
G04 #@! TO.N,GND*
X198462500Y-134287500D03*
G04 #@! TO.P,U1,36,PF7*
G04 #@! TO.N,unconnected-(U1-Pad36)*
X197662500Y-134287500D03*
G04 #@! TO.P,U1,37,PF6*
G04 #@! TO.N,unconnected-(U1-Pad37)*
X196862500Y-134287500D03*
G04 #@! TO.P,U1,38,PF5*
G04 #@! TO.N,unconnected-(U1-Pad38)*
X196062500Y-134287500D03*
G04 #@! TO.P,U1,39,PF4*
G04 #@! TO.N,unconnected-(U1-Pad39)*
X195262500Y-134287500D03*
G04 #@! TO.P,U1,40,PF1*
G04 #@! TO.N,unconnected-(U1-Pad40)*
X194462500Y-134287500D03*
G04 #@! TO.P,U1,41,PF0*
G04 #@! TO.N,unconnected-(U1-Pad41)*
X193662500Y-134287500D03*
G04 #@! TO.P,U1,42,AREF*
G04 #@! TO.N,unconnected-(U1-Pad42)*
X192862500Y-134287500D03*
G04 #@! TO.P,U1,43,GND*
G04 #@! TO.N,GND*
X192062500Y-134287500D03*
G04 #@! TO.P,U1,44,AVCC*
G04 #@! TO.N,+5V*
X191262500Y-134287500D03*
G04 #@! TD*
D16*
G04 #@! TO.P,SW1,1,1*
G04 #@! TO.N,GND*
X171525000Y-137581250D03*
G04 #@! TO.P,SW1,2,2*
G04 #@! TO.N,Net-(R3-Pad2)*
X177725000Y-133881250D03*
G04 #@! TO.P,SW1,3*
G04 #@! TO.N,N/C*
X171525000Y-133881250D03*
G04 #@! TO.P,SW1,4*
X177725000Y-137581250D03*
G04 #@! TD*
D17*
G04 #@! TO.P,R6,1*
G04 #@! TO.N,Net-(J1-PadA5)*
X172589564Y-114077500D03*
G04 #@! TO.P,R6,2*
G04 #@! TO.N,GND*
X170764564Y-114077500D03*
G04 #@! TD*
G04 #@! TO.P,R5,1*
G04 #@! TO.N,GND*
X185062500Y-114187500D03*
G04 #@! TO.P,R5,2*
G04 #@! TO.N,Net-(J1-PadB5)*
X183237500Y-114187500D03*
G04 #@! TD*
D18*
G04 #@! TO.P,R4,1*
G04 #@! TO.N,Net-(R4-Pad1)*
X205581250Y-132437500D03*
G04 #@! TO.P,R4,2*
G04 #@! TO.N,GND*
X205581250Y-134262500D03*
G04 #@! TD*
D19*
G04 #@! TO.P,R3,1*
G04 #@! TO.N,+5V*
X184893750Y-120768750D03*
G04 #@! TO.P,R3,2*
G04 #@! TO.N,Net-(R3-Pad2)*
X184893750Y-118943750D03*
G04 #@! TD*
D18*
G04 #@! TO.P,R2,1*
G04 #@! TO.N,D+*
X179324000Y-115768750D03*
G04 #@! TO.P,R2,2*
G04 #@! TO.N,Net-(R2-Pad2)*
X179324000Y-117593750D03*
G04 #@! TD*
G04 #@! TO.P,R1,1*
G04 #@! TO.N,D-*
X176212500Y-115768750D03*
G04 #@! TO.P,R1,2*
G04 #@! TO.N,Net-(R1-Pad2)*
X176212500Y-117593750D03*
G04 #@! TD*
D20*
G04 #@! TO.P,MX4,2,ROW*
G04 #@! TO.N,Net-(D4-Pad2)*
X237470000Y-126972500D03*
D21*
X237490000Y-126682500D03*
D22*
G04 #@! TO.P,MX4,1,COL*
G04 #@! TO.N,COL1*
X231795001Y-128492500D03*
D21*
X232450000Y-127762500D03*
G04 #@! TD*
D20*
G04 #@! TO.P,MX2,2,ROW*
G04 #@! TO.N,Net-(D3-Pad2)*
X237470000Y-107922500D03*
D21*
X237490000Y-107632500D03*
D22*
G04 #@! TO.P,MX2,1,COL*
G04 #@! TO.N,COL1*
X231795001Y-109442500D03*
D21*
X232450000Y-108712500D03*
G04 #@! TD*
D20*
G04 #@! TO.P,MX3,2,ROW*
G04 #@! TO.N,Net-(D2-Pad2)*
X218420000Y-126972500D03*
D21*
X218440000Y-126682500D03*
D22*
G04 #@! TO.P,MX3,1,COL*
G04 #@! TO.N,COL0*
X212745001Y-128492500D03*
D21*
X213400000Y-127762500D03*
G04 #@! TD*
D20*
G04 #@! TO.P,MX1,2,ROW*
G04 #@! TO.N,Net-(D1-Pad2)*
X218420000Y-107922500D03*
D21*
X218440000Y-107632500D03*
D22*
G04 #@! TO.P,MX1,1,COL*
G04 #@! TO.N,COL0*
X212745001Y-109442500D03*
D21*
X213400000Y-108712500D03*
G04 #@! TD*
D23*
G04 #@! TO.P,F1,1*
G04 #@! TO.N,VCC*
X172243750Y-121237500D03*
G04 #@! TO.P,F1,2*
G04 #@! TO.N,+5V*
X172243750Y-124037500D03*
G04 #@! TD*
D24*
G04 #@! TO.P,D4,1,K*
G04 #@! TO.N,ROW1*
X242887500Y-133412500D03*
G04 #@! TO.P,D4,2,A*
G04 #@! TO.N,Net-(D4-Pad2)*
X242887500Y-130112500D03*
G04 #@! TD*
G04 #@! TO.P,D3,1,K*
G04 #@! TO.N,ROW0*
X242887500Y-114362500D03*
G04 #@! TO.P,D3,2,A*
G04 #@! TO.N,Net-(D3-Pad2)*
X242887500Y-111062500D03*
G04 #@! TD*
G04 #@! TO.P,D2,1,K*
G04 #@! TO.N,ROW1*
X223837500Y-133412500D03*
G04 #@! TO.P,D2,2,A*
G04 #@! TO.N,Net-(D2-Pad2)*
X223837500Y-130112500D03*
G04 #@! TD*
G04 #@! TO.P,D1,1,K*
G04 #@! TO.N,ROW0*
X223837500Y-114362500D03*
G04 #@! TO.P,D1,2,A*
G04 #@! TO.N,Net-(D1-Pad2)*
X223837500Y-111062500D03*
G04 #@! TD*
D25*
G04 #@! TO.P,C7,1*
G04 #@! TO.N,Net-(C7-Pad1)*
X185100000Y-127000000D03*
G04 #@! TO.P,C7,2*
G04 #@! TO.N,GND*
X183200000Y-127000000D03*
G04 #@! TD*
D26*
G04 #@! TO.P,C6,1*
G04 #@! TO.N,+5V*
X190516254Y-138281250D03*
G04 #@! TO.P,C6,2*
G04 #@! TO.N,GND*
X192416254Y-138281250D03*
G04 #@! TD*
D27*
G04 #@! TO.P,C5,1*
G04 #@! TO.N,GND*
X191293750Y-117631250D03*
G04 #@! TO.P,C5,2*
G04 #@! TO.N,Net-(C5-Pad2)*
X191293750Y-115731250D03*
G04 #@! TD*
D28*
G04 #@! TO.P,C4,2*
G04 #@! TO.N,Net-(C4-Pad2)*
X199231250Y-117631250D03*
G04 #@! TO.P,C4,1*
G04 #@! TO.N,GND*
X199231250Y-115731250D03*
G04 #@! TD*
D25*
G04 #@! TO.P,C3,2*
G04 #@! TO.N,GND*
X198453754Y-138281250D03*
G04 #@! TO.P,C3,1*
G04 #@! TO.N,+5V*
X200353754Y-138281250D03*
G04 #@! TD*
D27*
G04 #@! TO.P,C2,1*
G04 #@! TO.N,+5V*
X187781250Y-120806250D03*
G04 #@! TO.P,C2,2*
G04 #@! TO.N,GND*
X187781250Y-118906250D03*
G04 #@! TD*
G04 #@! TO.P,C1,2*
G04 #@! TO.N,GND*
X204216000Y-124145000D03*
G04 #@! TO.P,C1,1*
G04 #@! TO.N,+5V*
X204216000Y-126045000D03*
G04 #@! TD*
D29*
G04 #@! TO.N,VCC*
X174208661Y-112486661D03*
X172466000Y-116205000D03*
X181356000Y-112395000D03*
G04 #@! TO.N,+5V*
X205867000Y-127508000D03*
X203708000Y-133477000D03*
X187071000Y-133858000D03*
X187071000Y-131536500D03*
X187071000Y-126238000D03*
X190021250Y-120806250D03*
G04 #@! TO.N,Net-(R3-Pad2)*
X179070000Y-132207000D03*
X179070000Y-127508000D03*
G04 #@! TD*
D30*
G04 #@! TO.N,VCC*
X172466000Y-116205000D02*
X172466000Y-121015250D01*
X172466000Y-121015250D02*
X172243750Y-121237500D01*
X181356000Y-112395000D02*
X180200000Y-111239000D01*
X180200000Y-111239000D02*
X180200000Y-110293750D01*
D31*
G04 #@! TO.N,Net-(J1-PadB5)*
X179550000Y-110293750D02*
X179550000Y-112113000D01*
X179550000Y-112113000D02*
X181624500Y-114187500D01*
X181624500Y-114187500D02*
X183237500Y-114187500D01*
D30*
G04 #@! TO.N,GND*
X172690000Y-105788750D02*
X173830750Y-104648000D01*
X173830750Y-104648000D02*
X181864000Y-104648000D01*
X181864000Y-104648000D02*
X182910000Y-105694000D01*
X182910000Y-105694000D02*
X182910000Y-105788750D01*
D31*
G04 #@! TO.N,ROW1*
X223837500Y-133412500D02*
X218377500Y-133412500D01*
X208560000Y-131598000D02*
X204650844Y-131598000D01*
X218377500Y-133412500D02*
X217551000Y-134239000D01*
X217551000Y-134239000D02*
X211201000Y-134239000D01*
X204650844Y-131598000D02*
X202440344Y-129387500D01*
X202440344Y-129387500D02*
X200962500Y-129387500D01*
X211201000Y-134239000D02*
X208560000Y-131598000D01*
G04 #@! TO.N,Net-(D1-Pad2)*
X218440000Y-107632500D02*
X221870000Y-111062500D01*
X221870000Y-111062500D02*
X223837500Y-111062500D01*
G04 #@! TO.N,Net-(D3-Pad2)*
X237450000Y-108212500D02*
X240300000Y-111062500D01*
X240300000Y-111062500D02*
X242887500Y-111062500D01*
G04 #@! TO.N,Net-(D4-Pad2)*
X237450000Y-127262500D02*
X240300000Y-130112500D01*
X240300000Y-130112500D02*
X242887500Y-130112500D01*
G04 #@! TO.N,Net-(D2-Pad2)*
X218400000Y-127262500D02*
X221250000Y-130112500D01*
X221250000Y-130112500D02*
X223837500Y-130112500D01*
G04 #@! TO.N,COL0*
X200962500Y-128587500D02*
X202282396Y-128587500D01*
X202282396Y-128587500D02*
X203126896Y-129432000D01*
X203126896Y-129432000D02*
X211880500Y-129432000D01*
X211880500Y-129432000D02*
X212090000Y-129222500D01*
G04 #@! TO.N,COL1*
X203314948Y-128978000D02*
X207445000Y-128978000D01*
X202124448Y-127787500D02*
X203314948Y-128978000D01*
X222694500Y-120777000D02*
X231140000Y-129222500D01*
X207445000Y-128978000D02*
X215646000Y-120777000D01*
X200962500Y-127787500D02*
X202124448Y-127787500D01*
X215646000Y-120777000D02*
X222694500Y-120777000D01*
G04 #@! TO.N,ROW1*
X223837500Y-133412500D02*
X224558401Y-134133401D01*
X224558401Y-134133401D02*
X242166599Y-134133401D01*
X242166599Y-134133401D02*
X242887500Y-133412500D01*
G04 #@! TO.N,ROW0*
X223837500Y-114362500D02*
X224558401Y-115083401D01*
X224558401Y-115083401D02*
X242166599Y-115083401D01*
X242166599Y-115083401D02*
X242887500Y-114362500D01*
X203503000Y-128524000D02*
X207010000Y-128524000D01*
X201966500Y-126987500D02*
X203503000Y-128524000D01*
X200962500Y-126987500D02*
X201966500Y-126987500D01*
X207010000Y-128524000D02*
X221171500Y-114362500D01*
X221171500Y-114362500D02*
X223837500Y-114362500D01*
D30*
G04 #@! TO.N,+5V*
X204404000Y-126045000D02*
X205867000Y-127508000D01*
X204216000Y-126045000D02*
X204404000Y-126045000D01*
G04 #@! TO.N,GND*
X200962500Y-124587500D02*
X203773500Y-124587500D01*
X203773500Y-124587500D02*
X204216000Y-124145000D01*
G04 #@! TO.N,+5V*
X200962500Y-125387500D02*
X203558500Y-125387500D01*
X203558500Y-125387500D02*
X204216000Y-126045000D01*
X201824750Y-138281250D02*
X203708000Y-136398000D01*
X200353754Y-138281250D02*
X201824750Y-138281250D01*
X203708000Y-136398000D02*
X203708000Y-133477000D01*
X186487500Y-138281250D02*
X188446250Y-138281250D01*
X188446250Y-138281250D02*
X188616750Y-138281250D01*
X187071000Y-133858000D02*
X187071000Y-136906000D01*
X187071000Y-136906000D02*
X188446250Y-138281250D01*
X188616750Y-138281250D02*
X190516254Y-138281250D01*
X189562500Y-131787500D02*
X187322000Y-131787500D01*
X187322000Y-131787500D02*
X187071000Y-131536500D01*
X187071000Y-126238000D02*
X188620500Y-127787500D01*
X188620500Y-127787500D02*
X189562500Y-127787500D01*
X192862500Y-122887500D02*
X192862500Y-121756500D01*
X192862500Y-121756500D02*
X191912250Y-120806250D01*
X191912250Y-120806250D02*
X187781250Y-120806250D01*
X172243750Y-124037500D02*
X184885125Y-136678875D01*
X184885125Y-136678875D02*
X186487500Y-138281250D01*
G04 #@! TO.N,GND*
X194162500Y-117531250D02*
X194380750Y-117531250D01*
X194380750Y-117531250D02*
X196080750Y-115831250D01*
X196080750Y-115831250D02*
X196362500Y-115831250D01*
X198453754Y-138281250D02*
X198453754Y-138636754D01*
X198453754Y-138636754D02*
X200025000Y-140208000D01*
X200025000Y-140208000D02*
X203708000Y-140208000D01*
X203708000Y-140208000D02*
X205581250Y-138334750D01*
X205581250Y-138334750D02*
X205581250Y-134262500D01*
D31*
G04 #@! TO.N,Net-(R4-Pad1)*
X200962500Y-132587500D02*
X205431250Y-132587500D01*
X205431250Y-132587500D02*
X205581250Y-132437500D01*
D30*
G04 #@! TO.N,GND*
X194690500Y-124587500D02*
X196849500Y-124587500D01*
X196849500Y-124587500D02*
X200962500Y-124587500D01*
X198462500Y-134287500D02*
X198462500Y-126200500D01*
X198462500Y-126200500D02*
X196849500Y-124587500D01*
X193548000Y-125730000D02*
X193675000Y-125603000D01*
X192062500Y-127215500D02*
X193548000Y-125730000D01*
X193548000Y-125730000D02*
X194690500Y-124587500D01*
X192062500Y-130756500D02*
X192062500Y-127215500D01*
X193675000Y-125603000D02*
X193662500Y-125590500D01*
X193662500Y-125590500D02*
X193662500Y-122887500D01*
X189562500Y-129387500D02*
X190693500Y-129387500D01*
X190693500Y-129387500D02*
X192062500Y-130756500D01*
X192062500Y-130756500D02*
X192062500Y-134287500D01*
X185062500Y-114187500D02*
X187466500Y-114187500D01*
X187466500Y-114187500D02*
X189611000Y-116332000D01*
D31*
G04 #@! TO.N,Net-(R3-Pad2)*
X180905750Y-121608250D02*
X179070000Y-123444000D01*
X179070000Y-123444000D02*
X179070000Y-127508000D01*
X179070000Y-132207000D02*
X179070000Y-132536250D01*
X179070000Y-132536250D02*
X177725000Y-133881250D01*
D30*
G04 #@! TO.N,VCC*
X175400000Y-110293750D02*
X175400000Y-111295322D01*
X175400000Y-111295322D02*
X174208661Y-112486661D01*
D31*
G04 #@! TO.N,Net-(C7-Pad1)*
X185100000Y-127000000D02*
X186687500Y-128587500D01*
X186687500Y-128587500D02*
X189562500Y-128587500D01*
D30*
G04 #@! TO.N,GND*
X183200000Y-127000000D02*
X185587500Y-129387500D01*
X185587500Y-129387500D02*
X189562500Y-129387500D01*
X192416254Y-138672746D02*
X191389000Y-139700000D01*
X192416254Y-138281250D02*
X192416254Y-138672746D01*
X191389000Y-139700000D02*
X172974000Y-139700000D01*
X172974000Y-139700000D02*
X172593000Y-139319000D01*
G04 #@! TO.N,+5V*
X199262500Y-134287500D02*
X199262500Y-137189996D01*
X199262500Y-137189996D02*
X200353754Y-138281250D01*
G04 #@! TO.N,GND*
X198462500Y-134287500D02*
X198462500Y-138272504D01*
X198462500Y-138272504D02*
X198453754Y-138281250D01*
X192062500Y-134287500D02*
X192062500Y-137927496D01*
X192062500Y-137927496D02*
X192416254Y-138281250D01*
G04 #@! TO.N,+5V*
X190516254Y-138281250D02*
X191262500Y-137535004D01*
X191262500Y-137535004D02*
X191262500Y-134287500D01*
G04 #@! TO.N,GND*
X171525000Y-137581250D02*
X171525000Y-138251000D01*
X171525000Y-138251000D02*
X172593000Y-139319000D01*
D31*
G04 #@! TO.N,Net-(R3-Pad2)*
X184204749Y-121608250D02*
X180905750Y-121608250D01*
X192062500Y-122887500D02*
X192062500Y-121883500D01*
X192062500Y-121883500D02*
X191812250Y-121633250D01*
X184785000Y-121608250D02*
X184204749Y-121608250D01*
X191812250Y-121633250D02*
X184810000Y-121633250D01*
X184810000Y-121633250D02*
X184785000Y-121608250D01*
X183261000Y-120664501D02*
X183261000Y-119380000D01*
X184204749Y-121608250D02*
X183261000Y-120664501D01*
X183261000Y-119380000D02*
X183697250Y-118943750D01*
X183697250Y-118943750D02*
X184893750Y-118943750D01*
D30*
G04 #@! TO.N,+5V*
X187781250Y-120806250D02*
X184931250Y-120806250D01*
X184931250Y-120806250D02*
X184893750Y-120768750D01*
G04 #@! TO.N,GND*
X190690500Y-119697500D02*
X189865000Y-118872000D01*
X192087500Y-119697500D02*
X190690500Y-119697500D01*
X193662500Y-121272500D02*
X192087500Y-119697500D01*
X192087500Y-119697500D02*
X191293750Y-118903750D01*
X189865000Y-118872000D02*
X187815500Y-118872000D01*
X187815500Y-118872000D02*
X187781250Y-118906250D01*
X193662500Y-122887500D02*
X193662500Y-121272500D01*
X191293750Y-118903750D02*
X191293750Y-117631250D01*
D31*
G04 #@! TO.N,Net-(C5-Pad2)*
X191293750Y-115731250D02*
X191393750Y-115831250D01*
X191393750Y-115831250D02*
X194162500Y-115831250D01*
D30*
G04 #@! TO.N,GND*
X191293750Y-117631250D02*
X190910250Y-117631250D01*
X195453000Y-113284000D02*
X196362500Y-114193500D01*
X190910250Y-117631250D02*
X189611000Y-116332000D01*
X189611000Y-114554000D02*
X190881000Y-113284000D01*
X190881000Y-113284000D02*
X195453000Y-113284000D01*
X189611000Y-116332000D02*
X189611000Y-114554000D01*
X196362500Y-114193500D02*
X196362500Y-115831250D01*
X194507750Y-117531250D02*
X194162500Y-117531250D01*
D31*
G04 #@! TO.N,Net-(C5-Pad2)*
X194162500Y-115831250D02*
X193908500Y-115831250D01*
X193908500Y-115831250D02*
X193135500Y-116604250D01*
X193135500Y-116604250D02*
X193135500Y-119475500D01*
X193135500Y-119475500D02*
X194462500Y-120802500D01*
X194462500Y-120802500D02*
X194462500Y-122887500D01*
D30*
G04 #@! TO.N,GND*
X196362500Y-115831250D02*
X199131250Y-115831250D01*
X199131250Y-115831250D02*
X199231250Y-115731250D01*
D31*
G04 #@! TO.N,Net-(C4-Pad2)*
X196362500Y-117531250D02*
X199131250Y-117531250D01*
X199131250Y-117531250D02*
X199231250Y-117631250D01*
X195262500Y-122887500D02*
X195262500Y-120840500D01*
X195262500Y-120840500D02*
X196362500Y-119740500D01*
X196362500Y-119740500D02*
X196362500Y-117531250D01*
G04 #@! TO.N,Net-(R1-Pad2)*
X189562500Y-130987500D02*
X188137500Y-130987500D01*
X188137500Y-130987500D02*
X187960000Y-130810000D01*
X187960000Y-130810000D02*
X180340000Y-130810000D01*
X177546000Y-128016000D02*
X177546000Y-119507000D01*
X180340000Y-130810000D02*
X177546000Y-128016000D01*
X177546000Y-119507000D02*
X176212500Y-118173500D01*
X176212500Y-118173500D02*
X176212500Y-117593750D01*
G04 #@! TO.N,Net-(R2-Pad2)*
X189562500Y-130187500D02*
X188074500Y-130187500D01*
X188074500Y-130187500D02*
X187960000Y-130302000D01*
X187960000Y-130302000D02*
X180728052Y-130302000D01*
X180728052Y-130302000D02*
X178054000Y-127627948D01*
X178054000Y-127627948D02*
X178054000Y-119507000D01*
X178054000Y-119507000D02*
X179324000Y-118237000D01*
X179324000Y-118237000D02*
X179324000Y-117593750D01*
D32*
G04 #@! TO.N,D+*
X178550000Y-112153000D02*
X178054000Y-112649000D01*
X178550000Y-110293750D02*
X178550000Y-112153000D01*
X178054000Y-112649000D02*
X178054000Y-114498750D01*
X178054000Y-114498750D02*
X179324000Y-115768750D01*
G04 #@! TO.N,D-*
X177050000Y-112153000D02*
X177546000Y-112649000D01*
X177050000Y-110293750D02*
X177050000Y-112153000D01*
X177546000Y-112649000D02*
X177546000Y-114435250D01*
X177546000Y-114435250D02*
X176212500Y-115768750D01*
G04 #@! TO.N,D+*
X177550000Y-110293750D02*
X177550000Y-111002000D01*
X177550000Y-111002000D02*
X177800000Y-111252000D01*
X177800000Y-111252000D02*
X178308000Y-111252000D01*
X178550000Y-111010000D02*
X178550000Y-110293750D01*
X178308000Y-111252000D02*
X178550000Y-111010000D01*
G04 #@! TO.N,D-*
X177292000Y-109347000D02*
X177800000Y-109347000D01*
X177050000Y-110293750D02*
X177050000Y-109589000D01*
X177050000Y-109589000D02*
X177292000Y-109347000D01*
X177800000Y-109347000D02*
X178050000Y-109597000D01*
X178050000Y-109597000D02*
X178050000Y-110293750D01*
D30*
G04 #@! TO.N,GND*
X185062500Y-114187500D02*
X182910000Y-112035000D01*
X182910000Y-112035000D02*
X182910000Y-109718750D01*
D31*
G04 #@! TO.N,Net-(J1-PadA5)*
X172589564Y-114077500D02*
X173645250Y-114077500D01*
X173645250Y-114077500D02*
X176550000Y-111172750D01*
X176550000Y-111172750D02*
X176550000Y-110293750D01*
D30*
G04 #@! TO.N,GND*
X170764564Y-114077500D02*
X172690000Y-112152064D01*
X172690000Y-112152064D02*
X172690000Y-109718750D01*
X181000000Y-110293750D02*
X182335000Y-110293750D01*
X182335000Y-110293750D02*
X182910000Y-109718750D01*
X182910000Y-105788750D02*
X182910000Y-109718750D01*
X172690000Y-109718750D02*
X172690000Y-105788750D01*
X174600000Y-110293750D02*
X173265000Y-110293750D01*
X173265000Y-110293750D02*
X172690000Y-109718750D01*
G04 #@! TD*
G04 #@! TA.AperFunction,Conductor*
G04 #@! TO.N,GND*
G36*
X206317121Y-103716002D02*
G01*
X206363614Y-103769658D01*
X206375000Y-103822000D01*
X206375000Y-126545676D01*
X206354998Y-126613797D01*
X206301342Y-126660290D01*
X206231068Y-126670394D01*
X206197751Y-126660783D01*
X206155319Y-126641891D01*
X206155318Y-126641891D01*
X206149288Y-126639206D01*
X205979372Y-126603089D01*
X205916474Y-126568938D01*
X205486405Y-126138870D01*
X205452380Y-126076557D01*
X205449500Y-126049774D01*
X205449500Y-125744600D01*
X205449163Y-125741350D01*
X205439238Y-125645692D01*
X205439237Y-125645688D01*
X205438526Y-125638834D01*
X205410641Y-125555251D01*
X205384868Y-125478002D01*
X205382550Y-125471054D01*
X205289478Y-125320652D01*
X205164303Y-125195695D01*
X205159765Y-125192898D01*
X205119176Y-125135647D01*
X205115946Y-125064724D01*
X205151572Y-125003313D01*
X205160068Y-124995938D01*
X205170207Y-124987902D01*
X205284739Y-124873171D01*
X205293751Y-124861760D01*
X205378816Y-124723757D01*
X205384963Y-124710576D01*
X205436138Y-124556290D01*
X205439005Y-124542914D01*
X205448672Y-124448562D01*
X205449000Y-124442146D01*
X205449000Y-124417115D01*
X205444525Y-124401876D01*
X205443135Y-124400671D01*
X205435452Y-124399000D01*
X203001116Y-124399000D01*
X202985877Y-124403475D01*
X202984672Y-124404865D01*
X202983001Y-124412548D01*
X202983001Y-124442095D01*
X202983338Y-124448612D01*
X202993806Y-124549496D01*
X202980941Y-124619317D01*
X202932371Y-124671100D01*
X202868479Y-124688500D01*
X202036693Y-124688500D01*
X201974925Y-124670364D01*
X201974260Y-124671579D01*
X201968703Y-124668536D01*
X201968572Y-124668498D01*
X201968347Y-124668341D01*
X201966389Y-124667269D01*
X201959205Y-124661885D01*
X201822816Y-124610755D01*
X201760634Y-124604000D01*
X200164366Y-124604000D01*
X200102184Y-124610755D01*
X199965795Y-124661885D01*
X199849239Y-124749239D01*
X199843858Y-124756419D01*
X199843857Y-124756420D01*
X199817892Y-124791065D01*
X199761033Y-124833580D01*
X199731426Y-124838913D01*
X199707377Y-124845975D01*
X199706172Y-124847365D01*
X199704501Y-124855048D01*
X199704501Y-124907169D01*
X199704871Y-124913990D01*
X199711248Y-124972707D01*
X199708502Y-124973005D01*
X199708560Y-125001946D01*
X199710755Y-125002184D01*
X199704000Y-125064366D01*
X199704000Y-125710634D01*
X199704369Y-125714031D01*
X199710755Y-125772816D01*
X199708326Y-125773080D01*
X199708326Y-125801920D01*
X199710755Y-125802184D01*
X199704000Y-125864366D01*
X199704000Y-126510634D01*
X199704369Y-126514031D01*
X199710755Y-126572816D01*
X199708326Y-126573080D01*
X199708326Y-126601920D01*
X199710755Y-126602184D01*
X199704000Y-126664366D01*
X199704000Y-127310634D01*
X199704369Y-127314031D01*
X199710755Y-127372816D01*
X199708326Y-127373080D01*
X199708326Y-127401920D01*
X199710755Y-127402184D01*
X199704000Y-127464366D01*
X199704000Y-128110634D01*
X199704369Y-128114031D01*
X199710755Y-128172816D01*
X199708326Y-128173080D01*
X199708326Y-128201920D01*
X199710755Y-128202184D01*
X199707894Y-128228525D01*
X199704000Y-128264366D01*
X199704000Y-128910634D01*
X199704369Y-128914031D01*
X199710755Y-128972816D01*
X199708326Y-128973080D01*
X199708326Y-129001920D01*
X199710755Y-129002184D01*
X199704000Y-129064366D01*
X199704000Y-129710634D01*
X199704369Y-129714031D01*
X199710755Y-129772816D01*
X199708326Y-129773080D01*
X199708326Y-129801920D01*
X199710755Y-129802184D01*
X199704000Y-129864366D01*
X199704000Y-130510634D01*
X199704369Y-130514031D01*
X199710755Y-130572816D01*
X199708326Y-130573080D01*
X199708326Y-130601920D01*
X199710755Y-130602184D01*
X199704000Y-130664366D01*
X199704000Y-131310634D01*
X199704369Y-131314031D01*
X199710755Y-131372816D01*
X199708326Y-131373080D01*
X199708326Y-131401920D01*
X199710755Y-131402184D01*
X199704000Y-131464366D01*
X199704000Y-132110634D01*
X199704369Y-132114031D01*
X199710755Y-132172816D01*
X199708326Y-132173080D01*
X199708326Y-132201920D01*
X199710755Y-132202184D01*
X199704000Y-132264366D01*
X199704000Y-132903000D01*
X199683998Y-132971121D01*
X199630342Y-133017614D01*
X199578000Y-133029000D01*
X198939366Y-133029000D01*
X198935969Y-133029369D01*
X198899544Y-133033326D01*
X198877184Y-133035755D01*
X198876952Y-133033616D01*
X198847988Y-133033666D01*
X198847707Y-133036248D01*
X198788986Y-133029869D01*
X198782172Y-133029500D01*
X198734615Y-133029500D01*
X198719376Y-133033975D01*
X198718171Y-133035365D01*
X198713621Y-133056283D01*
X198712403Y-133056018D01*
X198696498Y-133110187D01*
X198666065Y-133142892D01*
X198624239Y-133174239D01*
X198589243Y-133220934D01*
X198563326Y-133255515D01*
X198506467Y-133298030D01*
X198435648Y-133303056D01*
X198373355Y-133268996D01*
X198361674Y-133255515D01*
X198335757Y-133220934D01*
X198300761Y-133174239D01*
X198258935Y-133142892D01*
X198216420Y-133086033D01*
X198211087Y-133056426D01*
X198204025Y-133032377D01*
X198202635Y-133031172D01*
X198194952Y-133029501D01*
X198142831Y-133029501D01*
X198136010Y-133029871D01*
X198077293Y-133036248D01*
X198076995Y-133033502D01*
X198048054Y-133033560D01*
X198047816Y-133035755D01*
X197989031Y-133029369D01*
X197985634Y-133029000D01*
X197339366Y-133029000D01*
X197335969Y-133029369D01*
X197299544Y-133033326D01*
X197277184Y-133035755D01*
X197276920Y-133033326D01*
X197248080Y-133033326D01*
X197247816Y-133035755D01*
X197189031Y-133029369D01*
X197185634Y-133029000D01*
X196539366Y-133029000D01*
X196535969Y-133029369D01*
X196499544Y-133033326D01*
X196477184Y-133035755D01*
X196476920Y-133033326D01*
X196448080Y-133033326D01*
X196447816Y-133035755D01*
X196389031Y-133029369D01*
X196385634Y-133029000D01*
X195739366Y-133029000D01*
X195735969Y-133029369D01*
X195699544Y-133033326D01*
X195677184Y-133035755D01*
X195676920Y-133033326D01*
X195648080Y-133033326D01*
X195647816Y-133035755D01*
X195589031Y-133029369D01*
X195585634Y-133029000D01*
X194939366Y-133029000D01*
X194935969Y-133029369D01*
X194899544Y-133033326D01*
X194877184Y-133035755D01*
X194876920Y-133033326D01*
X194848080Y-133033326D01*
X194847816Y-133035755D01*
X194789031Y-133029369D01*
X194785634Y-133029000D01*
X194139366Y-133029000D01*
X194135969Y-133029369D01*
X194099544Y-133033326D01*
X194077184Y-133035755D01*
X194076920Y-133033326D01*
X194048080Y-133033326D01*
X194047816Y-133035755D01*
X193989031Y-133029369D01*
X193985634Y-133029000D01*
X193339366Y-133029000D01*
X193335969Y-133029369D01*
X193299544Y-133033326D01*
X193277184Y-133035755D01*
X193276920Y-133033326D01*
X193248080Y-133033326D01*
X193247816Y-133035755D01*
X193189031Y-133029369D01*
X193185634Y-133029000D01*
X192539366Y-133029000D01*
X192535969Y-133029369D01*
X192499544Y-133033326D01*
X192477184Y-133035755D01*
X192476952Y-133033616D01*
X192447988Y-133033666D01*
X192447707Y-133036248D01*
X192388986Y-133029869D01*
X192382172Y-133029500D01*
X192334615Y-133029500D01*
X192319376Y-133033975D01*
X192318171Y-133035365D01*
X192313621Y-133056283D01*
X192312403Y-133056018D01*
X192296498Y-133110187D01*
X192266065Y-133142892D01*
X192224239Y-133174239D01*
X192189243Y-133220934D01*
X192163326Y-133255515D01*
X192106467Y-133298030D01*
X192035648Y-133303056D01*
X191973355Y-133268996D01*
X191961674Y-133255515D01*
X191935757Y-133220934D01*
X191900761Y-133174239D01*
X191858935Y-133142892D01*
X191816420Y-133086033D01*
X191811087Y-133056426D01*
X191804025Y-133032377D01*
X191802635Y-133031172D01*
X191794952Y-133029501D01*
X191742831Y-133029501D01*
X191736010Y-133029871D01*
X191677293Y-133036248D01*
X191676995Y-133033502D01*
X191648054Y-133033560D01*
X191647816Y-133035755D01*
X191589031Y-133029369D01*
X191585634Y-133029000D01*
X190947000Y-133029000D01*
X190878879Y-133008998D01*
X190832386Y-132955342D01*
X190821000Y-132903000D01*
X190821000Y-132264366D01*
X190814245Y-132202184D01*
X190816674Y-132201920D01*
X190816674Y-132173080D01*
X190814245Y-132172816D01*
X190820631Y-132114031D01*
X190821000Y-132110634D01*
X190821000Y-131464366D01*
X190814245Y-131402184D01*
X190816674Y-131401920D01*
X190816674Y-131373080D01*
X190814245Y-131372816D01*
X190820631Y-131314031D01*
X190821000Y-131310634D01*
X190821000Y-130664366D01*
X190814245Y-130602184D01*
X190816674Y-130601920D01*
X190816674Y-130573080D01*
X190814245Y-130572816D01*
X190820631Y-130514031D01*
X190821000Y-130510634D01*
X190821000Y-129864366D01*
X190814245Y-129802184D01*
X190816384Y-129801952D01*
X190816334Y-129772988D01*
X190813752Y-129772707D01*
X190820131Y-129713986D01*
X190820500Y-129707172D01*
X190820500Y-129659615D01*
X190816025Y-129644376D01*
X190814635Y-129643171D01*
X190793717Y-129638621D01*
X190793982Y-129637403D01*
X190739813Y-129621498D01*
X190707108Y-129591065D01*
X190681143Y-129556420D01*
X190681142Y-129556419D01*
X190675761Y-129549239D01*
X190594485Y-129488326D01*
X190551970Y-129431467D01*
X190546944Y-129360648D01*
X190581004Y-129298355D01*
X190594485Y-129286674D01*
X190668581Y-129231142D01*
X190675761Y-129225761D01*
X190687208Y-129210488D01*
X190707108Y-129183935D01*
X190763967Y-129141420D01*
X190793574Y-129136087D01*
X190817623Y-129129025D01*
X190818828Y-129127635D01*
X190820499Y-129119952D01*
X190820499Y-129067831D01*
X190820129Y-129061010D01*
X190813752Y-129002293D01*
X190816498Y-129001995D01*
X190816440Y-128973054D01*
X190814245Y-128972816D01*
X190820631Y-128914031D01*
X190821000Y-128910634D01*
X190821000Y-128264366D01*
X190817107Y-128228525D01*
X190814245Y-128202184D01*
X190816674Y-128201920D01*
X190816674Y-128173080D01*
X190814245Y-128172816D01*
X190820631Y-128114031D01*
X190821000Y-128110634D01*
X190821000Y-127464366D01*
X190814245Y-127402184D01*
X190816674Y-127401920D01*
X190816674Y-127373080D01*
X190814245Y-127372816D01*
X190820631Y-127314031D01*
X190821000Y-127310634D01*
X190821000Y-126664366D01*
X190814245Y-126602184D01*
X190816674Y-126601920D01*
X190816674Y-126573080D01*
X190814245Y-126572816D01*
X190820631Y-126514031D01*
X190821000Y-126510634D01*
X190821000Y-125864366D01*
X190814245Y-125802184D01*
X190816674Y-125801920D01*
X190816674Y-125773080D01*
X190814245Y-125772816D01*
X190820631Y-125714031D01*
X190821000Y-125710634D01*
X190821000Y-125064366D01*
X190814245Y-125002184D01*
X190816674Y-125001920D01*
X190816674Y-124973080D01*
X190814245Y-124972816D01*
X190820631Y-124914031D01*
X190821000Y-124910634D01*
X190821000Y-124272000D01*
X190841002Y-124203879D01*
X190894658Y-124157386D01*
X190947000Y-124146000D01*
X191585634Y-124146000D01*
X191593634Y-124145131D01*
X191647816Y-124139245D01*
X191648080Y-124141674D01*
X191676920Y-124141674D01*
X191677184Y-124139245D01*
X191731367Y-124145131D01*
X191739366Y-124146000D01*
X192385634Y-124146000D01*
X192393634Y-124145131D01*
X192447816Y-124139245D01*
X192448080Y-124141674D01*
X192476920Y-124141674D01*
X192477184Y-124139245D01*
X192531367Y-124145131D01*
X192539366Y-124146000D01*
X193185634Y-124146000D01*
X193193634Y-124145131D01*
X193247816Y-124139245D01*
X193248048Y-124141384D01*
X193277012Y-124141334D01*
X193277293Y-124138752D01*
X193336014Y-124145131D01*
X193342828Y-124145500D01*
X193390385Y-124145500D01*
X193405624Y-124141025D01*
X193406829Y-124139635D01*
X193411379Y-124118717D01*
X193412597Y-124118982D01*
X193428502Y-124064813D01*
X193458935Y-124032108D01*
X193493580Y-124006143D01*
X193493581Y-124006142D01*
X193500761Y-124000761D01*
X193561674Y-123919485D01*
X193618533Y-123876970D01*
X193689352Y-123871944D01*
X193751645Y-123906004D01*
X193763325Y-123919484D01*
X193824239Y-124000761D01*
X193831419Y-124006142D01*
X193831420Y-124006143D01*
X193866065Y-124032108D01*
X193908580Y-124088967D01*
X193913913Y-124118574D01*
X193920975Y-124142623D01*
X193922365Y-124143828D01*
X193930048Y-124145499D01*
X193982169Y-124145499D01*
X193988990Y-124145129D01*
X194047707Y-124138752D01*
X194048005Y-124141498D01*
X194076946Y-124141440D01*
X194077184Y-124139245D01*
X194131367Y-124145131D01*
X194139366Y-124146000D01*
X194785634Y-124146000D01*
X194793634Y-124145131D01*
X194847816Y-124139245D01*
X194848080Y-124141674D01*
X194876920Y-124141674D01*
X194877184Y-124139245D01*
X194931367Y-124145131D01*
X194939366Y-124146000D01*
X195585634Y-124146000D01*
X195593634Y-124145131D01*
X195647816Y-124139245D01*
X195648080Y-124141674D01*
X195676920Y-124141674D01*
X195677184Y-124139245D01*
X195731367Y-124145131D01*
X195739366Y-124146000D01*
X196385634Y-124146000D01*
X196393634Y-124145131D01*
X196447816Y-124139245D01*
X196448080Y-124141674D01*
X196476920Y-124141674D01*
X196477184Y-124139245D01*
X196531367Y-124145131D01*
X196539366Y-124146000D01*
X197185634Y-124146000D01*
X197193634Y-124145131D01*
X197247816Y-124139245D01*
X197248080Y-124141674D01*
X197276920Y-124141674D01*
X197277184Y-124139245D01*
X197331367Y-124145131D01*
X197339366Y-124146000D01*
X197985634Y-124146000D01*
X197993634Y-124145131D01*
X198047816Y-124139245D01*
X198048080Y-124141674D01*
X198076920Y-124141674D01*
X198077184Y-124139245D01*
X198131367Y-124145131D01*
X198139366Y-124146000D01*
X198785634Y-124146000D01*
X198793634Y-124145131D01*
X198847816Y-124139245D01*
X198848080Y-124141674D01*
X198876920Y-124141674D01*
X198877184Y-124139245D01*
X198931367Y-124145131D01*
X198939366Y-124146000D01*
X199578500Y-124146000D01*
X199646621Y-124166002D01*
X199693114Y-124219658D01*
X199704500Y-124272000D01*
X199704500Y-124315385D01*
X199708975Y-124330624D01*
X199710365Y-124331829D01*
X199718048Y-124333500D01*
X200690385Y-124333500D01*
X200705624Y-124329025D01*
X200706829Y-124327635D01*
X200708500Y-124319952D01*
X200708500Y-124315385D01*
X201216500Y-124315385D01*
X201220975Y-124330624D01*
X201222365Y-124331829D01*
X201230048Y-124333500D01*
X202202384Y-124333500D01*
X202217623Y-124329025D01*
X202218828Y-124327635D01*
X202220499Y-124319952D01*
X202220499Y-124267831D01*
X202220129Y-124261010D01*
X202214605Y-124210148D01*
X202210979Y-124194896D01*
X202165824Y-124074446D01*
X202157286Y-124058851D01*
X202080785Y-123956776D01*
X202068224Y-123944215D01*
X201973049Y-123872885D01*
X202983000Y-123872885D01*
X202987475Y-123888124D01*
X202988865Y-123889329D01*
X202996548Y-123891000D01*
X203943885Y-123891000D01*
X203959124Y-123886525D01*
X203960329Y-123885135D01*
X203962000Y-123877452D01*
X203962000Y-123872885D01*
X204470000Y-123872885D01*
X204474475Y-123888124D01*
X204475865Y-123889329D01*
X204483548Y-123891000D01*
X205430884Y-123891000D01*
X205446123Y-123886525D01*
X205447328Y-123885135D01*
X205448999Y-123877452D01*
X205448999Y-123847905D01*
X205448662Y-123841386D01*
X205438743Y-123745794D01*
X205435851Y-123732400D01*
X205384412Y-123578216D01*
X205378239Y-123565038D01*
X205292937Y-123427193D01*
X205283901Y-123415792D01*
X205169171Y-123301261D01*
X205157760Y-123292249D01*
X205019757Y-123207184D01*
X205006576Y-123201037D01*
X204852290Y-123149862D01*
X204838914Y-123146995D01*
X204744562Y-123137328D01*
X204738145Y-123137000D01*
X204488115Y-123137000D01*
X204472876Y-123141475D01*
X204471671Y-123142865D01*
X204470000Y-123150548D01*
X204470000Y-123872885D01*
X203962000Y-123872885D01*
X203962000Y-123155116D01*
X203957525Y-123139877D01*
X203956135Y-123138672D01*
X203948452Y-123137001D01*
X203693905Y-123137001D01*
X203687386Y-123137338D01*
X203591794Y-123147257D01*
X203578400Y-123150149D01*
X203424216Y-123201588D01*
X203411038Y-123207761D01*
X203273193Y-123293063D01*
X203261792Y-123302099D01*
X203147261Y-123416829D01*
X203138249Y-123428240D01*
X203053184Y-123566243D01*
X203047037Y-123579424D01*
X202995862Y-123733710D01*
X202992995Y-123747086D01*
X202983328Y-123841438D01*
X202983000Y-123847855D01*
X202983000Y-123872885D01*
X201973049Y-123872885D01*
X201966149Y-123867714D01*
X201950554Y-123859176D01*
X201830106Y-123814022D01*
X201814851Y-123810395D01*
X201763986Y-123804869D01*
X201757172Y-123804500D01*
X201234615Y-123804500D01*
X201219376Y-123808975D01*
X201218171Y-123810365D01*
X201216500Y-123818048D01*
X201216500Y-124315385D01*
X200708500Y-124315385D01*
X200708500Y-123822616D01*
X200704025Y-123807377D01*
X200702635Y-123806172D01*
X200694952Y-123804501D01*
X200172000Y-123804501D01*
X200103879Y-123784499D01*
X200057386Y-123730843D01*
X200046000Y-123678501D01*
X200046000Y-122089366D01*
X200039245Y-122027184D01*
X199988115Y-121890795D01*
X199900761Y-121774239D01*
X199784205Y-121686885D01*
X199647816Y-121635755D01*
X199585634Y-121629000D01*
X198939366Y-121629000D01*
X198877184Y-121635755D01*
X198876920Y-121633326D01*
X198848080Y-121633326D01*
X198847816Y-121635755D01*
X198789031Y-121629369D01*
X198785634Y-121629000D01*
X198139366Y-121629000D01*
X198077184Y-121635755D01*
X198076920Y-121633326D01*
X198048080Y-121633326D01*
X198047816Y-121635755D01*
X197989031Y-121629369D01*
X197985634Y-121629000D01*
X197339366Y-121629000D01*
X197277184Y-121635755D01*
X197276920Y-121633326D01*
X197248080Y-121633326D01*
X197247816Y-121635755D01*
X197189031Y-121629369D01*
X197185634Y-121629000D01*
X196539366Y-121629000D01*
X196477184Y-121635755D01*
X196476920Y-121633326D01*
X196448080Y-121633326D01*
X196447816Y-121635755D01*
X196389031Y-121629369D01*
X196385634Y-121629000D01*
X196024000Y-121629000D01*
X195955879Y-121608998D01*
X195909386Y-121555342D01*
X195898000Y-121503000D01*
X195898000Y-121155923D01*
X195918002Y-121087802D01*
X195934905Y-121066827D01*
X196755988Y-120245745D01*
X196764307Y-120238175D01*
X196770803Y-120234053D01*
X196803726Y-120198994D01*
X196817585Y-120184235D01*
X196820340Y-120181393D01*
X196840139Y-120161594D01*
X196842563Y-120158469D01*
X196842571Y-120158460D01*
X196842637Y-120158374D01*
X196850345Y-120149349D01*
X196880717Y-120117006D01*
X196886196Y-120107041D01*
X196890522Y-120099171D01*
X196901373Y-120082653D01*
X196913850Y-120066567D01*
X196931476Y-120025834D01*
X196936693Y-120015186D01*
X196954249Y-119983251D01*
X196958069Y-119976303D01*
X196960040Y-119968628D01*
X196960042Y-119968622D01*
X196963131Y-119956589D01*
X196969534Y-119937887D01*
X196977617Y-119919208D01*
X196984560Y-119875373D01*
X196986967Y-119863751D01*
X196988891Y-119856259D01*
X196998000Y-119820782D01*
X196998000Y-119800435D01*
X196999551Y-119780724D01*
X197001495Y-119768450D01*
X197002735Y-119760621D01*
X196998559Y-119716444D01*
X196998000Y-119704586D01*
X196998000Y-118765026D01*
X197018002Y-118696905D01*
X197071658Y-118650412D01*
X197110748Y-118640803D01*
X197110634Y-118639750D01*
X197172816Y-118632995D01*
X197309205Y-118581865D01*
X197425761Y-118494511D01*
X197513115Y-118377955D01*
X197519557Y-118360771D01*
X197561638Y-118248521D01*
X197604279Y-118191756D01*
X197670841Y-118167056D01*
X197679620Y-118166750D01*
X197970707Y-118166750D01*
X198038828Y-118186752D01*
X198077850Y-118226446D01*
X198157772Y-118355598D01*
X198282947Y-118480555D01*
X198289177Y-118484395D01*
X198289178Y-118484396D01*
X198426538Y-118569066D01*
X198433512Y-118573365D01*
X198468642Y-118585017D01*
X198594861Y-118626882D01*
X198594863Y-118626882D01*
X198601389Y-118629047D01*
X198608225Y-118629747D01*
X198608228Y-118629748D01*
X198650862Y-118634116D01*
X198705850Y-118639750D01*
X199756650Y-118639750D01*
X199759896Y-118639413D01*
X199759900Y-118639413D01*
X199855558Y-118629488D01*
X199855562Y-118629487D01*
X199862416Y-118628776D01*
X199868952Y-118626595D01*
X199868954Y-118626595D01*
X200019169Y-118576479D01*
X200030196Y-118572800D01*
X200180598Y-118479728D01*
X200305555Y-118354553D01*
X200314855Y-118339466D01*
X200394525Y-118210218D01*
X200394526Y-118210216D01*
X200398365Y-118203988D01*
X200436852Y-118087954D01*
X200451882Y-118042639D01*
X200451882Y-118042637D01*
X200454047Y-118036111D01*
X200456609Y-118011111D01*
X200464343Y-117935618D01*
X200464750Y-117931650D01*
X200464750Y-117330850D01*
X200459562Y-117280850D01*
X200454488Y-117231942D01*
X200454487Y-117231938D01*
X200453776Y-117225084D01*
X200434914Y-117168546D01*
X200400118Y-117064252D01*
X200397800Y-117057304D01*
X200304728Y-116906902D01*
X200290649Y-116892847D01*
X200184736Y-116787119D01*
X200179553Y-116781945D01*
X200175015Y-116779148D01*
X200134426Y-116721897D01*
X200131196Y-116650974D01*
X200166822Y-116589563D01*
X200175318Y-116582188D01*
X200185457Y-116574152D01*
X200299989Y-116459421D01*
X200309001Y-116448010D01*
X200394066Y-116310007D01*
X200400213Y-116296826D01*
X200451388Y-116142540D01*
X200454255Y-116129164D01*
X200463922Y-116034812D01*
X200464250Y-116028396D01*
X200464250Y-116003365D01*
X200459775Y-115988126D01*
X200458385Y-115986921D01*
X200450702Y-115985250D01*
X198016366Y-115985250D01*
X198001127Y-115989725D01*
X197999922Y-115991115D01*
X197998251Y-115998798D01*
X197998251Y-116028345D01*
X197998588Y-116034864D01*
X198008507Y-116130456D01*
X198011399Y-116143850D01*
X198062838Y-116298034D01*
X198069011Y-116311212D01*
X198154313Y-116449057D01*
X198163349Y-116460458D01*
X198278078Y-116574988D01*
X198287012Y-116582044D01*
X198328073Y-116639962D01*
X198331303Y-116710885D01*
X198295676Y-116772296D01*
X198287843Y-116779096D01*
X198281902Y-116782772D01*
X198276729Y-116787954D01*
X198276724Y-116787958D01*
X198206039Y-116858767D01*
X198143757Y-116892847D01*
X198116866Y-116895750D01*
X197679620Y-116895750D01*
X197611499Y-116875748D01*
X197565006Y-116822092D01*
X197561638Y-116813979D01*
X197528194Y-116724767D01*
X197523011Y-116653960D01*
X197528194Y-116636309D01*
X197560978Y-116548859D01*
X197564605Y-116533601D01*
X197570131Y-116482736D01*
X197570500Y-116475922D01*
X197570500Y-116103365D01*
X197566025Y-116088126D01*
X197564635Y-116086921D01*
X197556952Y-116085250D01*
X196234500Y-116085250D01*
X196166379Y-116065248D01*
X196119886Y-116011592D01*
X196108500Y-115959250D01*
X196108500Y-115559135D01*
X196616500Y-115559135D01*
X196620975Y-115574374D01*
X196622365Y-115575579D01*
X196630048Y-115577250D01*
X197552384Y-115577250D01*
X197567623Y-115572775D01*
X197568828Y-115571385D01*
X197570499Y-115563702D01*
X197570499Y-115459135D01*
X197998250Y-115459135D01*
X198002725Y-115474374D01*
X198004115Y-115475579D01*
X198011798Y-115477250D01*
X198959135Y-115477250D01*
X198974374Y-115472775D01*
X198975579Y-115471385D01*
X198977250Y-115463702D01*
X198977250Y-115459135D01*
X199485250Y-115459135D01*
X199489725Y-115474374D01*
X199491115Y-115475579D01*
X199498798Y-115477250D01*
X200446134Y-115477250D01*
X200461373Y-115472775D01*
X200462578Y-115471385D01*
X200464249Y-115463702D01*
X200464249Y-115434155D01*
X200463912Y-115427636D01*
X200453993Y-115332044D01*
X200451101Y-115318650D01*
X200399662Y-115164466D01*
X200393489Y-115151288D01*
X200308187Y-115013443D01*
X200299151Y-115002042D01*
X200184421Y-114887511D01*
X200173010Y-114878499D01*
X200035007Y-114793434D01*
X200021826Y-114787287D01*
X199867540Y-114736112D01*
X199854164Y-114733245D01*
X199759812Y-114723578D01*
X199753395Y-114723250D01*
X199503365Y-114723250D01*
X199488126Y-114727725D01*
X199486921Y-114729115D01*
X199485250Y-114736798D01*
X199485250Y-115459135D01*
X198977250Y-115459135D01*
X198977250Y-114741366D01*
X198972775Y-114726127D01*
X198971385Y-114724922D01*
X198963702Y-114723251D01*
X198709155Y-114723251D01*
X198702636Y-114723588D01*
X198607044Y-114733507D01*
X198593650Y-114736399D01*
X198439466Y-114787838D01*
X198426288Y-114794011D01*
X198288443Y-114879313D01*
X198277042Y-114888349D01*
X198162511Y-115003079D01*
X198153499Y-115014490D01*
X198068434Y-115152493D01*
X198062287Y-115165674D01*
X198011112Y-115319960D01*
X198008245Y-115333336D01*
X197998578Y-115427688D01*
X197998250Y-115434105D01*
X197998250Y-115459135D01*
X197570499Y-115459135D01*
X197570499Y-115186581D01*
X197570129Y-115179760D01*
X197564605Y-115128898D01*
X197560979Y-115113646D01*
X197515824Y-114993196D01*
X197507286Y-114977601D01*
X197430785Y-114875526D01*
X197418224Y-114862965D01*
X197316149Y-114786464D01*
X197300554Y-114777926D01*
X197180106Y-114732772D01*
X197164851Y-114729145D01*
X197113986Y-114723619D01*
X197107172Y-114723250D01*
X196634615Y-114723250D01*
X196619376Y-114727725D01*
X196618171Y-114729115D01*
X196616500Y-114736798D01*
X196616500Y-115559135D01*
X196108500Y-115559135D01*
X196108500Y-114741366D01*
X196104025Y-114726127D01*
X196102635Y-114724922D01*
X196094952Y-114723251D01*
X195617831Y-114723251D01*
X195611010Y-114723621D01*
X195560148Y-114729145D01*
X195544896Y-114732771D01*
X195424446Y-114777926D01*
X195408852Y-114786464D01*
X195338482Y-114839203D01*
X195271976Y-114864051D01*
X195202593Y-114848998D01*
X195187352Y-114839203D01*
X195163172Y-114821081D01*
X195109205Y-114780635D01*
X194972816Y-114729505D01*
X194910634Y-114722750D01*
X193414366Y-114722750D01*
X193352184Y-114729505D01*
X193215795Y-114780635D01*
X193099239Y-114867989D01*
X193011885Y-114984545D01*
X193008733Y-114992954D01*
X193008732Y-114992955D01*
X192963362Y-115113979D01*
X192920721Y-115170744D01*
X192854159Y-115195444D01*
X192845380Y-115195750D01*
X192554293Y-115195750D01*
X192486172Y-115175748D01*
X192447149Y-115136053D01*
X192445683Y-115133683D01*
X192367228Y-115006902D01*
X192354877Y-114994572D01*
X192247233Y-114887116D01*
X192242053Y-114881945D01*
X192231640Y-114875526D01*
X192097718Y-114792975D01*
X192097716Y-114792974D01*
X192091488Y-114789135D01*
X191996871Y-114757752D01*
X191930139Y-114735618D01*
X191930137Y-114735618D01*
X191923611Y-114733453D01*
X191916775Y-114732753D01*
X191916772Y-114732752D01*
X191867930Y-114727748D01*
X191819150Y-114722750D01*
X190768350Y-114722750D01*
X190765104Y-114723087D01*
X190765100Y-114723087D01*
X190669442Y-114733012D01*
X190669438Y-114733013D01*
X190662584Y-114733724D01*
X190656048Y-114735905D01*
X190656046Y-114735905D01*
X190589784Y-114758012D01*
X190494804Y-114789700D01*
X190344402Y-114882772D01*
X190219445Y-115007947D01*
X190215605Y-115014177D01*
X190215604Y-115014178D01*
X190144314Y-115129832D01*
X190126635Y-115158512D01*
X190107835Y-115215194D01*
X190084516Y-115285499D01*
X190070953Y-115326389D01*
X190070253Y-115333225D01*
X190070252Y-115333228D01*
X190067691Y-115358228D01*
X190060250Y-115430850D01*
X190060250Y-116031650D01*
X190060587Y-116034896D01*
X190060587Y-116034900D01*
X190070502Y-116130456D01*
X190071224Y-116137416D01*
X190073405Y-116143952D01*
X190073405Y-116143954D01*
X190093772Y-116205000D01*
X190127200Y-116305196D01*
X190220272Y-116455598D01*
X190345447Y-116580555D01*
X190349985Y-116583352D01*
X190390574Y-116640603D01*
X190393804Y-116711526D01*
X190358178Y-116772937D01*
X190349682Y-116780312D01*
X190339543Y-116788348D01*
X190225011Y-116903079D01*
X190215999Y-116914490D01*
X190130934Y-117052493D01*
X190124787Y-117065674D01*
X190073612Y-117219960D01*
X190070745Y-117233336D01*
X190061078Y-117327688D01*
X190060750Y-117334105D01*
X190060750Y-117359135D01*
X190065225Y-117374374D01*
X190066615Y-117375579D01*
X190074298Y-117377250D01*
X191421750Y-117377250D01*
X191489871Y-117397252D01*
X191536364Y-117450908D01*
X191547750Y-117503250D01*
X191547750Y-118621134D01*
X191552225Y-118636373D01*
X191553615Y-118637578D01*
X191561298Y-118639249D01*
X191815845Y-118639249D01*
X191822364Y-118638912D01*
X191917956Y-118628993D01*
X191931350Y-118626101D01*
X192085534Y-118574662D01*
X192098712Y-118568489D01*
X192236557Y-118483187D01*
X192247958Y-118474151D01*
X192284827Y-118437218D01*
X192347110Y-118403139D01*
X192417930Y-118408142D01*
X192474803Y-118450640D01*
X192499671Y-118517138D01*
X192500000Y-118526236D01*
X192500000Y-119396480D01*
X192499470Y-119407714D01*
X192497792Y-119415219D01*
X192498041Y-119423138D01*
X192499938Y-119483512D01*
X192500000Y-119487469D01*
X192500000Y-119515483D01*
X192500496Y-119519408D01*
X192500496Y-119519409D01*
X192500508Y-119519504D01*
X192501441Y-119531349D01*
X192502835Y-119575705D01*
X192505047Y-119583317D01*
X192508513Y-119595248D01*
X192512523Y-119614612D01*
X192515073Y-119634799D01*
X192517989Y-119642163D01*
X192517990Y-119642168D01*
X192531407Y-119676056D01*
X192535252Y-119687285D01*
X192547631Y-119729893D01*
X192551669Y-119736720D01*
X192551670Y-119736723D01*
X192557988Y-119747406D01*
X192566688Y-119765164D01*
X192571261Y-119776715D01*
X192571265Y-119776721D01*
X192574181Y-119784088D01*
X192578839Y-119790499D01*
X192578840Y-119790501D01*
X192600264Y-119819988D01*
X192606781Y-119829910D01*
X192625326Y-119861268D01*
X192625329Y-119861272D01*
X192629366Y-119868098D01*
X192643750Y-119882482D01*
X192656591Y-119897516D01*
X192668558Y-119913987D01*
X192674666Y-119919040D01*
X192702755Y-119942277D01*
X192711535Y-119950267D01*
X193790095Y-121028827D01*
X193824121Y-121091139D01*
X193827000Y-121117922D01*
X193827000Y-121728580D01*
X193806998Y-121796701D01*
X193801831Y-121804137D01*
X193792345Y-121816795D01*
X193791211Y-121818308D01*
X193734350Y-121860821D01*
X193663532Y-121865845D01*
X193601239Y-121831783D01*
X193567251Y-121769451D01*
X193564679Y-121734170D01*
X193565153Y-121727224D01*
X193565153Y-121727220D01*
X193565669Y-121719648D01*
X193554837Y-121657585D01*
X193553875Y-121651064D01*
X193547222Y-121596082D01*
X193547221Y-121596079D01*
X193546309Y-121588540D01*
X193543623Y-121581431D01*
X193542777Y-121577988D01*
X193538914Y-121563863D01*
X193537886Y-121560458D01*
X193536581Y-121552982D01*
X193511265Y-121495310D01*
X193508777Y-121489215D01*
X193489190Y-121437380D01*
X193489189Y-121437378D01*
X193486506Y-121430278D01*
X193482209Y-121424026D01*
X193480566Y-121420883D01*
X193473471Y-121408135D01*
X193471630Y-121405023D01*
X193468577Y-121398067D01*
X193430232Y-121348093D01*
X193426361Y-121342766D01*
X193394981Y-121297107D01*
X193394980Y-121297105D01*
X193390679Y-121290848D01*
X193344830Y-121249998D01*
X193339554Y-121245018D01*
X192426740Y-120332205D01*
X192420886Y-120325938D01*
X192388402Y-120288701D01*
X192383408Y-120282976D01*
X192331872Y-120246756D01*
X192326576Y-120242823D01*
X192282987Y-120208644D01*
X192282984Y-120208642D01*
X192277010Y-120203958D01*
X192270086Y-120200832D01*
X192267051Y-120198994D01*
X192254352Y-120191750D01*
X192251204Y-120190062D01*
X192244989Y-120185694D01*
X192186300Y-120162812D01*
X192180255Y-120160272D01*
X192122815Y-120134337D01*
X192115342Y-120132952D01*
X192111924Y-120131881D01*
X192097935Y-120127896D01*
X192094443Y-120126999D01*
X192087361Y-120124238D01*
X192079828Y-120123246D01*
X192079827Y-120123246D01*
X192024920Y-120116017D01*
X192018407Y-120114985D01*
X191963932Y-120104889D01*
X191963930Y-120104889D01*
X191956463Y-120103505D01*
X191948883Y-120103942D01*
X191948882Y-120103942D01*
X191895138Y-120107041D01*
X191887885Y-120107250D01*
X190645731Y-120107250D01*
X190577610Y-120087248D01*
X190571670Y-120083186D01*
X190483344Y-120019013D01*
X190483343Y-120019012D01*
X190478002Y-120015132D01*
X190471974Y-120012448D01*
X190471972Y-120012447D01*
X190309569Y-119940141D01*
X190309568Y-119940141D01*
X190303538Y-119937456D01*
X190193126Y-119913987D01*
X190123194Y-119899122D01*
X190123189Y-119899122D01*
X190116737Y-119897750D01*
X189925763Y-119897750D01*
X189919311Y-119899122D01*
X189919306Y-119899122D01*
X189849374Y-119913987D01*
X189738962Y-119937456D01*
X189732932Y-119940141D01*
X189732931Y-119940141D01*
X189570528Y-120012447D01*
X189570526Y-120012448D01*
X189564498Y-120015132D01*
X189559157Y-120019012D01*
X189559156Y-120019013D01*
X189470830Y-120083186D01*
X189403962Y-120107044D01*
X189396769Y-120107250D01*
X188932247Y-120107250D01*
X188864126Y-120087248D01*
X188843229Y-120070423D01*
X188734736Y-119962119D01*
X188729553Y-119956945D01*
X188725015Y-119954148D01*
X188684426Y-119896897D01*
X188681196Y-119825974D01*
X188716822Y-119764563D01*
X188725318Y-119757188D01*
X188735457Y-119749152D01*
X188849989Y-119634421D01*
X188859001Y-119623010D01*
X188944066Y-119485007D01*
X188950213Y-119471826D01*
X189001388Y-119317540D01*
X189004255Y-119304164D01*
X189013922Y-119209812D01*
X189014250Y-119203396D01*
X189014250Y-119178365D01*
X189009775Y-119163126D01*
X189008385Y-119161921D01*
X189000702Y-119160250D01*
X186566366Y-119160250D01*
X186551127Y-119164725D01*
X186549922Y-119166115D01*
X186548251Y-119173798D01*
X186548251Y-119203345D01*
X186548588Y-119209864D01*
X186558507Y-119305456D01*
X186561399Y-119318850D01*
X186612838Y-119473034D01*
X186619011Y-119486212D01*
X186704313Y-119624057D01*
X186713349Y-119635458D01*
X186828078Y-119749988D01*
X186837012Y-119757044D01*
X186878073Y-119814962D01*
X186881303Y-119885885D01*
X186845676Y-119947296D01*
X186837843Y-119954096D01*
X186831902Y-119957772D01*
X186723297Y-120066567D01*
X186719602Y-120070268D01*
X186657320Y-120104347D01*
X186630429Y-120107250D01*
X186059057Y-120107250D01*
X185990936Y-120087248D01*
X185951914Y-120047554D01*
X185942228Y-120031902D01*
X185855641Y-119945466D01*
X185821562Y-119883184D01*
X185826565Y-119812364D01*
X185855486Y-119767275D01*
X185937884Y-119684733D01*
X185943055Y-119679553D01*
X185975486Y-119626940D01*
X186032025Y-119535218D01*
X186032026Y-119535216D01*
X186035865Y-119528988D01*
X186091547Y-119361111D01*
X186092476Y-119352050D01*
X186097837Y-119299718D01*
X186102250Y-119256650D01*
X186102250Y-118634135D01*
X186548250Y-118634135D01*
X186552725Y-118649374D01*
X186554115Y-118650579D01*
X186561798Y-118652250D01*
X187509135Y-118652250D01*
X187524374Y-118647775D01*
X187525579Y-118646385D01*
X187527250Y-118638702D01*
X187527250Y-118634135D01*
X188035250Y-118634135D01*
X188039725Y-118649374D01*
X188041115Y-118650579D01*
X188048798Y-118652250D01*
X188996134Y-118652250D01*
X189011373Y-118647775D01*
X189012578Y-118646385D01*
X189014249Y-118638702D01*
X189014249Y-118609155D01*
X189013912Y-118602636D01*
X189003993Y-118507044D01*
X189001101Y-118493650D01*
X188949662Y-118339466D01*
X188943489Y-118326288D01*
X188858187Y-118188443D01*
X188849151Y-118177042D01*
X188734421Y-118062511D01*
X188723010Y-118053499D01*
X188585007Y-117968434D01*
X188571826Y-117962287D01*
X188469495Y-117928345D01*
X190060751Y-117928345D01*
X190061088Y-117934864D01*
X190071007Y-118030456D01*
X190073899Y-118043850D01*
X190125338Y-118198034D01*
X190131511Y-118211212D01*
X190216813Y-118349057D01*
X190225849Y-118360458D01*
X190340579Y-118474989D01*
X190351990Y-118484001D01*
X190489993Y-118569066D01*
X190503174Y-118575213D01*
X190657460Y-118626388D01*
X190670836Y-118629255D01*
X190765188Y-118638922D01*
X190771604Y-118639250D01*
X191021635Y-118639250D01*
X191036874Y-118634775D01*
X191038079Y-118633385D01*
X191039750Y-118625702D01*
X191039750Y-117903365D01*
X191035275Y-117888126D01*
X191033885Y-117886921D01*
X191026202Y-117885250D01*
X190078866Y-117885250D01*
X190063627Y-117889725D01*
X190062422Y-117891115D01*
X190060751Y-117898798D01*
X190060751Y-117928345D01*
X188469495Y-117928345D01*
X188417540Y-117911112D01*
X188404164Y-117908245D01*
X188309812Y-117898578D01*
X188303395Y-117898250D01*
X188053365Y-117898250D01*
X188038126Y-117902725D01*
X188036921Y-117904115D01*
X188035250Y-117911798D01*
X188035250Y-118634135D01*
X187527250Y-118634135D01*
X187527250Y-117916366D01*
X187522775Y-117901127D01*
X187521385Y-117899922D01*
X187513702Y-117898251D01*
X187259155Y-117898251D01*
X187252636Y-117898588D01*
X187157044Y-117908507D01*
X187143650Y-117911399D01*
X186989466Y-117962838D01*
X186976288Y-117969011D01*
X186838443Y-118054313D01*
X186827042Y-118063349D01*
X186712511Y-118178079D01*
X186703499Y-118189490D01*
X186618434Y-118327493D01*
X186612287Y-118340674D01*
X186561112Y-118494960D01*
X186558245Y-118508336D01*
X186548578Y-118602688D01*
X186548250Y-118609105D01*
X186548250Y-118634135D01*
X186102250Y-118634135D01*
X186102250Y-118630850D01*
X186101913Y-118627600D01*
X186091988Y-118531942D01*
X186091987Y-118531938D01*
X186091276Y-118525084D01*
X186085689Y-118508336D01*
X186037618Y-118364252D01*
X186035300Y-118357304D01*
X185942228Y-118206902D01*
X185817053Y-118081945D01*
X185786885Y-118063349D01*
X185672718Y-117992975D01*
X185672716Y-117992974D01*
X185666488Y-117989135D01*
X185506004Y-117935905D01*
X185505139Y-117935618D01*
X185505137Y-117935618D01*
X185498611Y-117933453D01*
X185491775Y-117932753D01*
X185491772Y-117932752D01*
X185448719Y-117928341D01*
X185394150Y-117922750D01*
X184393350Y-117922750D01*
X184390104Y-117923087D01*
X184390100Y-117923087D01*
X184294442Y-117933012D01*
X184294438Y-117933013D01*
X184287584Y-117933724D01*
X184281048Y-117935905D01*
X184281046Y-117935905D01*
X184200319Y-117962838D01*
X184119804Y-117989700D01*
X183969402Y-118082772D01*
X183844445Y-118207947D01*
X183840605Y-118214177D01*
X183840604Y-118214178D01*
X183820064Y-118247500D01*
X183767291Y-118294994D01*
X183716764Y-118307322D01*
X183694767Y-118308014D01*
X183689217Y-118308188D01*
X183685262Y-118308250D01*
X183657267Y-118308250D01*
X183653333Y-118308747D01*
X183653331Y-118308747D01*
X183653244Y-118308758D01*
X183641410Y-118309690D01*
X183597045Y-118311085D01*
X183589432Y-118313297D01*
X183589431Y-118313297D01*
X183577502Y-118316763D01*
X183558138Y-118320773D01*
X183545810Y-118322330D01*
X183545808Y-118322330D01*
X183537951Y-118323323D01*
X183530587Y-118326239D01*
X183530582Y-118326240D01*
X183496694Y-118339657D01*
X183485465Y-118343502D01*
X183471491Y-118347562D01*
X183442857Y-118355881D01*
X183436031Y-118359918D01*
X183425341Y-118366240D01*
X183407591Y-118374937D01*
X183388662Y-118382431D01*
X183382248Y-118387091D01*
X183352764Y-118408512D01*
X183342844Y-118415028D01*
X183311479Y-118433577D01*
X183311476Y-118433579D01*
X183304652Y-118437615D01*
X183290264Y-118452003D01*
X183275230Y-118464844D01*
X183258763Y-118476808D01*
X183253710Y-118482916D01*
X183230478Y-118510999D01*
X183222488Y-118519779D01*
X182867517Y-118874750D01*
X182859191Y-118882326D01*
X182852697Y-118886447D01*
X182847274Y-118892222D01*
X182805915Y-118936265D01*
X182803160Y-118939107D01*
X182783361Y-118958906D01*
X182780937Y-118962031D01*
X182780929Y-118962040D01*
X182780863Y-118962126D01*
X182773155Y-118971151D01*
X182742783Y-119003494D01*
X182738965Y-119010438D01*
X182738964Y-119010440D01*
X182732978Y-119021329D01*
X182722127Y-119037847D01*
X182709650Y-119053933D01*
X182692024Y-119094666D01*
X182686807Y-119105314D01*
X182665431Y-119144197D01*
X182663460Y-119151872D01*
X182663458Y-119151878D01*
X182660369Y-119163911D01*
X182653966Y-119182613D01*
X182645883Y-119201292D01*
X182644145Y-119212267D01*
X182638940Y-119245127D01*
X182636535Y-119256740D01*
X182625500Y-119299718D01*
X182625500Y-119320065D01*
X182623949Y-119339776D01*
X182620765Y-119359879D01*
X182621511Y-119367771D01*
X182624941Y-119404056D01*
X182625500Y-119415914D01*
X182625500Y-120585481D01*
X182624970Y-120596715D01*
X182623292Y-120604220D01*
X182623541Y-120612139D01*
X182625438Y-120672513D01*
X182625500Y-120676470D01*
X182625500Y-120704484D01*
X182625996Y-120708409D01*
X182625996Y-120708410D01*
X182626008Y-120708505D01*
X182626941Y-120720350D01*
X182628335Y-120764706D01*
X182630547Y-120772318D01*
X182634013Y-120784249D01*
X182638023Y-120803613D01*
X182640573Y-120823801D01*
X182639152Y-120823980D01*
X182637012Y-120886372D01*
X182596604Y-120944747D01*
X182531050Y-120972009D01*
X182517404Y-120972750D01*
X180984782Y-120972750D01*
X180973543Y-120972220D01*
X180966031Y-120970541D01*
X180958106Y-120970790D01*
X180958105Y-120970790D01*
X180897720Y-120972688D01*
X180893762Y-120972750D01*
X180865767Y-120972750D01*
X180861833Y-120973247D01*
X180861831Y-120973247D01*
X180861744Y-120973258D01*
X180849910Y-120974190D01*
X180805546Y-120975585D01*
X180786007Y-120981262D01*
X180766646Y-120985271D01*
X180754318Y-120986828D01*
X180754308Y-120986831D01*
X180746451Y-120987823D01*
X180739083Y-120990740D01*
X180739080Y-120990741D01*
X180705196Y-121004156D01*
X180693971Y-121008000D01*
X180651357Y-121020381D01*
X180644531Y-121024418D01*
X180633841Y-121030740D01*
X180616091Y-121039437D01*
X180597162Y-121046931D01*
X180590748Y-121051591D01*
X180561264Y-121073012D01*
X180551344Y-121079528D01*
X180519979Y-121098077D01*
X180519976Y-121098079D01*
X180513152Y-121102115D01*
X180498764Y-121116503D01*
X180483730Y-121129344D01*
X180467263Y-121141308D01*
X180462210Y-121147416D01*
X180438978Y-121175499D01*
X180430988Y-121184279D01*
X178904595Y-122710672D01*
X178842283Y-122744698D01*
X178771468Y-122739633D01*
X178714632Y-122697086D01*
X178689821Y-122630566D01*
X178689500Y-122621577D01*
X178689500Y-119822422D01*
X178709502Y-119754301D01*
X178726405Y-119733327D01*
X179717477Y-118742255D01*
X179725803Y-118734678D01*
X179732303Y-118730553D01*
X179779101Y-118680718D01*
X179781855Y-118677877D01*
X179801638Y-118658094D01*
X179804072Y-118654956D01*
X179806686Y-118651991D01*
X179807664Y-118652853D01*
X179860758Y-118614505D01*
X179889763Y-118607968D01*
X179897804Y-118607134D01*
X179923308Y-118604488D01*
X179923312Y-118604487D01*
X179930166Y-118603776D01*
X179936702Y-118601595D01*
X179936704Y-118601595D01*
X180068806Y-118557522D01*
X180097946Y-118547800D01*
X180248348Y-118454728D01*
X180373305Y-118329553D01*
X180381189Y-118316763D01*
X180462275Y-118185218D01*
X180462276Y-118185216D01*
X180466115Y-118178988D01*
X180504471Y-118063349D01*
X180519632Y-118017639D01*
X180519632Y-118017637D01*
X180521797Y-118011111D01*
X180532500Y-117906650D01*
X180532500Y-117280850D01*
X180532163Y-117277600D01*
X180522238Y-117181942D01*
X180522237Y-117181938D01*
X180521526Y-117175084D01*
X180465550Y-117007304D01*
X180372478Y-116856902D01*
X180285891Y-116770466D01*
X180251812Y-116708184D01*
X180256815Y-116637364D01*
X180285736Y-116592275D01*
X180368134Y-116509733D01*
X180373305Y-116504553D01*
X180388048Y-116480635D01*
X180462275Y-116360218D01*
X180462276Y-116360216D01*
X180466115Y-116353988D01*
X180492564Y-116274245D01*
X180519632Y-116192639D01*
X180519632Y-116192637D01*
X180521797Y-116186111D01*
X180532500Y-116081650D01*
X180532500Y-115455850D01*
X180532163Y-115452600D01*
X180522238Y-115356942D01*
X180522237Y-115356938D01*
X180521526Y-115350084D01*
X180515939Y-115333336D01*
X180467868Y-115189252D01*
X180465550Y-115182304D01*
X180372478Y-115031902D01*
X180247303Y-114906945D01*
X180241072Y-114903104D01*
X180102968Y-114817975D01*
X180102966Y-114817974D01*
X180096738Y-114814135D01*
X179995738Y-114780635D01*
X179935389Y-114760618D01*
X179935387Y-114760618D01*
X179928861Y-114758453D01*
X179922025Y-114757753D01*
X179922022Y-114757752D01*
X179878969Y-114753341D01*
X179824400Y-114747750D01*
X179215739Y-114747750D01*
X179147618Y-114727748D01*
X179126644Y-114710845D01*
X178699405Y-114283606D01*
X178665379Y-114221294D01*
X178662500Y-114194511D01*
X178662500Y-112953240D01*
X178682502Y-112885119D01*
X178699404Y-112864145D01*
X178946229Y-112617319D01*
X178958620Y-112606452D01*
X178976255Y-112592920D01*
X179042476Y-112567319D01*
X179112024Y-112581583D01*
X179142055Y-112603787D01*
X180222153Y-113683886D01*
X181119250Y-114580983D01*
X181126826Y-114589309D01*
X181130947Y-114595803D01*
X181136722Y-114601226D01*
X181180765Y-114642585D01*
X181183607Y-114645340D01*
X181203406Y-114665139D01*
X181206531Y-114667563D01*
X181206540Y-114667571D01*
X181206626Y-114667637D01*
X181215651Y-114675345D01*
X181247994Y-114705717D01*
X181254938Y-114709535D01*
X181254940Y-114709536D01*
X181260317Y-114712492D01*
X181265027Y-114715081D01*
X181265829Y-114715522D01*
X181282347Y-114726373D01*
X181298433Y-114738850D01*
X181339166Y-114756476D01*
X181349814Y-114761693D01*
X181388697Y-114783069D01*
X181396372Y-114785040D01*
X181396378Y-114785042D01*
X181408411Y-114788131D01*
X181427113Y-114794534D01*
X181445792Y-114802617D01*
X181479628Y-114807976D01*
X181489627Y-114809560D01*
X181501240Y-114811965D01*
X181544218Y-114823000D01*
X181564565Y-114823000D01*
X181584277Y-114824551D01*
X181604379Y-114827735D01*
X181612271Y-114826989D01*
X181648556Y-114823559D01*
X181660414Y-114823000D01*
X182146470Y-114823000D01*
X182214591Y-114843002D01*
X182261084Y-114896658D01*
X182265994Y-114909124D01*
X182283450Y-114961446D01*
X182376522Y-115111848D01*
X182501697Y-115236805D01*
X182507927Y-115240645D01*
X182507928Y-115240646D01*
X182645288Y-115325316D01*
X182652262Y-115329615D01*
X182717909Y-115351389D01*
X182813611Y-115383132D01*
X182813613Y-115383132D01*
X182820139Y-115385297D01*
X182826975Y-115385997D01*
X182826978Y-115385998D01*
X182870031Y-115390409D01*
X182924600Y-115396000D01*
X183550400Y-115396000D01*
X183553646Y-115395663D01*
X183553650Y-115395663D01*
X183649308Y-115385738D01*
X183649312Y-115385737D01*
X183656166Y-115385026D01*
X183662702Y-115382845D01*
X183662704Y-115382845D01*
X183814972Y-115332044D01*
X183823946Y-115329050D01*
X183974348Y-115235978D01*
X184014506Y-115195750D01*
X184061138Y-115149037D01*
X184123421Y-115114958D01*
X184194241Y-115119961D01*
X184239329Y-115148882D01*
X184321829Y-115231239D01*
X184333240Y-115240251D01*
X184471243Y-115325316D01*
X184484424Y-115331463D01*
X184638710Y-115382638D01*
X184652086Y-115385505D01*
X184746438Y-115395172D01*
X184752854Y-115395500D01*
X184790385Y-115395500D01*
X184805624Y-115391025D01*
X184806829Y-115389635D01*
X184808500Y-115381952D01*
X184808500Y-115377384D01*
X185316500Y-115377384D01*
X185320975Y-115392623D01*
X185322365Y-115393828D01*
X185330048Y-115395499D01*
X185372095Y-115395499D01*
X185378614Y-115395162D01*
X185474206Y-115385243D01*
X185487600Y-115382351D01*
X185641784Y-115330912D01*
X185654962Y-115324739D01*
X185792807Y-115239437D01*
X185804208Y-115230401D01*
X185918739Y-115115671D01*
X185927751Y-115104260D01*
X186012816Y-114966257D01*
X186018963Y-114953076D01*
X186070138Y-114798790D01*
X186073005Y-114785414D01*
X186082672Y-114691062D01*
X186083000Y-114684646D01*
X186083000Y-114459615D01*
X186078525Y-114444376D01*
X186077135Y-114443171D01*
X186069452Y-114441500D01*
X185334615Y-114441500D01*
X185319376Y-114445975D01*
X185318171Y-114447365D01*
X185316500Y-114455048D01*
X185316500Y-115377384D01*
X184808500Y-115377384D01*
X184808500Y-113915385D01*
X185316500Y-113915385D01*
X185320975Y-113930624D01*
X185322365Y-113931829D01*
X185330048Y-113933500D01*
X186064884Y-113933500D01*
X186080123Y-113929025D01*
X186081328Y-113927635D01*
X186082999Y-113919952D01*
X186082999Y-113690405D01*
X186082662Y-113683886D01*
X186072743Y-113588294D01*
X186069851Y-113574900D01*
X186018412Y-113420716D01*
X186012239Y-113407538D01*
X185926937Y-113269693D01*
X185917901Y-113258292D01*
X185803171Y-113143761D01*
X185791760Y-113134749D01*
X185653757Y-113049684D01*
X185640576Y-113043537D01*
X185486290Y-112992362D01*
X185472914Y-112989495D01*
X185378562Y-112979828D01*
X185372145Y-112979500D01*
X185334615Y-112979500D01*
X185319376Y-112983975D01*
X185318171Y-112985365D01*
X185316500Y-112993048D01*
X185316500Y-113915385D01*
X184808500Y-113915385D01*
X184808500Y-112997616D01*
X184804025Y-112982377D01*
X184802635Y-112981172D01*
X184794952Y-112979501D01*
X184752905Y-112979501D01*
X184746386Y-112979838D01*
X184650794Y-112989757D01*
X184637400Y-112992649D01*
X184483216Y-113044088D01*
X184470038Y-113050261D01*
X184332193Y-113135563D01*
X184320792Y-113144599D01*
X184239570Y-113225962D01*
X184177287Y-113260041D01*
X184106467Y-113255038D01*
X184061380Y-113226117D01*
X183978488Y-113143370D01*
X183978483Y-113143366D01*
X183973303Y-113138195D01*
X183868943Y-113073866D01*
X183828968Y-113049225D01*
X183828966Y-113049224D01*
X183822738Y-113045385D01*
X183742995Y-113018936D01*
X183661389Y-112991868D01*
X183661387Y-112991868D01*
X183654861Y-112989703D01*
X183648025Y-112989003D01*
X183648022Y-112989002D01*
X183604969Y-112984591D01*
X183550400Y-112979000D01*
X182924600Y-112979000D01*
X182921354Y-112979337D01*
X182921350Y-112979337D01*
X182825692Y-112989262D01*
X182825688Y-112989263D01*
X182818834Y-112989974D01*
X182812298Y-112992155D01*
X182812296Y-112992155D01*
X182795928Y-112997616D01*
X182651054Y-113045950D01*
X182500652Y-113139022D01*
X182375695Y-113264197D01*
X182282885Y-113414762D01*
X182280581Y-113421707D01*
X182280581Y-113421708D01*
X182266000Y-113465668D01*
X182225568Y-113524028D01*
X182160004Y-113551264D01*
X182146407Y-113552000D01*
X181939922Y-113552000D01*
X181871801Y-113531998D01*
X181850827Y-113515095D01*
X181741102Y-113405370D01*
X181707076Y-113343058D01*
X181712141Y-113272243D01*
X181754688Y-113215407D01*
X181778950Y-113201168D01*
X181806716Y-113188806D01*
X181806721Y-113188803D01*
X181812752Y-113186118D01*
X181967253Y-113073866D01*
X181992389Y-113045950D01*
X182090621Y-112936852D01*
X182090622Y-112936851D01*
X182095040Y-112931944D01*
X182190527Y-112766556D01*
X182249542Y-112584928D01*
X182269504Y-112395000D01*
X182249542Y-112205072D01*
X182190527Y-112023444D01*
X182095040Y-111858056D01*
X181967253Y-111716134D01*
X181812752Y-111603882D01*
X181806724Y-111601198D01*
X181806722Y-111601197D01*
X181644319Y-111528891D01*
X181644318Y-111528891D01*
X181638288Y-111526206D01*
X181628445Y-111524114D01*
X181622665Y-111522885D01*
X181560191Y-111489158D01*
X181525869Y-111427008D01*
X181530596Y-111356169D01*
X181573295Y-111298812D01*
X181642652Y-111246832D01*
X181709159Y-111221984D01*
X181731826Y-111222395D01*
X181768517Y-111226381D01*
X181775328Y-111226750D01*
X182637885Y-111226750D01*
X182653124Y-111222275D01*
X182654329Y-111220885D01*
X182656000Y-111213202D01*
X182656000Y-111208634D01*
X183164000Y-111208634D01*
X183168475Y-111223873D01*
X183169865Y-111225078D01*
X183177548Y-111226749D01*
X184044669Y-111226749D01*
X184051490Y-111226379D01*
X184102352Y-111220855D01*
X184117604Y-111217229D01*
X184238054Y-111172074D01*
X184253649Y-111163536D01*
X184355724Y-111087035D01*
X184368285Y-111074474D01*
X184444786Y-110972399D01*
X184453324Y-110956804D01*
X184498478Y-110836356D01*
X184502105Y-110821101D01*
X184507631Y-110770236D01*
X184508000Y-110763422D01*
X184508000Y-109990865D01*
X184503525Y-109975626D01*
X184502135Y-109974421D01*
X184494452Y-109972750D01*
X183182115Y-109972750D01*
X183166876Y-109977225D01*
X183165671Y-109978615D01*
X183164000Y-109986298D01*
X183164000Y-111208634D01*
X182656000Y-111208634D01*
X182656000Y-109446635D01*
X183164000Y-109446635D01*
X183168475Y-109461874D01*
X183169865Y-109463079D01*
X183177548Y-109464750D01*
X184489884Y-109464750D01*
X184505123Y-109460275D01*
X184506328Y-109458885D01*
X184507999Y-109451202D01*
X184507999Y-108674081D01*
X184507629Y-108667260D01*
X184502105Y-108616398D01*
X184498479Y-108601146D01*
X184453324Y-108480696D01*
X184444786Y-108465101D01*
X184368285Y-108363026D01*
X184355724Y-108350465D01*
X184253649Y-108273964D01*
X184238054Y-108265426D01*
X184117606Y-108220272D01*
X184102351Y-108216645D01*
X184051486Y-108211119D01*
X184044672Y-108210750D01*
X183182115Y-108210750D01*
X183166876Y-108215225D01*
X183165671Y-108216615D01*
X183164000Y-108224298D01*
X183164000Y-109446635D01*
X182656000Y-109446635D01*
X182656000Y-108228866D01*
X182651525Y-108213627D01*
X182650135Y-108212422D01*
X182642452Y-108210751D01*
X181775331Y-108210751D01*
X181768510Y-108211121D01*
X181717648Y-108216645D01*
X181702396Y-108220271D01*
X181581946Y-108265426D01*
X181566351Y-108273964D01*
X181464276Y-108350465D01*
X181451715Y-108363026D01*
X181375214Y-108465101D01*
X181366676Y-108480695D01*
X181366206Y-108481950D01*
X181365407Y-108483014D01*
X181362366Y-108488568D01*
X181361564Y-108488129D01*
X181323566Y-108538715D01*
X181257005Y-108563417D01*
X181187656Y-108548211D01*
X181171703Y-108537826D01*
X181124322Y-108501600D01*
X181019186Y-108452575D01*
X180966369Y-108427945D01*
X180966366Y-108427944D01*
X180960192Y-108425065D01*
X180953544Y-108423579D01*
X180953541Y-108423578D01*
X180788494Y-108386686D01*
X180788495Y-108386686D01*
X180783457Y-108385560D01*
X180777912Y-108385250D01*
X180644756Y-108385250D01*
X180509963Y-108399893D01*
X180426609Y-108427945D01*
X180344796Y-108455478D01*
X180344794Y-108455479D01*
X180338325Y-108457656D01*
X180183095Y-108550927D01*
X180178138Y-108555615D01*
X180178135Y-108555617D01*
X180113429Y-108616807D01*
X180051515Y-108675357D01*
X180047683Y-108680995D01*
X180047680Y-108680999D01*
X179996740Y-108755955D01*
X179949723Y-108825138D01*
X179882470Y-108993284D01*
X179864004Y-109104829D01*
X179833145Y-109168768D01*
X179772616Y-109205873D01*
X179739696Y-109210250D01*
X179351866Y-109210250D01*
X179348471Y-109210619D01*
X179348467Y-109210619D01*
X179322469Y-109213443D01*
X179313606Y-109214406D01*
X179286394Y-109214406D01*
X179277531Y-109213443D01*
X179251533Y-109210619D01*
X179251529Y-109210619D01*
X179248134Y-109210250D01*
X178851866Y-109210250D01*
X178848471Y-109210619D01*
X178848467Y-109210619D01*
X178822469Y-109213443D01*
X178813606Y-109214406D01*
X178786394Y-109214406D01*
X178777531Y-109213443D01*
X178751533Y-109210619D01*
X178751529Y-109210619D01*
X178748134Y-109210250D01*
X178581890Y-109210250D01*
X178513769Y-109190248D01*
X178492792Y-109173343D01*
X178489016Y-109169567D01*
X178483987Y-109163013D01*
X178477432Y-109157983D01*
X178458621Y-109143548D01*
X178446230Y-109132681D01*
X178264315Y-108950766D01*
X178253448Y-108938375D01*
X178239013Y-108919563D01*
X178233987Y-108913013D01*
X178202075Y-108888526D01*
X178202069Y-108888520D01*
X178113429Y-108820504D01*
X178113427Y-108820503D01*
X178106876Y-108815476D01*
X177958851Y-108754162D01*
X177950664Y-108753084D01*
X177950663Y-108753084D01*
X177939458Y-108751609D01*
X177908262Y-108747502D01*
X177839885Y-108738500D01*
X177839882Y-108738500D01*
X177839874Y-108738499D01*
X177808189Y-108734328D01*
X177800000Y-108733250D01*
X177768307Y-108737422D01*
X177751864Y-108738500D01*
X177340144Y-108738500D01*
X177323698Y-108737422D01*
X177300188Y-108734327D01*
X177292000Y-108733249D01*
X177133149Y-108754162D01*
X176985124Y-108815476D01*
X176964274Y-108831475D01*
X176889937Y-108888515D01*
X176889921Y-108888529D01*
X176864566Y-108907984D01*
X176864563Y-108907987D01*
X176858013Y-108913013D01*
X176852983Y-108919568D01*
X176838548Y-108938379D01*
X176827681Y-108950770D01*
X176653766Y-109124685D01*
X176641375Y-109135552D01*
X176616013Y-109155013D01*
X176610987Y-109161563D01*
X176605146Y-109167404D01*
X176604081Y-109166339D01*
X176554113Y-109202823D01*
X176511492Y-109210250D01*
X176351866Y-109210250D01*
X176348471Y-109210619D01*
X176348467Y-109210619D01*
X176322469Y-109213443D01*
X176313606Y-109214406D01*
X176286394Y-109214406D01*
X176277531Y-109213443D01*
X176251533Y-109210619D01*
X176251529Y-109210619D01*
X176248134Y-109210250D01*
X175863779Y-109210250D01*
X175795658Y-109190248D01*
X175749165Y-109136592D01*
X175739741Y-109098145D01*
X175739078Y-109098252D01*
X175737987Y-109091518D01*
X175737630Y-109084703D01*
X175689539Y-108910109D01*
X175605078Y-108749914D01*
X175600673Y-108744701D01*
X175600670Y-108744697D01*
X175492594Y-108616807D01*
X175492590Y-108616803D01*
X175488187Y-108611593D01*
X175474523Y-108601146D01*
X175349743Y-108505744D01*
X175349739Y-108505741D01*
X175344322Y-108501600D01*
X175239186Y-108452575D01*
X175186369Y-108427945D01*
X175186366Y-108427944D01*
X175180192Y-108425065D01*
X175173544Y-108423579D01*
X175173541Y-108423578D01*
X175008494Y-108386686D01*
X175008495Y-108386686D01*
X175003457Y-108385560D01*
X174997912Y-108385250D01*
X174864756Y-108385250D01*
X174729963Y-108399893D01*
X174646609Y-108427945D01*
X174564796Y-108455478D01*
X174564794Y-108455479D01*
X174558325Y-108457656D01*
X174415766Y-108543314D01*
X174347075Y-108561253D01*
X174279588Y-108539206D01*
X174239259Y-108487678D01*
X174237634Y-108488568D01*
X174224786Y-108465101D01*
X174148285Y-108363026D01*
X174135724Y-108350465D01*
X174033649Y-108273964D01*
X174018054Y-108265426D01*
X173897606Y-108220272D01*
X173882351Y-108216645D01*
X173831486Y-108211119D01*
X173824672Y-108210750D01*
X172962115Y-108210750D01*
X172946876Y-108215225D01*
X172945671Y-108216615D01*
X172944000Y-108224298D01*
X172944000Y-111208634D01*
X172948475Y-111223873D01*
X172949865Y-111225078D01*
X172957548Y-111226749D01*
X173824669Y-111226749D01*
X173831493Y-111226379D01*
X173868179Y-111222395D01*
X173938061Y-111234925D01*
X173957348Y-111246832D01*
X174046351Y-111313536D01*
X174061946Y-111322074D01*
X174112300Y-111340951D01*
X174169064Y-111383593D01*
X174193764Y-111450154D01*
X174178557Y-111519503D01*
X174128271Y-111569621D01*
X174094268Y-111582180D01*
X173926373Y-111617867D01*
X173920343Y-111620552D01*
X173920342Y-111620552D01*
X173757939Y-111692858D01*
X173757937Y-111692859D01*
X173751909Y-111695543D01*
X173746568Y-111699423D01*
X173746567Y-111699424D01*
X173723568Y-111716134D01*
X173597408Y-111807795D01*
X173469621Y-111949717D01*
X173374134Y-112115105D01*
X173315119Y-112296733D01*
X173314429Y-112303294D01*
X173314429Y-112303296D01*
X173305481Y-112388435D01*
X173295157Y-112486661D01*
X173295847Y-112493226D01*
X173308890Y-112617319D01*
X173315119Y-112676589D01*
X173317159Y-112682867D01*
X173350090Y-112784218D01*
X173352118Y-112855185D01*
X173315455Y-112915983D01*
X173251743Y-112947309D01*
X173178259Y-112937516D01*
X173174802Y-112935385D01*
X173167854Y-112933081D01*
X173167851Y-112933079D01*
X173013453Y-112881868D01*
X173013451Y-112881868D01*
X173006925Y-112879703D01*
X173000089Y-112879003D01*
X173000086Y-112879002D01*
X172957033Y-112874591D01*
X172902464Y-112869000D01*
X172276664Y-112869000D01*
X172273418Y-112869337D01*
X172273414Y-112869337D01*
X172177756Y-112879262D01*
X172177752Y-112879263D01*
X172170898Y-112879974D01*
X172164362Y-112882155D01*
X172164360Y-112882155D01*
X172062966Y-112915983D01*
X172003118Y-112935950D01*
X171852716Y-113029022D01*
X171847543Y-113034204D01*
X171765926Y-113115963D01*
X171703643Y-113150042D01*
X171632823Y-113145039D01*
X171587735Y-113116118D01*
X171505235Y-113033761D01*
X171493824Y-113024749D01*
X171355821Y-112939684D01*
X171342640Y-112933537D01*
X171188354Y-112882362D01*
X171174978Y-112879495D01*
X171080626Y-112869828D01*
X171074209Y-112869500D01*
X171036679Y-112869500D01*
X171021440Y-112873975D01*
X171020235Y-112875365D01*
X171018564Y-112883048D01*
X171018564Y-115267384D01*
X171023039Y-115282623D01*
X171024429Y-115283828D01*
X171032112Y-115285499D01*
X171074159Y-115285499D01*
X171080678Y-115285162D01*
X171176270Y-115275243D01*
X171189664Y-115272351D01*
X171343848Y-115220912D01*
X171357026Y-115214739D01*
X171494871Y-115129437D01*
X171506272Y-115120401D01*
X171587494Y-115039038D01*
X171649777Y-115004959D01*
X171720597Y-115009962D01*
X171765684Y-115038883D01*
X171848576Y-115121630D01*
X171848581Y-115121634D01*
X171853761Y-115126805D01*
X171859991Y-115130645D01*
X171859992Y-115130646D01*
X171991574Y-115211755D01*
X172039068Y-115264528D01*
X172050491Y-115334599D01*
X172022216Y-115399723D01*
X171999521Y-115420949D01*
X171854747Y-115526134D01*
X171850326Y-115531044D01*
X171850325Y-115531045D01*
X171810227Y-115575579D01*
X171726960Y-115668056D01*
X171631473Y-115833444D01*
X171572458Y-116015072D01*
X171571768Y-116021633D01*
X171571768Y-116021635D01*
X171565460Y-116081650D01*
X171552496Y-116205000D01*
X171553186Y-116211565D01*
X171563533Y-116310007D01*
X171572458Y-116394928D01*
X171631473Y-116576556D01*
X171634776Y-116582278D01*
X171634777Y-116582279D01*
X171640409Y-116592034D01*
X171726960Y-116741944D01*
X171734637Y-116750470D01*
X171765353Y-116814476D01*
X171767000Y-116834779D01*
X171767000Y-119978000D01*
X171746998Y-120046121D01*
X171693342Y-120092614D01*
X171641000Y-120104000D01*
X171568350Y-120104000D01*
X171565104Y-120104337D01*
X171565100Y-120104337D01*
X171469442Y-120114262D01*
X171469438Y-120114263D01*
X171462584Y-120114974D01*
X171456048Y-120117155D01*
X171456046Y-120117155D01*
X171404546Y-120134337D01*
X171294804Y-120170950D01*
X171144402Y-120264022D01*
X171019445Y-120389197D01*
X170926635Y-120539762D01*
X170924331Y-120546709D01*
X170873312Y-120700528D01*
X170870953Y-120707639D01*
X170860250Y-120812100D01*
X170860250Y-121662900D01*
X170860587Y-121666146D01*
X170860587Y-121666150D01*
X170867645Y-121734170D01*
X170871224Y-121768666D01*
X170873405Y-121775202D01*
X170873405Y-121775204D01*
X170909572Y-121883609D01*
X170927200Y-121936446D01*
X171020272Y-122086848D01*
X171145447Y-122211805D01*
X171151677Y-122215645D01*
X171151678Y-122215646D01*
X171288840Y-122300194D01*
X171296012Y-122304615D01*
X171375755Y-122331064D01*
X171457361Y-122358132D01*
X171457363Y-122358132D01*
X171463889Y-122360297D01*
X171470725Y-122360997D01*
X171470728Y-122360998D01*
X171513781Y-122365409D01*
X171568350Y-122371000D01*
X172919150Y-122371000D01*
X172922396Y-122370663D01*
X172922400Y-122370663D01*
X173018058Y-122360738D01*
X173018062Y-122360737D01*
X173024916Y-122360026D01*
X173031452Y-122357845D01*
X173031454Y-122357845D01*
X173163556Y-122313772D01*
X173192696Y-122304050D01*
X173343098Y-122210978D01*
X173468055Y-122085803D01*
X173499346Y-122035040D01*
X173557025Y-121941468D01*
X173557026Y-121941466D01*
X173560865Y-121935238D01*
X173599649Y-121818308D01*
X173614382Y-121773889D01*
X173614382Y-121773887D01*
X173616547Y-121767361D01*
X173620521Y-121728580D01*
X173624241Y-121692271D01*
X173627250Y-121662900D01*
X173627250Y-120812100D01*
X173626913Y-120808850D01*
X173616988Y-120713192D01*
X173616987Y-120713188D01*
X173616276Y-120706334D01*
X173604993Y-120672513D01*
X173562618Y-120545502D01*
X173560300Y-120538554D01*
X173467228Y-120388152D01*
X173342053Y-120263195D01*
X173224883Y-120190970D01*
X173177391Y-120138199D01*
X173165000Y-120083711D01*
X173165000Y-116834779D01*
X173185002Y-116766658D01*
X173197359Y-116750475D01*
X173205040Y-116741944D01*
X173291591Y-116592034D01*
X173297223Y-116582279D01*
X173297224Y-116582278D01*
X173300527Y-116576556D01*
X173359542Y-116394928D01*
X173368468Y-116310007D01*
X173378814Y-116211565D01*
X173379504Y-116205000D01*
X173366540Y-116081650D01*
X173360232Y-116021635D01*
X173360232Y-116021633D01*
X173359542Y-116015072D01*
X173300527Y-115833444D01*
X173205040Y-115668056D01*
X173121774Y-115575579D01*
X173081675Y-115531045D01*
X173081674Y-115531044D01*
X173077253Y-115526134D01*
X173016808Y-115482218D01*
X172973455Y-115425997D01*
X172967380Y-115355261D01*
X173000511Y-115292469D01*
X173050993Y-115260760D01*
X173169057Y-115221370D01*
X173169059Y-115221369D01*
X173176010Y-115219050D01*
X173326412Y-115125978D01*
X173451369Y-115000803D01*
X173479912Y-114954498D01*
X173540339Y-114856468D01*
X173540340Y-114856466D01*
X173544179Y-114850238D01*
X173560281Y-114801691D01*
X173561063Y-114799334D01*
X173601493Y-114740973D01*
X173667057Y-114713736D01*
X173680656Y-114713000D01*
X173685233Y-114713000D01*
X173689158Y-114712504D01*
X173689159Y-114712504D01*
X173689254Y-114712492D01*
X173701099Y-114711559D01*
X173730920Y-114710622D01*
X173737532Y-114710414D01*
X173737533Y-114710414D01*
X173745455Y-114710165D01*
X173764999Y-114704487D01*
X173784362Y-114700477D01*
X173796690Y-114698920D01*
X173796692Y-114698920D01*
X173804549Y-114697927D01*
X173811913Y-114695011D01*
X173811918Y-114695010D01*
X173845806Y-114681593D01*
X173857035Y-114677748D01*
X173879307Y-114671277D01*
X173899643Y-114665369D01*
X173906470Y-114661331D01*
X173906473Y-114661330D01*
X173917156Y-114655012D01*
X173934914Y-114646312D01*
X173946465Y-114641739D01*
X173946471Y-114641735D01*
X173953838Y-114638819D01*
X173989741Y-114612734D01*
X173999660Y-114606219D01*
X174031018Y-114587674D01*
X174031022Y-114587671D01*
X174037848Y-114583634D01*
X174052232Y-114569250D01*
X174067266Y-114556409D01*
X174077323Y-114549102D01*
X174083737Y-114544442D01*
X174112028Y-114510244D01*
X174120017Y-114501465D01*
X176280611Y-112340872D01*
X176342923Y-112306846D01*
X176413739Y-112311911D01*
X176470574Y-112354458D01*
X176486114Y-112381747D01*
X176518476Y-112459876D01*
X176523503Y-112466427D01*
X176523504Y-112466429D01*
X176591520Y-112555069D01*
X176591526Y-112555075D01*
X176616013Y-112586987D01*
X176622562Y-112592012D01*
X176641377Y-112606449D01*
X176653769Y-112617317D01*
X176900595Y-112864143D01*
X176934621Y-112926455D01*
X176937500Y-112953238D01*
X176937500Y-114131011D01*
X176917498Y-114199132D01*
X176900595Y-114220106D01*
X176409856Y-114710845D01*
X176347544Y-114744871D01*
X176320761Y-114747750D01*
X175712100Y-114747750D01*
X175708854Y-114748087D01*
X175708850Y-114748087D01*
X175613192Y-114758012D01*
X175613188Y-114758013D01*
X175606334Y-114758724D01*
X175599798Y-114760905D01*
X175599796Y-114760905D01*
X175502296Y-114793434D01*
X175438554Y-114814700D01*
X175288152Y-114907772D01*
X175163195Y-115032947D01*
X175159355Y-115039177D01*
X175159354Y-115039178D01*
X175081381Y-115165674D01*
X175070385Y-115183512D01*
X175066326Y-115195750D01*
X175021344Y-115331368D01*
X175014703Y-115351389D01*
X175014003Y-115358225D01*
X175014002Y-115358228D01*
X175010183Y-115395500D01*
X175004000Y-115455850D01*
X175004000Y-116081650D01*
X175004337Y-116084896D01*
X175004337Y-116084900D01*
X175010454Y-116143850D01*
X175014974Y-116187416D01*
X175017155Y-116193952D01*
X175017155Y-116193954D01*
X175023031Y-116211565D01*
X175070950Y-116355196D01*
X175164022Y-116505598D01*
X175248134Y-116589563D01*
X175250609Y-116592034D01*
X175284688Y-116654316D01*
X175279685Y-116725136D01*
X175250764Y-116770225D01*
X175186323Y-116834779D01*
X175163195Y-116857947D01*
X175159355Y-116864177D01*
X175159354Y-116864178D01*
X175112771Y-116939750D01*
X175070385Y-117008512D01*
X175014703Y-117176389D01*
X175004000Y-117280850D01*
X175004000Y-117906650D01*
X175004337Y-117909896D01*
X175004337Y-117909900D01*
X175012957Y-117992975D01*
X175014974Y-118012416D01*
X175017155Y-118018952D01*
X175017155Y-118018954D01*
X175061228Y-118151056D01*
X175070950Y-118180196D01*
X175164022Y-118330598D01*
X175169204Y-118335771D01*
X175181777Y-118348322D01*
X175289197Y-118455555D01*
X175295427Y-118459395D01*
X175295428Y-118459396D01*
X175432590Y-118543944D01*
X175439762Y-118548365D01*
X175500434Y-118568489D01*
X175601111Y-118601882D01*
X175601113Y-118601882D01*
X175607639Y-118604047D01*
X175614475Y-118604747D01*
X175614478Y-118604748D01*
X175712100Y-118614750D01*
X175712018Y-118615555D01*
X175775771Y-118637868D01*
X175791424Y-118651156D01*
X176873595Y-119733328D01*
X176907621Y-119795640D01*
X176910500Y-119822423D01*
X176910500Y-127411525D01*
X176890498Y-127479646D01*
X176836842Y-127526139D01*
X176766568Y-127536243D01*
X176701988Y-127506749D01*
X176695405Y-127500620D01*
X173664155Y-124469370D01*
X173630129Y-124407058D01*
X173627250Y-124380275D01*
X173627250Y-123612100D01*
X173623860Y-123579424D01*
X173616988Y-123513192D01*
X173616987Y-123513188D01*
X173616276Y-123506334D01*
X173589873Y-123427193D01*
X173562618Y-123345502D01*
X173560300Y-123338554D01*
X173467228Y-123188152D01*
X173342053Y-123063195D01*
X173335822Y-123059354D01*
X173197718Y-122974225D01*
X173197716Y-122974224D01*
X173191488Y-122970385D01*
X173111745Y-122943936D01*
X173030139Y-122916868D01*
X173030137Y-122916868D01*
X173023611Y-122914703D01*
X173016775Y-122914003D01*
X173016772Y-122914002D01*
X172973719Y-122909591D01*
X172919150Y-122904000D01*
X171568350Y-122904000D01*
X171565104Y-122904337D01*
X171565100Y-122904337D01*
X171469442Y-122914262D01*
X171469438Y-122914263D01*
X171462584Y-122914974D01*
X171456048Y-122917155D01*
X171456046Y-122917155D01*
X171323944Y-122961228D01*
X171294804Y-122970950D01*
X171144402Y-123064022D01*
X171019445Y-123189197D01*
X171015605Y-123195427D01*
X171015604Y-123195428D01*
X170955923Y-123292249D01*
X170926635Y-123339762D01*
X170870953Y-123507639D01*
X170860250Y-123612100D01*
X170860250Y-124462900D01*
X170860587Y-124466146D01*
X170860587Y-124466150D01*
X170869940Y-124556290D01*
X170871224Y-124568666D01*
X170873405Y-124575202D01*
X170873405Y-124575204D01*
X170901273Y-124658733D01*
X170927200Y-124736446D01*
X171020272Y-124886848D01*
X171145447Y-125011805D01*
X171151677Y-125015645D01*
X171151678Y-125015646D01*
X171236260Y-125067783D01*
X171296012Y-125104615D01*
X171375755Y-125131064D01*
X171457361Y-125158132D01*
X171457363Y-125158132D01*
X171463889Y-125160297D01*
X171470725Y-125160997D01*
X171470728Y-125160998D01*
X171513781Y-125165409D01*
X171568350Y-125171000D01*
X172336525Y-125171000D01*
X172404646Y-125191002D01*
X172425620Y-125207905D01*
X178520717Y-131303002D01*
X178554743Y-131365314D01*
X178549678Y-131436129D01*
X178505683Y-131494033D01*
X178458747Y-131528134D01*
X178454326Y-131533044D01*
X178454325Y-131533045D01*
X178395585Y-131598283D01*
X178330960Y-131670056D01*
X178327659Y-131675774D01*
X178240926Y-131826000D01*
X178235473Y-131835444D01*
X178176458Y-132017072D01*
X178175768Y-132023633D01*
X178175768Y-132023635D01*
X178157186Y-132200435D01*
X178156496Y-132207000D01*
X178157186Y-132213565D01*
X178169456Y-132330303D01*
X178176458Y-132396928D01*
X178178498Y-132403206D01*
X178185492Y-132424732D01*
X178187519Y-132495700D01*
X178154754Y-132552763D01*
X177921672Y-132785845D01*
X177859360Y-132819871D01*
X177832577Y-132822750D01*
X176776866Y-132822750D01*
X176714684Y-132829505D01*
X176578295Y-132880635D01*
X176461739Y-132967989D01*
X176374385Y-133084545D01*
X176323255Y-133220934D01*
X176316500Y-133283116D01*
X176316500Y-134479384D01*
X176323255Y-134541566D01*
X176374385Y-134677955D01*
X176461739Y-134794511D01*
X176578295Y-134881865D01*
X176714684Y-134932995D01*
X176776866Y-134939750D01*
X178673134Y-134939750D01*
X178735316Y-134932995D01*
X178871705Y-134881865D01*
X178988261Y-134794511D01*
X179075615Y-134677955D01*
X179126745Y-134541566D01*
X179133500Y-134479384D01*
X179133500Y-133423672D01*
X179153502Y-133355551D01*
X179170405Y-133334577D01*
X179463477Y-133041505D01*
X179471803Y-133033928D01*
X179478303Y-133029803D01*
X179483730Y-133024023D01*
X179488102Y-133020407D01*
X179517169Y-133002385D01*
X179520719Y-133000805D01*
X179520726Y-133000801D01*
X179526752Y-132998118D01*
X179539019Y-132989206D01*
X179657670Y-132903000D01*
X179681253Y-132885866D01*
X179792506Y-132762307D01*
X179852952Y-132725067D01*
X179923936Y-132726419D01*
X179975237Y-132757522D01*
X185973003Y-138755288D01*
X185978856Y-138761553D01*
X186016342Y-138804524D01*
X186067889Y-138840752D01*
X186073184Y-138844685D01*
X186122739Y-138883541D01*
X186129663Y-138886667D01*
X186132712Y-138888514D01*
X186145378Y-138895739D01*
X186148543Y-138897436D01*
X186154761Y-138901806D01*
X186213496Y-138924706D01*
X186219509Y-138927233D01*
X186276935Y-138953162D01*
X186284403Y-138954546D01*
X186287811Y-138955614D01*
X186301850Y-138959614D01*
X186305314Y-138960503D01*
X186312389Y-138963262D01*
X186319918Y-138964253D01*
X186319921Y-138964254D01*
X186374845Y-138971485D01*
X186381359Y-138972517D01*
X186435817Y-138982610D01*
X186435820Y-138982610D01*
X186443286Y-138983994D01*
X186450866Y-138983557D01*
X186450867Y-138983557D01*
X186504594Y-138980459D01*
X186511847Y-138980250D01*
X188370260Y-138980250D01*
X188393219Y-138982360D01*
X188402037Y-138983994D01*
X188409617Y-138983557D01*
X188409618Y-138983557D01*
X188463351Y-138980459D01*
X188470603Y-138980250D01*
X189450569Y-138980250D01*
X189518690Y-139000252D01*
X189565183Y-139053908D01*
X189570091Y-139066370D01*
X189574704Y-139080196D01*
X189667776Y-139230598D01*
X189792951Y-139355555D01*
X189799181Y-139359395D01*
X189799182Y-139359396D01*
X189936542Y-139444066D01*
X189943516Y-139448365D01*
X190023259Y-139474814D01*
X190104865Y-139501882D01*
X190104867Y-139501882D01*
X190111393Y-139504047D01*
X190118229Y-139504747D01*
X190118232Y-139504748D01*
X190161285Y-139509159D01*
X190215854Y-139514750D01*
X190816654Y-139514750D01*
X190819900Y-139514413D01*
X190819904Y-139514413D01*
X190915562Y-139504488D01*
X190915566Y-139504487D01*
X190922420Y-139503776D01*
X190928956Y-139501595D01*
X190928958Y-139501595D01*
X191061060Y-139457522D01*
X191090200Y-139447800D01*
X191240602Y-139354728D01*
X191365559Y-139229553D01*
X191368356Y-139225015D01*
X191425607Y-139184426D01*
X191496530Y-139181196D01*
X191557941Y-139216822D01*
X191565316Y-139225318D01*
X191573352Y-139235457D01*
X191688083Y-139349989D01*
X191699494Y-139359001D01*
X191837497Y-139444066D01*
X191850678Y-139450213D01*
X192004964Y-139501388D01*
X192018340Y-139504255D01*
X192112692Y-139513922D01*
X192119108Y-139514250D01*
X192144139Y-139514250D01*
X192159378Y-139509775D01*
X192160583Y-139508385D01*
X192162254Y-139500702D01*
X192162254Y-139496134D01*
X192670254Y-139496134D01*
X192674729Y-139511373D01*
X192676119Y-139512578D01*
X192683802Y-139514249D01*
X192713349Y-139514249D01*
X192719868Y-139513912D01*
X192815460Y-139503993D01*
X192828854Y-139501101D01*
X192983038Y-139449662D01*
X192996216Y-139443489D01*
X193134061Y-139358187D01*
X193145462Y-139349151D01*
X193259993Y-139234421D01*
X193269005Y-139223010D01*
X193354070Y-139085007D01*
X193360217Y-139071826D01*
X193411392Y-138917540D01*
X193414259Y-138904164D01*
X193423926Y-138809812D01*
X193424254Y-138803396D01*
X193424254Y-138803345D01*
X197445755Y-138803345D01*
X197446092Y-138809864D01*
X197456011Y-138905456D01*
X197458903Y-138918850D01*
X197510342Y-139073034D01*
X197516515Y-139086212D01*
X197601817Y-139224057D01*
X197610853Y-139235458D01*
X197725583Y-139349989D01*
X197736994Y-139359001D01*
X197874997Y-139444066D01*
X197888178Y-139450213D01*
X198042464Y-139501388D01*
X198055840Y-139504255D01*
X198150192Y-139513922D01*
X198156608Y-139514250D01*
X198181639Y-139514250D01*
X198196878Y-139509775D01*
X198198083Y-139508385D01*
X198199754Y-139500702D01*
X198199754Y-138553365D01*
X198195279Y-138538126D01*
X198193889Y-138536921D01*
X198186206Y-138535250D01*
X197463870Y-138535250D01*
X197448631Y-138539725D01*
X197447426Y-138541115D01*
X197445755Y-138548798D01*
X197445755Y-138803345D01*
X193424254Y-138803345D01*
X193424254Y-138553365D01*
X193419779Y-138538126D01*
X193418389Y-138536921D01*
X193410706Y-138535250D01*
X192688369Y-138535250D01*
X192673130Y-138539725D01*
X192671925Y-138541115D01*
X192670254Y-138548798D01*
X192670254Y-139496134D01*
X192162254Y-139496134D01*
X192162254Y-138009135D01*
X192670254Y-138009135D01*
X192674729Y-138024374D01*
X192676119Y-138025579D01*
X192683802Y-138027250D01*
X193406138Y-138027250D01*
X193421377Y-138022775D01*
X193422582Y-138021385D01*
X193424253Y-138013702D01*
X193424253Y-138009135D01*
X197445754Y-138009135D01*
X197450229Y-138024374D01*
X197451619Y-138025579D01*
X197459302Y-138027250D01*
X198181639Y-138027250D01*
X198196878Y-138022775D01*
X198198083Y-138021385D01*
X198199754Y-138013702D01*
X198199754Y-137066366D01*
X198195279Y-137051127D01*
X198193889Y-137049922D01*
X198186206Y-137048251D01*
X198156659Y-137048251D01*
X198150140Y-137048588D01*
X198054548Y-137058507D01*
X198041154Y-137061399D01*
X197886970Y-137112838D01*
X197873792Y-137119011D01*
X197735947Y-137204313D01*
X197724546Y-137213349D01*
X197610015Y-137328079D01*
X197601003Y-137339490D01*
X197515938Y-137477493D01*
X197509791Y-137490674D01*
X197458616Y-137644960D01*
X197455749Y-137658336D01*
X197446082Y-137752688D01*
X197445754Y-137759105D01*
X197445754Y-138009135D01*
X193424253Y-138009135D01*
X193424253Y-137759155D01*
X193423916Y-137752636D01*
X193413997Y-137657044D01*
X193411105Y-137643650D01*
X193359666Y-137489466D01*
X193353493Y-137476288D01*
X193268191Y-137338443D01*
X193259155Y-137327042D01*
X193144425Y-137212511D01*
X193133014Y-137203499D01*
X192995011Y-137118434D01*
X192981830Y-137112287D01*
X192827544Y-137061112D01*
X192814168Y-137058245D01*
X192719816Y-137048578D01*
X192713399Y-137048250D01*
X192688369Y-137048250D01*
X192673130Y-137052725D01*
X192671925Y-137054115D01*
X192670254Y-137061798D01*
X192670254Y-138009135D01*
X192162254Y-138009135D01*
X192162254Y-137066366D01*
X192157779Y-137051127D01*
X192156389Y-137049922D01*
X192148706Y-137048251D01*
X192119159Y-137048251D01*
X192112647Y-137048588D01*
X192100506Y-137049848D01*
X192030684Y-137036984D01*
X191978901Y-136988414D01*
X191961500Y-136924521D01*
X191961500Y-135428407D01*
X191981502Y-135360286D01*
X192035158Y-135313793D01*
X192105432Y-135303689D01*
X192170012Y-135333183D01*
X192188320Y-135352835D01*
X192224239Y-135400761D01*
X192231419Y-135406142D01*
X192231420Y-135406143D01*
X192266065Y-135432108D01*
X192308580Y-135488967D01*
X192313913Y-135518574D01*
X192320975Y-135542623D01*
X192322365Y-135543828D01*
X192330048Y-135545499D01*
X192382169Y-135545499D01*
X192388990Y-135545129D01*
X192447707Y-135538752D01*
X192448005Y-135541498D01*
X192476946Y-135541440D01*
X192477184Y-135539245D01*
X192531367Y-135545131D01*
X192539366Y-135546000D01*
X193185634Y-135546000D01*
X193193634Y-135545131D01*
X193247816Y-135539245D01*
X193248080Y-135541674D01*
X193276920Y-135541674D01*
X193277184Y-135539245D01*
X193331367Y-135545131D01*
X193339366Y-135546000D01*
X193985634Y-135546000D01*
X193993634Y-135545131D01*
X194047816Y-135539245D01*
X194048080Y-135541674D01*
X194076920Y-135541674D01*
X194077184Y-135539245D01*
X194131367Y-135545131D01*
X194139366Y-135546000D01*
X194785634Y-135546000D01*
X194793634Y-135545131D01*
X194847816Y-135539245D01*
X194848080Y-135541674D01*
X194876920Y-135541674D01*
X194877184Y-135539245D01*
X194931367Y-135545131D01*
X194939366Y-135546000D01*
X195585634Y-135546000D01*
X195593634Y-135545131D01*
X195647816Y-135539245D01*
X195648080Y-135541674D01*
X195676920Y-135541674D01*
X195677184Y-135539245D01*
X195731367Y-135545131D01*
X195739366Y-135546000D01*
X196385634Y-135546000D01*
X196393634Y-135545131D01*
X196447816Y-135539245D01*
X196448080Y-135541674D01*
X196476920Y-135541674D01*
X196477184Y-135539245D01*
X196531367Y-135545131D01*
X196539366Y-135546000D01*
X197185634Y-135546000D01*
X197193634Y-135545131D01*
X197247816Y-135539245D01*
X197248080Y-135541674D01*
X197276920Y-135541674D01*
X197277184Y-135539245D01*
X197331367Y-135545131D01*
X197339366Y-135546000D01*
X197985634Y-135546000D01*
X197993634Y-135545131D01*
X198047816Y-135539245D01*
X198048048Y-135541384D01*
X198077012Y-135541334D01*
X198077293Y-135538752D01*
X198136014Y-135545131D01*
X198142828Y-135545500D01*
X198190385Y-135545500D01*
X198205624Y-135541025D01*
X198206829Y-135539635D01*
X198211379Y-135518717D01*
X198212597Y-135518982D01*
X198228502Y-135464813D01*
X198258935Y-135432108D01*
X198293580Y-135406143D01*
X198293581Y-135406142D01*
X198300761Y-135400761D01*
X198336676Y-135352840D01*
X198393533Y-135310327D01*
X198464351Y-135305301D01*
X198526645Y-135339361D01*
X198560635Y-135401692D01*
X198563500Y-135428407D01*
X198563500Y-137161397D01*
X198563208Y-137169967D01*
X198560631Y-137207772D01*
X198559330Y-137226848D01*
X198560635Y-137234324D01*
X198560635Y-137234328D01*
X198570163Y-137288920D01*
X198571126Y-137295445D01*
X198576419Y-137339178D01*
X198578691Y-137357956D01*
X198581375Y-137365058D01*
X198582219Y-137368496D01*
X198586083Y-137382619D01*
X198587113Y-137386030D01*
X198588419Y-137393513D01*
X198591472Y-137400468D01*
X198613739Y-137451194D01*
X198616230Y-137457300D01*
X198625679Y-137482304D01*
X198638494Y-137516218D01*
X198642793Y-137522473D01*
X198644435Y-137525614D01*
X198651533Y-137538368D01*
X198653370Y-137541474D01*
X198656423Y-137548429D01*
X198661047Y-137554455D01*
X198681717Y-137581393D01*
X198707317Y-137647614D01*
X198707754Y-137658097D01*
X198707754Y-139496134D01*
X198712229Y-139511373D01*
X198713619Y-139512578D01*
X198721302Y-139514249D01*
X198750849Y-139514249D01*
X198757368Y-139513912D01*
X198852960Y-139503993D01*
X198866354Y-139501101D01*
X199020538Y-139449662D01*
X199033716Y-139443489D01*
X199171561Y-139358187D01*
X199182962Y-139349151D01*
X199297492Y-139234422D01*
X199304548Y-139225488D01*
X199362466Y-139184427D01*
X199433389Y-139181197D01*
X199494800Y-139216824D01*
X199501600Y-139224657D01*
X199505276Y-139230598D01*
X199630451Y-139355555D01*
X199636681Y-139359395D01*
X199636682Y-139359396D01*
X199774042Y-139444066D01*
X199781016Y-139448365D01*
X199860759Y-139474814D01*
X199942365Y-139501882D01*
X199942367Y-139501882D01*
X199948893Y-139504047D01*
X199955729Y-139504747D01*
X199955732Y-139504748D01*
X199998785Y-139509159D01*
X200053354Y-139514750D01*
X200654154Y-139514750D01*
X200657400Y-139514413D01*
X200657404Y-139514413D01*
X200753062Y-139504488D01*
X200753066Y-139504487D01*
X200759920Y-139503776D01*
X200766456Y-139501595D01*
X200766458Y-139501595D01*
X200898560Y-139457522D01*
X200927700Y-139447800D01*
X201078102Y-139354728D01*
X201203059Y-139229553D01*
X201232867Y-139181196D01*
X201292029Y-139085218D01*
X201292030Y-139085216D01*
X201295869Y-139078988D01*
X201299985Y-139066579D01*
X201340418Y-139008220D01*
X201405983Y-138980985D01*
X201419577Y-138980250D01*
X201796151Y-138980250D01*
X201804721Y-138980542D01*
X201854027Y-138983904D01*
X201854031Y-138983904D01*
X201861602Y-138984420D01*
X201869078Y-138983115D01*
X201869082Y-138983115D01*
X201923674Y-138973587D01*
X201930199Y-138972624D01*
X201985168Y-138965972D01*
X201985170Y-138965971D01*
X201992710Y-138965059D01*
X201999812Y-138962375D01*
X202003250Y-138961531D01*
X202017373Y-138957667D01*
X202020784Y-138956637D01*
X202028267Y-138955331D01*
X202085947Y-138930011D01*
X202092054Y-138927520D01*
X202143867Y-138907941D01*
X202143868Y-138907940D01*
X202150972Y-138905256D01*
X202157227Y-138900957D01*
X202160368Y-138899315D01*
X202173122Y-138892217D01*
X202176228Y-138890380D01*
X202183183Y-138887327D01*
X202189210Y-138882702D01*
X202189214Y-138882700D01*
X202233152Y-138848985D01*
X202238470Y-138845121D01*
X202290402Y-138809429D01*
X202331285Y-138763543D01*
X202336248Y-138758287D01*
X204182046Y-136912490D01*
X204188312Y-136906636D01*
X204225547Y-136874154D01*
X204231274Y-136869158D01*
X204267498Y-136817617D01*
X204271423Y-136812332D01*
X204305607Y-136768735D01*
X204310292Y-136762760D01*
X204313416Y-136755842D01*
X204315245Y-136752821D01*
X204322500Y-136740102D01*
X204324188Y-136736954D01*
X204328556Y-136730739D01*
X204351438Y-136672050D01*
X204353978Y-136666005D01*
X204379913Y-136608565D01*
X204381298Y-136601092D01*
X204382369Y-136597674D01*
X204386354Y-136583685D01*
X204387251Y-136580193D01*
X204390012Y-136573111D01*
X204391004Y-136565577D01*
X204398233Y-136510670D01*
X204399265Y-136504157D01*
X204409361Y-136449682D01*
X204409361Y-136449680D01*
X204410745Y-136442213D01*
X204407209Y-136380887D01*
X204407000Y-136373635D01*
X204407000Y-135176905D01*
X204427002Y-135108784D01*
X204480658Y-135062291D01*
X204550932Y-135052187D01*
X204615512Y-135081681D01*
X204622018Y-135087732D01*
X204653079Y-135118739D01*
X204664490Y-135127751D01*
X204802493Y-135212816D01*
X204815674Y-135218963D01*
X204969960Y-135270138D01*
X204983336Y-135273005D01*
X205077688Y-135282672D01*
X205084104Y-135283000D01*
X205309135Y-135283000D01*
X205324374Y-135278525D01*
X205325579Y-135277135D01*
X205327250Y-135269452D01*
X205327250Y-134134500D01*
X205347252Y-134066379D01*
X205400908Y-134019886D01*
X205453250Y-134008500D01*
X205709250Y-134008500D01*
X205777371Y-134028502D01*
X205823864Y-134082158D01*
X205835250Y-134134500D01*
X205835250Y-135264884D01*
X205839725Y-135280123D01*
X205841115Y-135281328D01*
X205848798Y-135282999D01*
X206078345Y-135282999D01*
X206084864Y-135282662D01*
X206180456Y-135272743D01*
X206193852Y-135269851D01*
X206209122Y-135264756D01*
X206280072Y-135262170D01*
X206341156Y-135298353D01*
X206372982Y-135361817D01*
X206375000Y-135384279D01*
X206375000Y-140653000D01*
X206354998Y-140721121D01*
X206301342Y-140767614D01*
X206249000Y-140779000D01*
X171499367Y-140779000D01*
X171479982Y-140777500D01*
X171465149Y-140775190D01*
X171465145Y-140775190D01*
X171456276Y-140773809D01*
X171447374Y-140774973D01*
X171447371Y-140774973D01*
X171439988Y-140775939D01*
X171415409Y-140776733D01*
X171370799Y-140773809D01*
X171213796Y-140763518D01*
X171197457Y-140761367D01*
X170973389Y-140716799D01*
X170957471Y-140712534D01*
X170741136Y-140639098D01*
X170725919Y-140632795D01*
X170521023Y-140531754D01*
X170506750Y-140523514D01*
X170316794Y-140396591D01*
X170303719Y-140386558D01*
X170131953Y-140235927D01*
X170120298Y-140224273D01*
X169969664Y-140052512D01*
X169959631Y-140039436D01*
X169832710Y-139849491D01*
X169824469Y-139835218D01*
X169723424Y-139630327D01*
X169717116Y-139615100D01*
X169643676Y-139398762D01*
X169639411Y-139382843D01*
X169594839Y-139158788D01*
X169592687Y-139142447D01*
X169579953Y-138948221D01*
X169581026Y-138924095D01*
X169581059Y-138921393D01*
X169582441Y-138912515D01*
X169578314Y-138880959D01*
X169577250Y-138864619D01*
X169577250Y-138175919D01*
X170117001Y-138175919D01*
X170117371Y-138182740D01*
X170122895Y-138233602D01*
X170126521Y-138248854D01*
X170171676Y-138369304D01*
X170180214Y-138384899D01*
X170256715Y-138486974D01*
X170269276Y-138499535D01*
X170371351Y-138576036D01*
X170386946Y-138584574D01*
X170507394Y-138629728D01*
X170522649Y-138633355D01*
X170573514Y-138638881D01*
X170580328Y-138639250D01*
X171252885Y-138639250D01*
X171268124Y-138634775D01*
X171269329Y-138633385D01*
X171271000Y-138625702D01*
X171271000Y-138621134D01*
X171779000Y-138621134D01*
X171783475Y-138636373D01*
X171784865Y-138637578D01*
X171792548Y-138639249D01*
X172469669Y-138639249D01*
X172476490Y-138638879D01*
X172527352Y-138633355D01*
X172542604Y-138629729D01*
X172663054Y-138584574D01*
X172678649Y-138576036D01*
X172780724Y-138499535D01*
X172793285Y-138486974D01*
X172869786Y-138384899D01*
X172878324Y-138369304D01*
X172923478Y-138248856D01*
X172927105Y-138233601D01*
X172932631Y-138182736D01*
X172932813Y-138179384D01*
X176316500Y-138179384D01*
X176323255Y-138241566D01*
X176374385Y-138377955D01*
X176461739Y-138494511D01*
X176578295Y-138581865D01*
X176714684Y-138632995D01*
X176776866Y-138639750D01*
X178673134Y-138639750D01*
X178735316Y-138632995D01*
X178871705Y-138581865D01*
X178988261Y-138494511D01*
X179075615Y-138377955D01*
X179126745Y-138241566D01*
X179133500Y-138179384D01*
X179133500Y-136983116D01*
X179126745Y-136920934D01*
X179075615Y-136784545D01*
X178988261Y-136667989D01*
X178871705Y-136580635D01*
X178735316Y-136529505D01*
X178673134Y-136522750D01*
X176776866Y-136522750D01*
X176714684Y-136529505D01*
X176578295Y-136580635D01*
X176461739Y-136667989D01*
X176374385Y-136784545D01*
X176323255Y-136920934D01*
X176316500Y-136983116D01*
X176316500Y-138179384D01*
X172932813Y-138179384D01*
X172933000Y-138175922D01*
X172933000Y-137853365D01*
X172928525Y-137838126D01*
X172927135Y-137836921D01*
X172919452Y-137835250D01*
X171797115Y-137835250D01*
X171781876Y-137839725D01*
X171780671Y-137841115D01*
X171779000Y-137848798D01*
X171779000Y-138621134D01*
X171271000Y-138621134D01*
X171271000Y-137853365D01*
X171266525Y-137838126D01*
X171265135Y-137836921D01*
X171257452Y-137835250D01*
X170135116Y-137835250D01*
X170119877Y-137839725D01*
X170118672Y-137841115D01*
X170117001Y-137848798D01*
X170117001Y-138175919D01*
X169577250Y-138175919D01*
X169577250Y-137309135D01*
X170117000Y-137309135D01*
X170121475Y-137324374D01*
X170122865Y-137325579D01*
X170130548Y-137327250D01*
X171252885Y-137327250D01*
X171268124Y-137322775D01*
X171269329Y-137321385D01*
X171271000Y-137313702D01*
X171271000Y-137309135D01*
X171779000Y-137309135D01*
X171783475Y-137324374D01*
X171784865Y-137325579D01*
X171792548Y-137327250D01*
X172914884Y-137327250D01*
X172930123Y-137322775D01*
X172931328Y-137321385D01*
X172932999Y-137313702D01*
X172932999Y-136986581D01*
X172932629Y-136979760D01*
X172927105Y-136928898D01*
X172923479Y-136913646D01*
X172878324Y-136793196D01*
X172869786Y-136777601D01*
X172793285Y-136675526D01*
X172780724Y-136662965D01*
X172678649Y-136586464D01*
X172663054Y-136577926D01*
X172542606Y-136532772D01*
X172527351Y-136529145D01*
X172476486Y-136523619D01*
X172469672Y-136523250D01*
X171797115Y-136523250D01*
X171781876Y-136527725D01*
X171780671Y-136529115D01*
X171779000Y-136536798D01*
X171779000Y-137309135D01*
X171271000Y-137309135D01*
X171271000Y-136541366D01*
X171266525Y-136526127D01*
X171265135Y-136524922D01*
X171257452Y-136523251D01*
X170580331Y-136523251D01*
X170573510Y-136523621D01*
X170522648Y-136529145D01*
X170507396Y-136532771D01*
X170386946Y-136577926D01*
X170371351Y-136586464D01*
X170269276Y-136662965D01*
X170256715Y-136675526D01*
X170180214Y-136777601D01*
X170171676Y-136793196D01*
X170126522Y-136913644D01*
X170122895Y-136928899D01*
X170117369Y-136979764D01*
X170117000Y-136986578D01*
X170117000Y-137309135D01*
X169577250Y-137309135D01*
X169577250Y-134479384D01*
X170116500Y-134479384D01*
X170123255Y-134541566D01*
X170174385Y-134677955D01*
X170261739Y-134794511D01*
X170378295Y-134881865D01*
X170514684Y-134932995D01*
X170576866Y-134939750D01*
X172473134Y-134939750D01*
X172535316Y-134932995D01*
X172671705Y-134881865D01*
X172788261Y-134794511D01*
X172875615Y-134677955D01*
X172926745Y-134541566D01*
X172933500Y-134479384D01*
X172933500Y-133283116D01*
X172926745Y-133220934D01*
X172875615Y-133084545D01*
X172788261Y-132967989D01*
X172671705Y-132880635D01*
X172535316Y-132829505D01*
X172473134Y-132822750D01*
X170576866Y-132822750D01*
X170514684Y-132829505D01*
X170378295Y-132880635D01*
X170261739Y-132967989D01*
X170174385Y-133084545D01*
X170123255Y-133220934D01*
X170116500Y-133283116D01*
X170116500Y-134479384D01*
X169577250Y-134479384D01*
X169577250Y-114916305D01*
X169597252Y-114848184D01*
X169650908Y-114801691D01*
X169721182Y-114791587D01*
X169785762Y-114821081D01*
X169809328Y-114852248D01*
X169810970Y-114851232D01*
X169900127Y-114995307D01*
X169909163Y-115006708D01*
X170023893Y-115121239D01*
X170035304Y-115130251D01*
X170173307Y-115215316D01*
X170186488Y-115221463D01*
X170340774Y-115272638D01*
X170354150Y-115275505D01*
X170448502Y-115285172D01*
X170454918Y-115285500D01*
X170492449Y-115285500D01*
X170507688Y-115281025D01*
X170508893Y-115279635D01*
X170510564Y-115271952D01*
X170510564Y-112887616D01*
X170506089Y-112872377D01*
X170504699Y-112871172D01*
X170497016Y-112869501D01*
X170454969Y-112869501D01*
X170448450Y-112869838D01*
X170352858Y-112879757D01*
X170339464Y-112882649D01*
X170185280Y-112934088D01*
X170172102Y-112940261D01*
X170034257Y-113025563D01*
X170022856Y-113034599D01*
X169908325Y-113149329D01*
X169899313Y-113160740D01*
X169810510Y-113304806D01*
X169757738Y-113352299D01*
X169687666Y-113363723D01*
X169622543Y-113335449D01*
X169583043Y-113276455D01*
X169577250Y-113238690D01*
X169577250Y-110763419D01*
X171092001Y-110763419D01*
X171092371Y-110770240D01*
X171097895Y-110821102D01*
X171101521Y-110836354D01*
X171146676Y-110956804D01*
X171155214Y-110972399D01*
X171231715Y-111074474D01*
X171244276Y-111087035D01*
X171346351Y-111163536D01*
X171361946Y-111172074D01*
X171482394Y-111217228D01*
X171497649Y-111220855D01*
X171548514Y-111226381D01*
X171555328Y-111226750D01*
X172417885Y-111226750D01*
X172433124Y-111222275D01*
X172434329Y-111220885D01*
X172436000Y-111213202D01*
X172436000Y-109990865D01*
X172431525Y-109975626D01*
X172430135Y-109974421D01*
X172422452Y-109972750D01*
X171110116Y-109972750D01*
X171094877Y-109977225D01*
X171093672Y-109978615D01*
X171092001Y-109986298D01*
X171092001Y-110763419D01*
X169577250Y-110763419D01*
X169577250Y-109446635D01*
X171092000Y-109446635D01*
X171096475Y-109461874D01*
X171097865Y-109463079D01*
X171105548Y-109464750D01*
X172417885Y-109464750D01*
X172433124Y-109460275D01*
X172434329Y-109458885D01*
X172436000Y-109451202D01*
X172436000Y-108228866D01*
X172431525Y-108213627D01*
X172430135Y-108212422D01*
X172422452Y-108210751D01*
X171555331Y-108210751D01*
X171548510Y-108211121D01*
X171497648Y-108216645D01*
X171482396Y-108220271D01*
X171361946Y-108265426D01*
X171346351Y-108273964D01*
X171244276Y-108350465D01*
X171231715Y-108363026D01*
X171155214Y-108465101D01*
X171146676Y-108480696D01*
X171101522Y-108601144D01*
X171097895Y-108616399D01*
X171092369Y-108667264D01*
X171092000Y-108674078D01*
X171092000Y-109446635D01*
X169577250Y-109446635D01*
X169577250Y-106833419D01*
X171092001Y-106833419D01*
X171092371Y-106840240D01*
X171097895Y-106891102D01*
X171101521Y-106906354D01*
X171146676Y-107026804D01*
X171155214Y-107042399D01*
X171231715Y-107144474D01*
X171244276Y-107157035D01*
X171346351Y-107233536D01*
X171361946Y-107242074D01*
X171482394Y-107287228D01*
X171497649Y-107290855D01*
X171548514Y-107296381D01*
X171555328Y-107296750D01*
X172417885Y-107296750D01*
X172433124Y-107292275D01*
X172434329Y-107290885D01*
X172436000Y-107283202D01*
X172436000Y-107278634D01*
X172944000Y-107278634D01*
X172948475Y-107293873D01*
X172949865Y-107295078D01*
X172957548Y-107296749D01*
X173824669Y-107296749D01*
X173831490Y-107296379D01*
X173882352Y-107290855D01*
X173897604Y-107287229D01*
X174018054Y-107242074D01*
X174033649Y-107233536D01*
X174135724Y-107157035D01*
X174148285Y-107144474D01*
X174224786Y-107042399D01*
X174233324Y-107026804D01*
X174278478Y-106906356D01*
X174282105Y-106891101D01*
X174287631Y-106840236D01*
X174288000Y-106833422D01*
X174288000Y-106833419D01*
X181312001Y-106833419D01*
X181312371Y-106840240D01*
X181317895Y-106891102D01*
X181321521Y-106906354D01*
X181366676Y-107026804D01*
X181375214Y-107042399D01*
X181451715Y-107144474D01*
X181464276Y-107157035D01*
X181566351Y-107233536D01*
X181581946Y-107242074D01*
X181702394Y-107287228D01*
X181717649Y-107290855D01*
X181768514Y-107296381D01*
X181775328Y-107296750D01*
X182637885Y-107296750D01*
X182653124Y-107292275D01*
X182654329Y-107290885D01*
X182656000Y-107283202D01*
X182656000Y-107278634D01*
X183164000Y-107278634D01*
X183168475Y-107293873D01*
X183169865Y-107295078D01*
X183177548Y-107296749D01*
X184044669Y-107296749D01*
X184051490Y-107296379D01*
X184102352Y-107290855D01*
X184117604Y-107287229D01*
X184238054Y-107242074D01*
X184253649Y-107233536D01*
X184355724Y-107157035D01*
X184368285Y-107144474D01*
X184444786Y-107042399D01*
X184453324Y-107026804D01*
X184498478Y-106906356D01*
X184502105Y-106891101D01*
X184507631Y-106840236D01*
X184508000Y-106833422D01*
X184508000Y-106060865D01*
X184503525Y-106045626D01*
X184502135Y-106044421D01*
X184494452Y-106042750D01*
X183182115Y-106042750D01*
X183166876Y-106047225D01*
X183165671Y-106048615D01*
X183164000Y-106056298D01*
X183164000Y-107278634D01*
X182656000Y-107278634D01*
X182656000Y-106060865D01*
X182651525Y-106045626D01*
X182650135Y-106044421D01*
X182642452Y-106042750D01*
X181330116Y-106042750D01*
X181314877Y-106047225D01*
X181313672Y-106048615D01*
X181312001Y-106056298D01*
X181312001Y-106833419D01*
X174288000Y-106833419D01*
X174288000Y-106060865D01*
X174283525Y-106045626D01*
X174282135Y-106044421D01*
X174274452Y-106042750D01*
X172962115Y-106042750D01*
X172946876Y-106047225D01*
X172945671Y-106048615D01*
X172944000Y-106056298D01*
X172944000Y-107278634D01*
X172436000Y-107278634D01*
X172436000Y-106060865D01*
X172431525Y-106045626D01*
X172430135Y-106044421D01*
X172422452Y-106042750D01*
X171110116Y-106042750D01*
X171094877Y-106047225D01*
X171093672Y-106048615D01*
X171092001Y-106056298D01*
X171092001Y-106833419D01*
X169577250Y-106833419D01*
X169577250Y-105618120D01*
X169578751Y-105598732D01*
X169581059Y-105583912D01*
X169581059Y-105583911D01*
X169582441Y-105575037D01*
X169580311Y-105558743D01*
X169579518Y-105534169D01*
X169579590Y-105533079D01*
X169580668Y-105516635D01*
X171092000Y-105516635D01*
X171096475Y-105531874D01*
X171097865Y-105533079D01*
X171105548Y-105534750D01*
X172417885Y-105534750D01*
X172433124Y-105530275D01*
X172434329Y-105528885D01*
X172436000Y-105521202D01*
X172436000Y-105516635D01*
X172944000Y-105516635D01*
X172948475Y-105531874D01*
X172949865Y-105533079D01*
X172957548Y-105534750D01*
X174269884Y-105534750D01*
X174285123Y-105530275D01*
X174286328Y-105528885D01*
X174287999Y-105521202D01*
X174287999Y-105516635D01*
X181312000Y-105516635D01*
X181316475Y-105531874D01*
X181317865Y-105533079D01*
X181325548Y-105534750D01*
X182637885Y-105534750D01*
X182653124Y-105530275D01*
X182654329Y-105528885D01*
X182656000Y-105521202D01*
X182656000Y-105516635D01*
X183164000Y-105516635D01*
X183168475Y-105531874D01*
X183169865Y-105533079D01*
X183177548Y-105534750D01*
X184489884Y-105534750D01*
X184505123Y-105530275D01*
X184506328Y-105528885D01*
X184507999Y-105521202D01*
X184507999Y-104744081D01*
X184507629Y-104737260D01*
X184502105Y-104686398D01*
X184498479Y-104671146D01*
X184453324Y-104550696D01*
X184444786Y-104535101D01*
X184368285Y-104433026D01*
X184355724Y-104420465D01*
X184253649Y-104343964D01*
X184238054Y-104335426D01*
X184117606Y-104290272D01*
X184102351Y-104286645D01*
X184051486Y-104281119D01*
X184044672Y-104280750D01*
X183182115Y-104280750D01*
X183166876Y-104285225D01*
X183165671Y-104286615D01*
X183164000Y-104294298D01*
X183164000Y-105516635D01*
X182656000Y-105516635D01*
X182656000Y-104298866D01*
X182651525Y-104283627D01*
X182650135Y-104282422D01*
X182642452Y-104280751D01*
X181775331Y-104280751D01*
X181768510Y-104281121D01*
X181717648Y-104286645D01*
X181702396Y-104290271D01*
X181581946Y-104335426D01*
X181566351Y-104343964D01*
X181464276Y-104420465D01*
X181451715Y-104433026D01*
X181375214Y-104535101D01*
X181366676Y-104550696D01*
X181321522Y-104671144D01*
X181317895Y-104686399D01*
X181312369Y-104737264D01*
X181312000Y-104744078D01*
X181312000Y-105516635D01*
X174287999Y-105516635D01*
X174287999Y-104744081D01*
X174287629Y-104737260D01*
X174282105Y-104686398D01*
X174278479Y-104671146D01*
X174233324Y-104550696D01*
X174224786Y-104535101D01*
X174148285Y-104433026D01*
X174135724Y-104420465D01*
X174033649Y-104343964D01*
X174018054Y-104335426D01*
X173897606Y-104290272D01*
X173882351Y-104286645D01*
X173831486Y-104281119D01*
X173824672Y-104280750D01*
X172962115Y-104280750D01*
X172946876Y-104285225D01*
X172945671Y-104286615D01*
X172944000Y-104294298D01*
X172944000Y-105516635D01*
X172436000Y-105516635D01*
X172436000Y-104298866D01*
X172431525Y-104283627D01*
X172430135Y-104282422D01*
X172422452Y-104280751D01*
X171555331Y-104280751D01*
X171548510Y-104281121D01*
X171497648Y-104286645D01*
X171482396Y-104290271D01*
X171361946Y-104335426D01*
X171346351Y-104343964D01*
X171244276Y-104420465D01*
X171231715Y-104433026D01*
X171155214Y-104535101D01*
X171146676Y-104550696D01*
X171101522Y-104671144D01*
X171097895Y-104686399D01*
X171092369Y-104737264D01*
X171092000Y-104744078D01*
X171092000Y-105516635D01*
X169580668Y-105516635D01*
X169592736Y-105332559D01*
X169594888Y-105316218D01*
X169639459Y-105092170D01*
X169643724Y-105076251D01*
X169717162Y-104859919D01*
X169723470Y-104844692D01*
X169801535Y-104686399D01*
X169824513Y-104639806D01*
X169832753Y-104625534D01*
X169959670Y-104435595D01*
X169969703Y-104422519D01*
X170120334Y-104250762D01*
X170131988Y-104239108D01*
X170303753Y-104088477D01*
X170316821Y-104078450D01*
X170506779Y-103951526D01*
X170521027Y-103943299D01*
X170725945Y-103842247D01*
X170741155Y-103835948D01*
X170957483Y-103762515D01*
X170973398Y-103758251D01*
X171085432Y-103735966D01*
X171197462Y-103713682D01*
X171213802Y-103711531D01*
X171408465Y-103698772D01*
X171430577Y-103699756D01*
X171434845Y-103699808D01*
X171443724Y-103701191D01*
X171475286Y-103697064D01*
X171491621Y-103696000D01*
X206249000Y-103696000D01*
X206317121Y-103716002D01*
G37*
G04 #@! TD.AperFunction*
G04 #@! TA.AperFunction,Conductor*
G36*
X184164527Y-122245301D02*
G01*
X184184629Y-122248485D01*
X184228804Y-122244309D01*
X184240663Y-122243750D01*
X184601028Y-122243750D01*
X184630225Y-122247905D01*
X184631292Y-122248367D01*
X184639121Y-122249607D01*
X184675127Y-122255310D01*
X184686740Y-122257715D01*
X184729718Y-122268750D01*
X184750065Y-122268750D01*
X184769777Y-122270301D01*
X184789879Y-122273485D01*
X184797771Y-122272739D01*
X184834056Y-122269309D01*
X184845914Y-122268750D01*
X190353000Y-122268750D01*
X190421121Y-122288752D01*
X190467614Y-122342408D01*
X190479000Y-122394750D01*
X190479000Y-123678000D01*
X190458998Y-123746121D01*
X190405342Y-123792614D01*
X190353000Y-123804000D01*
X188764366Y-123804000D01*
X188702184Y-123810755D01*
X188565795Y-123861885D01*
X188449239Y-123949239D01*
X188361885Y-124065795D01*
X188310755Y-124202184D01*
X188304000Y-124264366D01*
X188304000Y-124910634D01*
X188304369Y-124914031D01*
X188310755Y-124972816D01*
X188308326Y-124973080D01*
X188308326Y-125001920D01*
X188310755Y-125002184D01*
X188304000Y-125064366D01*
X188304000Y-125710634D01*
X188304369Y-125714031D01*
X188310755Y-125772816D01*
X188308326Y-125773080D01*
X188308326Y-125801920D01*
X188310755Y-125802184D01*
X188304000Y-125864366D01*
X188304000Y-126178275D01*
X188283998Y-126246396D01*
X188230342Y-126292889D01*
X188160068Y-126302993D01*
X188095488Y-126273499D01*
X188088905Y-126267370D01*
X188007243Y-126185708D01*
X187973217Y-126123396D01*
X187971028Y-126109783D01*
X187970006Y-126100054D01*
X187964542Y-126048072D01*
X187905527Y-125866444D01*
X187884822Y-125830581D01*
X187855419Y-125779655D01*
X187810040Y-125701056D01*
X187682253Y-125559134D01*
X187527752Y-125446882D01*
X187521724Y-125444198D01*
X187521722Y-125444197D01*
X187359319Y-125371891D01*
X187359318Y-125371891D01*
X187353288Y-125369206D01*
X187259887Y-125349353D01*
X187172944Y-125330872D01*
X187172939Y-125330872D01*
X187166487Y-125329500D01*
X186975513Y-125329500D01*
X186969061Y-125330872D01*
X186969056Y-125330872D01*
X186882113Y-125349353D01*
X186788712Y-125369206D01*
X186782682Y-125371891D01*
X186782681Y-125371891D01*
X186620278Y-125444197D01*
X186620276Y-125444198D01*
X186614248Y-125446882D01*
X186459747Y-125559134D01*
X186331960Y-125701056D01*
X186286581Y-125779655D01*
X186257179Y-125830581D01*
X186236473Y-125866444D01*
X186234432Y-125872726D01*
X186182049Y-126033942D01*
X186141975Y-126092547D01*
X186076578Y-126120184D01*
X186006622Y-126108077D01*
X185955072Y-126061308D01*
X185948478Y-126050652D01*
X185823303Y-125925695D01*
X185727181Y-125866444D01*
X185678968Y-125836725D01*
X185678966Y-125836724D01*
X185672738Y-125832885D01*
X185535906Y-125787500D01*
X185511389Y-125779368D01*
X185511387Y-125779368D01*
X185504861Y-125777203D01*
X185498025Y-125776503D01*
X185498022Y-125776502D01*
X185454969Y-125772091D01*
X185400400Y-125766500D01*
X184799600Y-125766500D01*
X184796354Y-125766837D01*
X184796350Y-125766837D01*
X184700692Y-125776762D01*
X184700688Y-125776763D01*
X184693834Y-125777474D01*
X184687298Y-125779655D01*
X184687296Y-125779655D01*
X184619769Y-125802184D01*
X184526054Y-125833450D01*
X184375652Y-125926522D01*
X184250695Y-126051697D01*
X184247898Y-126056235D01*
X184190647Y-126096824D01*
X184119724Y-126100054D01*
X184058313Y-126064428D01*
X184050938Y-126055932D01*
X184042902Y-126045793D01*
X183928171Y-125931261D01*
X183916760Y-125922249D01*
X183778757Y-125837184D01*
X183765576Y-125831037D01*
X183611290Y-125779862D01*
X183597914Y-125776995D01*
X183503562Y-125767328D01*
X183497145Y-125767000D01*
X183472115Y-125767000D01*
X183456876Y-125771475D01*
X183455671Y-125772865D01*
X183454000Y-125780548D01*
X183454000Y-128214884D01*
X183458475Y-128230123D01*
X183459865Y-128231328D01*
X183467548Y-128232999D01*
X183497095Y-128232999D01*
X183503614Y-128232662D01*
X183599206Y-128222743D01*
X183612600Y-128219851D01*
X183766784Y-128168412D01*
X183779962Y-128162239D01*
X183917807Y-128076937D01*
X183929208Y-128067901D01*
X184043738Y-127953172D01*
X184050794Y-127944238D01*
X184108712Y-127903177D01*
X184179635Y-127899947D01*
X184241046Y-127935574D01*
X184247846Y-127943407D01*
X184251522Y-127949348D01*
X184376697Y-128074305D01*
X184382927Y-128078145D01*
X184382928Y-128078146D01*
X184520288Y-128162816D01*
X184527262Y-128167115D01*
X184586810Y-128186866D01*
X184688611Y-128220632D01*
X184688613Y-128220632D01*
X184695139Y-128222797D01*
X184701975Y-128223497D01*
X184701978Y-128223498D01*
X184745031Y-128227909D01*
X184799600Y-128233500D01*
X185382577Y-128233500D01*
X185450698Y-128253502D01*
X185471673Y-128270405D01*
X186182255Y-128980988D01*
X186189825Y-128989307D01*
X186193947Y-128995803D01*
X186199725Y-129001229D01*
X186199726Y-129001230D01*
X186243765Y-129042585D01*
X186246607Y-129045340D01*
X186266406Y-129065139D01*
X186269531Y-129067563D01*
X186269540Y-129067571D01*
X186269626Y-129067637D01*
X186278651Y-129075345D01*
X186310994Y-129105717D01*
X186317938Y-129109535D01*
X186317940Y-129109536D01*
X186328829Y-129115522D01*
X186345347Y-129126373D01*
X186361433Y-129138850D01*
X186402166Y-129156476D01*
X186412814Y-129161693D01*
X186451697Y-129183069D01*
X186459372Y-129185040D01*
X186459378Y-129185042D01*
X186471411Y-129188131D01*
X186490113Y-129194534D01*
X186508792Y-129202617D01*
X186542628Y-129207976D01*
X186552627Y-129209560D01*
X186564240Y-129211965D01*
X186607218Y-129223000D01*
X186627565Y-129223000D01*
X186647277Y-129224551D01*
X186667379Y-129227735D01*
X186675271Y-129226989D01*
X186711556Y-129223559D01*
X186723414Y-129223000D01*
X188403580Y-129223000D01*
X188471701Y-129243002D01*
X188479145Y-129248174D01*
X188530515Y-129286674D01*
X188573030Y-129343534D01*
X188578055Y-129414352D01*
X188543996Y-129476645D01*
X188530515Y-129488326D01*
X188479145Y-129526826D01*
X188412639Y-129551674D01*
X188403580Y-129552000D01*
X188153520Y-129552000D01*
X188142291Y-129551471D01*
X188134781Y-129549792D01*
X188126855Y-129550041D01*
X188126854Y-129550041D01*
X188066502Y-129551938D01*
X188062544Y-129552000D01*
X188034517Y-129552000D01*
X188030471Y-129552511D01*
X188018643Y-129553442D01*
X187974295Y-129554836D01*
X187966678Y-129557049D01*
X187954753Y-129560513D01*
X187935394Y-129564522D01*
X187934133Y-129564681D01*
X187915201Y-129567073D01*
X187907837Y-129569989D01*
X187907832Y-129569990D01*
X187885921Y-129578666D01*
X187873928Y-129583414D01*
X187862724Y-129587251D01*
X187820107Y-129599632D01*
X187802594Y-129609989D01*
X187784843Y-129618685D01*
X187773285Y-129623261D01*
X187773280Y-129623264D01*
X187765912Y-129626181D01*
X187759498Y-129630841D01*
X187743537Y-129642437D01*
X187669477Y-129666500D01*
X181043475Y-129666500D01*
X180975354Y-129646498D01*
X180954380Y-129629595D01*
X179685406Y-128360621D01*
X179651380Y-128298309D01*
X179656445Y-128227494D01*
X179682993Y-128188432D01*
X179681253Y-128186866D01*
X179804621Y-128049852D01*
X179804622Y-128049851D01*
X179809040Y-128044944D01*
X179884009Y-127915095D01*
X179901223Y-127885279D01*
X179901224Y-127885278D01*
X179904527Y-127879556D01*
X179963542Y-127697928D01*
X179971291Y-127624206D01*
X179982023Y-127522095D01*
X182192001Y-127522095D01*
X182192338Y-127528614D01*
X182202257Y-127624206D01*
X182205149Y-127637600D01*
X182256588Y-127791784D01*
X182262761Y-127804962D01*
X182348063Y-127942807D01*
X182357099Y-127954208D01*
X182471829Y-128068739D01*
X182483240Y-128077751D01*
X182621243Y-128162816D01*
X182634424Y-128168963D01*
X182788710Y-128220138D01*
X182802086Y-128223005D01*
X182896438Y-128232672D01*
X182902854Y-128233000D01*
X182927885Y-128233000D01*
X182943124Y-128228525D01*
X182944329Y-128227135D01*
X182946000Y-128219452D01*
X182946000Y-127272115D01*
X182941525Y-127256876D01*
X182940135Y-127255671D01*
X182932452Y-127254000D01*
X182210116Y-127254000D01*
X182194877Y-127258475D01*
X182193672Y-127259865D01*
X182192001Y-127267548D01*
X182192001Y-127522095D01*
X179982023Y-127522095D01*
X179982814Y-127514565D01*
X179983504Y-127508000D01*
X179973364Y-127411525D01*
X179964232Y-127324635D01*
X179964232Y-127324633D01*
X179963542Y-127318072D01*
X179904527Y-127136444D01*
X179809040Y-126971056D01*
X179737864Y-126892007D01*
X179707146Y-126828000D01*
X179705500Y-126807697D01*
X179705500Y-126727885D01*
X182192000Y-126727885D01*
X182196475Y-126743124D01*
X182197865Y-126744329D01*
X182205548Y-126746000D01*
X182927885Y-126746000D01*
X182943124Y-126741525D01*
X182944329Y-126740135D01*
X182946000Y-126732452D01*
X182946000Y-125785116D01*
X182941525Y-125769877D01*
X182940135Y-125768672D01*
X182932452Y-125767001D01*
X182902905Y-125767001D01*
X182896386Y-125767338D01*
X182800794Y-125777257D01*
X182787400Y-125780149D01*
X182633216Y-125831588D01*
X182620038Y-125837761D01*
X182482193Y-125923063D01*
X182470792Y-125932099D01*
X182356261Y-126046829D01*
X182347249Y-126058240D01*
X182262184Y-126196243D01*
X182256037Y-126209424D01*
X182204862Y-126363710D01*
X182201995Y-126377086D01*
X182192328Y-126471438D01*
X182192000Y-126477855D01*
X182192000Y-126727885D01*
X179705500Y-126727885D01*
X179705500Y-123759422D01*
X179725502Y-123691301D01*
X179742405Y-123670327D01*
X181132078Y-122280655D01*
X181194390Y-122246629D01*
X181221173Y-122243750D01*
X184144815Y-122243750D01*
X184164527Y-122245301D01*
G37*
G04 #@! TD.AperFunction*
G04 #@! TA.AperFunction,Conductor*
G36*
X194358621Y-117297252D02*
G01*
X194405114Y-117350908D01*
X194416500Y-117403250D01*
X194416500Y-118621134D01*
X194420975Y-118636373D01*
X194422365Y-118637578D01*
X194430048Y-118639249D01*
X194907169Y-118639249D01*
X194913990Y-118638879D01*
X194964852Y-118633355D01*
X194980104Y-118629729D01*
X195100554Y-118584574D01*
X195116148Y-118576036D01*
X195186518Y-118523297D01*
X195253024Y-118498449D01*
X195322407Y-118513502D01*
X195337648Y-118523297D01*
X195415795Y-118581865D01*
X195552184Y-118632995D01*
X195611264Y-118639413D01*
X195614366Y-118639750D01*
X195614179Y-118641473D01*
X195674709Y-118662835D01*
X195718256Y-118718907D01*
X195727000Y-118765026D01*
X195727000Y-119425077D01*
X195706998Y-119493198D01*
X195690095Y-119514172D01*
X194970595Y-120233672D01*
X194908283Y-120267698D01*
X194837468Y-120262633D01*
X194792405Y-120233672D01*
X193807905Y-119249172D01*
X193773879Y-119186860D01*
X193771000Y-119160077D01*
X193771000Y-118765250D01*
X193791002Y-118697129D01*
X193844658Y-118650636D01*
X193873034Y-118644463D01*
X193873002Y-118644354D01*
X193905624Y-118634775D01*
X193906829Y-118633385D01*
X193908500Y-118625702D01*
X193908500Y-117403250D01*
X193928502Y-117335129D01*
X193982158Y-117288636D01*
X194034500Y-117277250D01*
X194290500Y-117277250D01*
X194358621Y-117297252D01*
G37*
G04 #@! TD.AperFunction*
G04 #@! TD*
M02*
