M48
; DRILL file {KiCad 6.0.11-2627ca5db0~126~ubuntu20.04.1} date Sun 14 Jul 2024 02:52:55 AM EDT
; FORMAT={-:-/ absolute / inch / decimal}
; #@! TF.CreationDate,2024-07-14T02:52:55-04:00
; #@! TF.GenerationSoftware,Kicad,Pcbnew,6.0.11-2627ca5db0~126~ubuntu20.04.1
; #@! TF.FileFunction,Plated,1,2,PTH
FMAT,2
INCH
; #@! TA.AperFunction,Plated,PTH,ViaDrill
T1C0.0157
; #@! TA.AperFunction,Plated,PTH,ComponentDrill
T2C0.0579
%
G90
G05
T1
X6.79Y-4.575
X6.8586Y-4.4286
X7.05Y-5.02
X7.05Y-5.205
X7.14Y-4.425
X7.365Y-4.97
X7.365Y-5.1786
X7.365Y-5.27
X7.4812Y-4.7562
X8.02Y-5.255
X8.105Y-5.02
T2
X8.35Y-4.3375
X8.35Y-5.0875
X8.4016Y-4.28
X8.4016Y-5.03
X8.5984Y-4.2603
X8.5984Y-5.0103
X8.6Y-4.2375
X8.6Y-4.9875
X9.1Y-4.3375
X9.1Y-5.0875
X9.1516Y-4.28
X9.1516Y-5.03
X9.3484Y-4.2603
X9.3484Y-5.0103
X9.35Y-4.2375
X9.35Y-4.9875
T0
M30
